<svg xmlns="http://www.w3.org/2000/svg" xmlns:xlink="http://www.w3.org/1999/xlink" width="196.114" height="180" viewBox="0 0 196.114 180">
  <defs>
    <clipPath id="clip-path">
      <rect id="SVGID" width="196.114" height="180" transform="translate(6318.947 1921.192)" fill="none"/>
    </clipPath>
  </defs>
  <g id="dots-orange" transform="translate(-6318.947 -1921.192)">
    <g id="Group_313" data-name="Group 313" clip-path="url(#clip-path)">
      <g id="Group_312" data-name="Group 312">
        <g id="Ellipse_1224" data-name="Ellipse 1224" transform="translate(6320.49 1922.049)" fill="none" stroke="#e45c2c" stroke-miterlimit="10" stroke-width="1">
          <circle cx="2.571" cy="2.571" r="2.571" stroke="none"/>
          <circle cx="2.571" cy="2.571" r="2.071" fill="none"/>
        </g>
        <g id="Ellipse_1225" data-name="Ellipse 1225" transform="translate(6337.633 1922.049)" fill="none" stroke="#e45c2c" stroke-miterlimit="10" stroke-width="1">
          <circle cx="2.571" cy="2.571" r="2.571" stroke="none"/>
          <circle cx="2.571" cy="2.571" r="2.071" fill="none"/>
        </g>
        <g id="Ellipse_1226" data-name="Ellipse 1226" transform="translate(6354.776 1922.049)" fill="none" stroke="#e45c2c" stroke-miterlimit="10" stroke-width="1">
          <circle cx="2.571" cy="2.571" r="2.571" stroke="none"/>
          <circle cx="2.571" cy="2.571" r="2.071" fill="none"/>
        </g>
        <g id="Ellipse_1227" data-name="Ellipse 1227" transform="translate(6371.919 1922.049)" fill="none" stroke="#e45c2c" stroke-miterlimit="10" stroke-width="1">
          <circle cx="2.571" cy="2.571" r="2.571" stroke="none"/>
          <circle cx="2.571" cy="2.571" r="2.071" fill="none"/>
        </g>
        <g id="Ellipse_1228" data-name="Ellipse 1228" transform="translate(6389.062 1922.049)" fill="none" stroke="#e45c2c" stroke-miterlimit="10" stroke-width="1">
          <circle cx="2.571" cy="2.571" r="2.571" stroke="none"/>
          <circle cx="2.571" cy="2.571" r="2.071" fill="none"/>
        </g>
        <g id="Ellipse_1229" data-name="Ellipse 1229" transform="translate(6406.205 1922.049)" fill="none" stroke="#e45c2c" stroke-miterlimit="10" stroke-width="1">
          <circle cx="2.571" cy="2.571" r="2.571" stroke="none"/>
          <circle cx="2.571" cy="2.571" r="2.071" fill="none"/>
        </g>
        <g id="Ellipse_1230" data-name="Ellipse 1230" transform="translate(6423.348 1922.049)" fill="none" stroke="#e45c2c" stroke-miterlimit="10" stroke-width="1">
          <circle cx="2.571" cy="2.571" r="2.571" stroke="none"/>
          <circle cx="2.571" cy="2.571" r="2.071" fill="none"/>
        </g>
        <g id="Ellipse_1231" data-name="Ellipse 1231" transform="translate(6440.49 1922.049)" fill="none" stroke="#e45c2c" stroke-miterlimit="10" stroke-width="1">
          <circle cx="2.571" cy="2.571" r="2.571" stroke="none"/>
          <circle cx="2.571" cy="2.571" r="2.071" fill="none"/>
        </g>
        <g id="Ellipse_1232" data-name="Ellipse 1232" transform="translate(6457.633 1922.049)" fill="none" stroke="#e45c2c" stroke-miterlimit="10" stroke-width="1">
          <circle cx="2.571" cy="2.571" r="2.571" stroke="none"/>
          <circle cx="2.571" cy="2.571" r="2.071" fill="none"/>
        </g>
        <g id="Ellipse_1233" data-name="Ellipse 1233" transform="translate(6474.776 1922.049)" fill="none" stroke="#e45c2c" stroke-miterlimit="10" stroke-width="1">
          <circle cx="2.571" cy="2.571" r="2.571" stroke="none"/>
          <circle cx="2.571" cy="2.571" r="2.071" fill="none"/>
        </g>
        <g id="Ellipse_1234" data-name="Ellipse 1234" transform="translate(6491.919 1922.049)" fill="none" stroke="#e45c2c" stroke-miterlimit="10" stroke-width="1">
          <circle cx="2.571" cy="2.571" r="2.571" stroke="none"/>
          <circle cx="2.571" cy="2.571" r="2.071" fill="none"/>
        </g>
        <g id="Ellipse_1235" data-name="Ellipse 1235" transform="translate(6509.062 1922.049)" fill="none" stroke="#e45c2c" stroke-miterlimit="10" stroke-width="1">
          <circle cx="2.571" cy="2.571" r="2.571" stroke="none"/>
          <circle cx="2.571" cy="2.571" r="2.071" fill="none"/>
        </g>
        <g id="Ellipse_1236" data-name="Ellipse 1236" transform="translate(6320.49 1939.192)" fill="none" stroke="#e45c2c" stroke-miterlimit="10" stroke-width="1">
          <circle cx="2.571" cy="2.571" r="2.571" stroke="none"/>
          <circle cx="2.571" cy="2.571" r="2.071" fill="none"/>
        </g>
        <g id="Ellipse_1237" data-name="Ellipse 1237" transform="translate(6337.633 1939.192)" fill="none" stroke="#e45c2c" stroke-miterlimit="10" stroke-width="1">
          <circle cx="2.571" cy="2.571" r="2.571" stroke="none"/>
          <circle cx="2.571" cy="2.571" r="2.071" fill="none"/>
        </g>
        <g id="Ellipse_1238" data-name="Ellipse 1238" transform="translate(6354.776 1939.192)" fill="none" stroke="#e45c2c" stroke-miterlimit="10" stroke-width="1">
          <circle cx="2.571" cy="2.571" r="2.571" stroke="none"/>
          <circle cx="2.571" cy="2.571" r="2.071" fill="none"/>
        </g>
        <g id="Ellipse_1239" data-name="Ellipse 1239" transform="translate(6371.919 1939.192)" fill="none" stroke="#e45c2c" stroke-miterlimit="10" stroke-width="1">
          <circle cx="2.571" cy="2.571" r="2.571" stroke="none"/>
          <circle cx="2.571" cy="2.571" r="2.071" fill="none"/>
        </g>
        <g id="Ellipse_1240" data-name="Ellipse 1240" transform="translate(6389.062 1939.192)" fill="none" stroke="#e45c2c" stroke-miterlimit="10" stroke-width="1">
          <circle cx="2.571" cy="2.571" r="2.571" stroke="none"/>
          <circle cx="2.571" cy="2.571" r="2.071" fill="none"/>
        </g>
        <g id="Ellipse_1241" data-name="Ellipse 1241" transform="translate(6406.205 1939.192)" fill="none" stroke="#e45c2c" stroke-miterlimit="10" stroke-width="1">
          <circle cx="2.571" cy="2.571" r="2.571" stroke="none"/>
          <circle cx="2.571" cy="2.571" r="2.071" fill="none"/>
        </g>
        <g id="Ellipse_1242" data-name="Ellipse 1242" transform="translate(6423.348 1939.192)" fill="none" stroke="#e45c2c" stroke-miterlimit="10" stroke-width="1">
          <circle cx="2.571" cy="2.571" r="2.571" stroke="none"/>
          <circle cx="2.571" cy="2.571" r="2.071" fill="none"/>
        </g>
        <g id="Ellipse_1243" data-name="Ellipse 1243" transform="translate(6440.49 1939.192)" fill="none" stroke="#e45c2c" stroke-miterlimit="10" stroke-width="1">
          <circle cx="2.571" cy="2.571" r="2.571" stroke="none"/>
          <circle cx="2.571" cy="2.571" r="2.071" fill="none"/>
        </g>
        <g id="Ellipse_1244" data-name="Ellipse 1244" transform="translate(6457.633 1939.192)" fill="none" stroke="#e45c2c" stroke-miterlimit="10" stroke-width="1">
          <circle cx="2.571" cy="2.571" r="2.571" stroke="none"/>
          <circle cx="2.571" cy="2.571" r="2.071" fill="none"/>
        </g>
        <g id="Ellipse_1245" data-name="Ellipse 1245" transform="translate(6474.776 1939.192)" fill="none" stroke="#e45c2c" stroke-miterlimit="10" stroke-width="1">
          <circle cx="2.571" cy="2.571" r="2.571" stroke="none"/>
          <circle cx="2.571" cy="2.571" r="2.071" fill="none"/>
        </g>
        <g id="Ellipse_1246" data-name="Ellipse 1246" transform="translate(6491.919 1939.192)" fill="none" stroke="#e45c2c" stroke-miterlimit="10" stroke-width="1">
          <circle cx="2.571" cy="2.571" r="2.571" stroke="none"/>
          <circle cx="2.571" cy="2.571" r="2.071" fill="none"/>
        </g>
        <g id="Ellipse_1247" data-name="Ellipse 1247" transform="translate(6509.062 1939.192)" fill="none" stroke="#e45c2c" stroke-miterlimit="10" stroke-width="1">
          <circle cx="2.571" cy="2.571" r="2.571" stroke="none"/>
          <circle cx="2.571" cy="2.571" r="2.071" fill="none"/>
        </g>
        <g id="Ellipse_1248" data-name="Ellipse 1248" transform="translate(6320.49 1956.335)" fill="none" stroke="#e45c2c" stroke-miterlimit="10" stroke-width="1">
          <circle cx="2.571" cy="2.571" r="2.571" stroke="none"/>
          <circle cx="2.571" cy="2.571" r="2.071" fill="none"/>
        </g>
        <g id="Ellipse_1249" data-name="Ellipse 1249" transform="translate(6337.633 1956.335)" fill="none" stroke="#e45c2c" stroke-miterlimit="10" stroke-width="1">
          <circle cx="2.571" cy="2.571" r="2.571" stroke="none"/>
          <circle cx="2.571" cy="2.571" r="2.071" fill="none"/>
        </g>
        <g id="Ellipse_1250" data-name="Ellipse 1250" transform="translate(6354.776 1956.335)" fill="none" stroke="#e45c2c" stroke-miterlimit="10" stroke-width="1">
          <circle cx="2.571" cy="2.571" r="2.571" stroke="none"/>
          <circle cx="2.571" cy="2.571" r="2.071" fill="none"/>
        </g>
        <g id="Ellipse_1251" data-name="Ellipse 1251" transform="translate(6371.919 1956.335)" fill="none" stroke="#e45c2c" stroke-miterlimit="10" stroke-width="1">
          <circle cx="2.571" cy="2.571" r="2.571" stroke="none"/>
          <circle cx="2.571" cy="2.571" r="2.071" fill="none"/>
        </g>
        <g id="Ellipse_1252" data-name="Ellipse 1252" transform="translate(6389.062 1956.335)" fill="none" stroke="#e45c2c" stroke-miterlimit="10" stroke-width="1">
          <circle cx="2.571" cy="2.571" r="2.571" stroke="none"/>
          <circle cx="2.571" cy="2.571" r="2.071" fill="none"/>
        </g>
        <g id="Ellipse_1253" data-name="Ellipse 1253" transform="translate(6406.205 1956.335)" fill="none" stroke="#e45c2c" stroke-miterlimit="10" stroke-width="1">
          <circle cx="2.571" cy="2.571" r="2.571" stroke="none"/>
          <circle cx="2.571" cy="2.571" r="2.071" fill="none"/>
        </g>
        <g id="Ellipse_1254" data-name="Ellipse 1254" transform="translate(6423.348 1956.335)" fill="none" stroke="#e45c2c" stroke-miterlimit="10" stroke-width="1">
          <circle cx="2.571" cy="2.571" r="2.571" stroke="none"/>
          <circle cx="2.571" cy="2.571" r="2.071" fill="none"/>
        </g>
        <g id="Ellipse_1255" data-name="Ellipse 1255" transform="translate(6440.49 1956.335)" fill="none" stroke="#e45c2c" stroke-miterlimit="10" stroke-width="1">
          <circle cx="2.571" cy="2.571" r="2.571" stroke="none"/>
          <circle cx="2.571" cy="2.571" r="2.071" fill="none"/>
        </g>
        <g id="Ellipse_1256" data-name="Ellipse 1256" transform="translate(6457.633 1956.335)" fill="none" stroke="#e45c2c" stroke-miterlimit="10" stroke-width="1">
          <circle cx="2.571" cy="2.571" r="2.571" stroke="none"/>
          <circle cx="2.571" cy="2.571" r="2.071" fill="none"/>
        </g>
        <g id="Ellipse_1257" data-name="Ellipse 1257" transform="translate(6474.776 1956.335)" fill="none" stroke="#e45c2c" stroke-miterlimit="10" stroke-width="1">
          <circle cx="2.571" cy="2.571" r="2.571" stroke="none"/>
          <circle cx="2.571" cy="2.571" r="2.071" fill="none"/>
        </g>
        <g id="Ellipse_1258" data-name="Ellipse 1258" transform="translate(6491.919 1956.335)" fill="none" stroke="#e45c2c" stroke-miterlimit="10" stroke-width="1">
          <circle cx="2.571" cy="2.571" r="2.571" stroke="none"/>
          <circle cx="2.571" cy="2.571" r="2.071" fill="none"/>
        </g>
        <g id="Ellipse_1259" data-name="Ellipse 1259" transform="translate(6509.062 1956.335)" fill="none" stroke="#e45c2c" stroke-miterlimit="10" stroke-width="1">
          <circle cx="2.571" cy="2.571" r="2.571" stroke="none"/>
          <circle cx="2.571" cy="2.571" r="2.071" fill="none"/>
        </g>
        <g id="Ellipse_1260" data-name="Ellipse 1260" transform="translate(6320.49 1973.478)" fill="none" stroke="#e45c2c" stroke-miterlimit="10" stroke-width="1">
          <circle cx="2.571" cy="2.571" r="2.571" stroke="none"/>
          <circle cx="2.571" cy="2.571" r="2.071" fill="none"/>
        </g>
        <g id="Ellipse_1261" data-name="Ellipse 1261" transform="translate(6337.633 1973.478)" fill="none" stroke="#e45c2c" stroke-miterlimit="10" stroke-width="1">
          <circle cx="2.571" cy="2.571" r="2.571" stroke="none"/>
          <circle cx="2.571" cy="2.571" r="2.071" fill="none"/>
        </g>
        <g id="Ellipse_1262" data-name="Ellipse 1262" transform="translate(6354.776 1973.478)" fill="none" stroke="#e45c2c" stroke-miterlimit="10" stroke-width="1">
          <circle cx="2.571" cy="2.571" r="2.571" stroke="none"/>
          <circle cx="2.571" cy="2.571" r="2.071" fill="none"/>
        </g>
        <g id="Ellipse_1263" data-name="Ellipse 1263" transform="translate(6371.919 1973.478)" fill="none" stroke="#e45c2c" stroke-miterlimit="10" stroke-width="1">
          <circle cx="2.571" cy="2.571" r="2.571" stroke="none"/>
          <circle cx="2.571" cy="2.571" r="2.071" fill="none"/>
        </g>
        <g id="Ellipse_1264" data-name="Ellipse 1264" transform="translate(6389.062 1973.478)" fill="none" stroke="#e45c2c" stroke-miterlimit="10" stroke-width="1">
          <circle cx="2.571" cy="2.571" r="2.571" stroke="none"/>
          <circle cx="2.571" cy="2.571" r="2.071" fill="none"/>
        </g>
        <g id="Ellipse_1265" data-name="Ellipse 1265" transform="translate(6406.205 1973.478)" fill="none" stroke="#e45c2c" stroke-miterlimit="10" stroke-width="1">
          <circle cx="2.571" cy="2.571" r="2.571" stroke="none"/>
          <circle cx="2.571" cy="2.571" r="2.071" fill="none"/>
        </g>
        <g id="Ellipse_1266" data-name="Ellipse 1266" transform="translate(6423.348 1973.478)" fill="none" stroke="#e45c2c" stroke-miterlimit="10" stroke-width="1">
          <circle cx="2.571" cy="2.571" r="2.571" stroke="none"/>
          <circle cx="2.571" cy="2.571" r="2.071" fill="none"/>
        </g>
        <g id="Ellipse_1267" data-name="Ellipse 1267" transform="translate(6440.49 1973.478)" fill="none" stroke="#e45c2c" stroke-miterlimit="10" stroke-width="1">
          <circle cx="2.571" cy="2.571" r="2.571" stroke="none"/>
          <circle cx="2.571" cy="2.571" r="2.071" fill="none"/>
        </g>
        <g id="Ellipse_1268" data-name="Ellipse 1268" transform="translate(6457.633 1973.478)" fill="none" stroke="#e45c2c" stroke-miterlimit="10" stroke-width="1">
          <circle cx="2.571" cy="2.571" r="2.571" stroke="none"/>
          <circle cx="2.571" cy="2.571" r="2.071" fill="none"/>
        </g>
        <g id="Ellipse_1269" data-name="Ellipse 1269" transform="translate(6474.776 1973.478)" fill="none" stroke="#e45c2c" stroke-miterlimit="10" stroke-width="1">
          <circle cx="2.571" cy="2.571" r="2.571" stroke="none"/>
          <circle cx="2.571" cy="2.571" r="2.071" fill="none"/>
        </g>
        <g id="Ellipse_1270" data-name="Ellipse 1270" transform="translate(6491.919 1973.478)" fill="none" stroke="#e45c2c" stroke-miterlimit="10" stroke-width="1">
          <circle cx="2.571" cy="2.571" r="2.571" stroke="none"/>
          <circle cx="2.571" cy="2.571" r="2.071" fill="none"/>
        </g>
        <g id="Ellipse_1271" data-name="Ellipse 1271" transform="translate(6509.062 1973.478)" fill="none" stroke="#e45c2c" stroke-miterlimit="10" stroke-width="1">
          <circle cx="2.571" cy="2.571" r="2.571" stroke="none"/>
          <circle cx="2.571" cy="2.571" r="2.071" fill="none"/>
        </g>
        <g id="Ellipse_1272" data-name="Ellipse 1272" transform="translate(6320.49 1990.62)" fill="none" stroke="#e45c2c" stroke-miterlimit="10" stroke-width="1">
          <circle cx="2.571" cy="2.571" r="2.571" stroke="none"/>
          <circle cx="2.571" cy="2.571" r="2.071" fill="none"/>
        </g>
        <g id="Ellipse_1273" data-name="Ellipse 1273" transform="translate(6337.633 1990.62)" fill="none" stroke="#e45c2c" stroke-miterlimit="10" stroke-width="1">
          <circle cx="2.571" cy="2.571" r="2.571" stroke="none"/>
          <circle cx="2.571" cy="2.571" r="2.071" fill="none"/>
        </g>
        <g id="Ellipse_1274" data-name="Ellipse 1274" transform="translate(6354.776 1990.62)" fill="none" stroke="#e45c2c" stroke-miterlimit="10" stroke-width="1">
          <circle cx="2.571" cy="2.571" r="2.571" stroke="none"/>
          <circle cx="2.571" cy="2.571" r="2.071" fill="none"/>
        </g>
        <g id="Ellipse_1275" data-name="Ellipse 1275" transform="translate(6371.919 1990.62)" fill="none" stroke="#e45c2c" stroke-miterlimit="10" stroke-width="1">
          <circle cx="2.571" cy="2.571" r="2.571" stroke="none"/>
          <circle cx="2.571" cy="2.571" r="2.071" fill="none"/>
        </g>
        <g id="Ellipse_1276" data-name="Ellipse 1276" transform="translate(6389.062 1990.62)" fill="none" stroke="#e45c2c" stroke-miterlimit="10" stroke-width="1">
          <circle cx="2.571" cy="2.571" r="2.571" stroke="none"/>
          <circle cx="2.571" cy="2.571" r="2.071" fill="none"/>
        </g>
        <g id="Ellipse_1277" data-name="Ellipse 1277" transform="translate(6406.205 1990.62)" fill="none" stroke="#e45c2c" stroke-miterlimit="10" stroke-width="1">
          <circle cx="2.571" cy="2.571" r="2.571" stroke="none"/>
          <circle cx="2.571" cy="2.571" r="2.071" fill="none"/>
        </g>
        <g id="Ellipse_1278" data-name="Ellipse 1278" transform="translate(6423.348 1990.62)" fill="none" stroke="#e45c2c" stroke-miterlimit="10" stroke-width="1">
          <circle cx="2.571" cy="2.571" r="2.571" stroke="none"/>
          <circle cx="2.571" cy="2.571" r="2.071" fill="none"/>
        </g>
        <g id="Ellipse_1279" data-name="Ellipse 1279" transform="translate(6440.49 1990.62)" fill="none" stroke="#e45c2c" stroke-miterlimit="10" stroke-width="1">
          <circle cx="2.571" cy="2.571" r="2.571" stroke="none"/>
          <circle cx="2.571" cy="2.571" r="2.071" fill="none"/>
        </g>
        <g id="Ellipse_1280" data-name="Ellipse 1280" transform="translate(6457.633 1990.62)" fill="none" stroke="#e45c2c" stroke-miterlimit="10" stroke-width="1">
          <circle cx="2.571" cy="2.571" r="2.571" stroke="none"/>
          <circle cx="2.571" cy="2.571" r="2.071" fill="none"/>
        </g>
        <g id="Ellipse_1281" data-name="Ellipse 1281" transform="translate(6474.776 1990.62)" fill="none" stroke="#e45c2c" stroke-miterlimit="10" stroke-width="1">
          <circle cx="2.571" cy="2.571" r="2.571" stroke="none"/>
          <circle cx="2.571" cy="2.571" r="2.071" fill="none"/>
        </g>
        <g id="Ellipse_1282" data-name="Ellipse 1282" transform="translate(6491.919 1990.62)" fill="none" stroke="#e45c2c" stroke-miterlimit="10" stroke-width="1">
          <circle cx="2.571" cy="2.571" r="2.571" stroke="none"/>
          <circle cx="2.571" cy="2.571" r="2.071" fill="none"/>
        </g>
        <g id="Ellipse_1283" data-name="Ellipse 1283" transform="translate(6509.062 1990.62)" fill="none" stroke="#e45c2c" stroke-miterlimit="10" stroke-width="1">
          <circle cx="2.571" cy="2.571" r="2.571" stroke="none"/>
          <circle cx="2.571" cy="2.571" r="2.071" fill="none"/>
        </g>
        <g id="Ellipse_1284" data-name="Ellipse 1284" transform="translate(6320.49 2007.763)" fill="none" stroke="#e45c2c" stroke-miterlimit="10" stroke-width="1">
          <circle cx="2.571" cy="2.571" r="2.571" stroke="none"/>
          <circle cx="2.571" cy="2.571" r="2.071" fill="none"/>
        </g>
        <g id="Ellipse_1285" data-name="Ellipse 1285" transform="translate(6337.633 2007.763)" fill="none" stroke="#e45c2c" stroke-miterlimit="10" stroke-width="1">
          <circle cx="2.571" cy="2.571" r="2.571" stroke="none"/>
          <circle cx="2.571" cy="2.571" r="2.071" fill="none"/>
        </g>
        <g id="Ellipse_1286" data-name="Ellipse 1286" transform="translate(6354.776 2007.763)" fill="none" stroke="#e45c2c" stroke-miterlimit="10" stroke-width="1">
          <circle cx="2.571" cy="2.571" r="2.571" stroke="none"/>
          <circle cx="2.571" cy="2.571" r="2.071" fill="none"/>
        </g>
        <g id="Ellipse_1287" data-name="Ellipse 1287" transform="translate(6371.919 2007.763)" fill="none" stroke="#e45c2c" stroke-miterlimit="10" stroke-width="1">
          <circle cx="2.571" cy="2.571" r="2.571" stroke="none"/>
          <circle cx="2.571" cy="2.571" r="2.071" fill="none"/>
        </g>
        <g id="Ellipse_1288" data-name="Ellipse 1288" transform="translate(6389.062 2007.763)" fill="none" stroke="#e45c2c" stroke-miterlimit="10" stroke-width="1">
          <circle cx="2.571" cy="2.571" r="2.571" stroke="none"/>
          <circle cx="2.571" cy="2.571" r="2.071" fill="none"/>
        </g>
        <g id="Ellipse_1289" data-name="Ellipse 1289" transform="translate(6406.205 2007.763)" fill="none" stroke="#e45c2c" stroke-miterlimit="10" stroke-width="1">
          <circle cx="2.571" cy="2.571" r="2.571" stroke="none"/>
          <circle cx="2.571" cy="2.571" r="2.071" fill="none"/>
        </g>
        <g id="Ellipse_1290" data-name="Ellipse 1290" transform="translate(6423.348 2007.763)" fill="none" stroke="#e45c2c" stroke-miterlimit="10" stroke-width="1">
          <circle cx="2.571" cy="2.571" r="2.571" stroke="none"/>
          <circle cx="2.571" cy="2.571" r="2.071" fill="none"/>
        </g>
        <g id="Ellipse_1291" data-name="Ellipse 1291" transform="translate(6440.49 2007.763)" fill="none" stroke="#e45c2c" stroke-miterlimit="10" stroke-width="1">
          <circle cx="2.571" cy="2.571" r="2.571" stroke="none"/>
          <circle cx="2.571" cy="2.571" r="2.071" fill="none"/>
        </g>
        <g id="Ellipse_1292" data-name="Ellipse 1292" transform="translate(6457.633 2007.763)" fill="none" stroke="#e45c2c" stroke-miterlimit="10" stroke-width="1">
          <circle cx="2.571" cy="2.571" r="2.571" stroke="none"/>
          <circle cx="2.571" cy="2.571" r="2.071" fill="none"/>
        </g>
        <g id="Ellipse_1293" data-name="Ellipse 1293" transform="translate(6474.776 2007.763)" fill="none" stroke="#e45c2c" stroke-miterlimit="10" stroke-width="1">
          <circle cx="2.571" cy="2.571" r="2.571" stroke="none"/>
          <circle cx="2.571" cy="2.571" r="2.071" fill="none"/>
        </g>
        <g id="Ellipse_1294" data-name="Ellipse 1294" transform="translate(6491.919 2007.763)" fill="none" stroke="#e45c2c" stroke-miterlimit="10" stroke-width="1">
          <circle cx="2.571" cy="2.571" r="2.571" stroke="none"/>
          <circle cx="2.571" cy="2.571" r="2.071" fill="none"/>
        </g>
        <g id="Ellipse_1295" data-name="Ellipse 1295" transform="translate(6509.062 2007.763)" fill="none" stroke="#e45c2c" stroke-miterlimit="10" stroke-width="1">
          <circle cx="2.571" cy="2.571" r="2.571" stroke="none"/>
          <circle cx="2.571" cy="2.571" r="2.071" fill="none"/>
        </g>
        <g id="Ellipse_1296" data-name="Ellipse 1296" transform="translate(6320.49 2024.906)" fill="none" stroke="#e45c2c" stroke-miterlimit="10" stroke-width="1">
          <circle cx="2.571" cy="2.571" r="2.571" stroke="none"/>
          <circle cx="2.571" cy="2.571" r="2.071" fill="none"/>
        </g>
        <g id="Ellipse_1297" data-name="Ellipse 1297" transform="translate(6337.633 2024.906)" fill="none" stroke="#e45c2c" stroke-miterlimit="10" stroke-width="1">
          <circle cx="2.571" cy="2.571" r="2.571" stroke="none"/>
          <circle cx="2.571" cy="2.571" r="2.071" fill="none"/>
        </g>
        <g id="Ellipse_1298" data-name="Ellipse 1298" transform="translate(6354.776 2024.906)" fill="none" stroke="#e45c2c" stroke-miterlimit="10" stroke-width="1">
          <circle cx="2.571" cy="2.571" r="2.571" stroke="none"/>
          <circle cx="2.571" cy="2.571" r="2.071" fill="none"/>
        </g>
        <g id="Ellipse_1299" data-name="Ellipse 1299" transform="translate(6371.919 2024.906)" fill="none" stroke="#e45c2c" stroke-miterlimit="10" stroke-width="1">
          <circle cx="2.571" cy="2.571" r="2.571" stroke="none"/>
          <circle cx="2.571" cy="2.571" r="2.071" fill="none"/>
        </g>
        <g id="Ellipse_1300" data-name="Ellipse 1300" transform="translate(6389.062 2024.906)" fill="none" stroke="#e45c2c" stroke-miterlimit="10" stroke-width="1">
          <circle cx="2.571" cy="2.571" r="2.571" stroke="none"/>
          <circle cx="2.571" cy="2.571" r="2.071" fill="none"/>
        </g>
        <g id="Ellipse_1301" data-name="Ellipse 1301" transform="translate(6406.205 2024.906)" fill="none" stroke="#e45c2c" stroke-miterlimit="10" stroke-width="1">
          <circle cx="2.571" cy="2.571" r="2.571" stroke="none"/>
          <circle cx="2.571" cy="2.571" r="2.071" fill="none"/>
        </g>
        <g id="Ellipse_1302" data-name="Ellipse 1302" transform="translate(6423.348 2024.906)" fill="none" stroke="#e45c2c" stroke-miterlimit="10" stroke-width="1">
          <circle cx="2.571" cy="2.571" r="2.571" stroke="none"/>
          <circle cx="2.571" cy="2.571" r="2.071" fill="none"/>
        </g>
        <g id="Ellipse_1303" data-name="Ellipse 1303" transform="translate(6440.49 2024.906)" fill="none" stroke="#e45c2c" stroke-miterlimit="10" stroke-width="1">
          <circle cx="2.571" cy="2.571" r="2.571" stroke="none"/>
          <circle cx="2.571" cy="2.571" r="2.071" fill="none"/>
        </g>
        <g id="Ellipse_1304" data-name="Ellipse 1304" transform="translate(6457.633 2024.906)" fill="none" stroke="#e45c2c" stroke-miterlimit="10" stroke-width="1">
          <circle cx="2.571" cy="2.571" r="2.571" stroke="none"/>
          <circle cx="2.571" cy="2.571" r="2.071" fill="none"/>
        </g>
        <g id="Ellipse_1305" data-name="Ellipse 1305" transform="translate(6474.776 2024.906)" fill="none" stroke="#e45c2c" stroke-miterlimit="10" stroke-width="1">
          <circle cx="2.571" cy="2.571" r="2.571" stroke="none"/>
          <circle cx="2.571" cy="2.571" r="2.071" fill="none"/>
        </g>
        <g id="Ellipse_1306" data-name="Ellipse 1306" transform="translate(6491.919 2024.906)" fill="none" stroke="#e45c2c" stroke-miterlimit="10" stroke-width="1">
          <circle cx="2.571" cy="2.571" r="2.571" stroke="none"/>
          <circle cx="2.571" cy="2.571" r="2.071" fill="none"/>
        </g>
        <g id="Ellipse_1307" data-name="Ellipse 1307" transform="translate(6509.062 2024.906)" fill="none" stroke="#e45c2c" stroke-miterlimit="10" stroke-width="1">
          <circle cx="2.571" cy="2.571" r="2.571" stroke="none"/>
          <circle cx="2.571" cy="2.571" r="2.071" fill="none"/>
        </g>
        <g id="Ellipse_1308" data-name="Ellipse 1308" transform="translate(6320.49 2042.049)" fill="none" stroke="#e45c2c" stroke-miterlimit="10" stroke-width="1">
          <circle cx="2.571" cy="2.571" r="2.571" stroke="none"/>
          <circle cx="2.571" cy="2.571" r="2.071" fill="none"/>
        </g>
        <g id="Ellipse_1309" data-name="Ellipse 1309" transform="translate(6337.633 2042.049)" fill="none" stroke="#e45c2c" stroke-miterlimit="10" stroke-width="1">
          <circle cx="2.571" cy="2.571" r="2.571" stroke="none"/>
          <circle cx="2.571" cy="2.571" r="2.071" fill="none"/>
        </g>
        <g id="Ellipse_1310" data-name="Ellipse 1310" transform="translate(6354.776 2042.049)" fill="none" stroke="#e45c2c" stroke-miterlimit="10" stroke-width="1">
          <circle cx="2.571" cy="2.571" r="2.571" stroke="none"/>
          <circle cx="2.571" cy="2.571" r="2.071" fill="none"/>
        </g>
        <g id="Ellipse_1311" data-name="Ellipse 1311" transform="translate(6371.919 2042.049)" fill="none" stroke="#e45c2c" stroke-miterlimit="10" stroke-width="1">
          <circle cx="2.571" cy="2.571" r="2.571" stroke="none"/>
          <circle cx="2.571" cy="2.571" r="2.071" fill="none"/>
        </g>
        <g id="Ellipse_1312" data-name="Ellipse 1312" transform="translate(6389.062 2042.049)" fill="none" stroke="#e45c2c" stroke-miterlimit="10" stroke-width="1">
          <circle cx="2.571" cy="2.571" r="2.571" stroke="none"/>
          <circle cx="2.571" cy="2.571" r="2.071" fill="none"/>
        </g>
        <g id="Ellipse_1313" data-name="Ellipse 1313" transform="translate(6406.205 2042.049)" fill="none" stroke="#e45c2c" stroke-miterlimit="10" stroke-width="1">
          <circle cx="2.571" cy="2.571" r="2.571" stroke="none"/>
          <circle cx="2.571" cy="2.571" r="2.071" fill="none"/>
        </g>
        <g id="Ellipse_1314" data-name="Ellipse 1314" transform="translate(6423.348 2042.049)" fill="none" stroke="#e45c2c" stroke-miterlimit="10" stroke-width="1">
          <circle cx="2.571" cy="2.571" r="2.571" stroke="none"/>
          <circle cx="2.571" cy="2.571" r="2.071" fill="none"/>
        </g>
        <g id="Ellipse_1315" data-name="Ellipse 1315" transform="translate(6440.49 2042.049)" fill="none" stroke="#e45c2c" stroke-miterlimit="10" stroke-width="1">
          <circle cx="2.571" cy="2.571" r="2.571" stroke="none"/>
          <circle cx="2.571" cy="2.571" r="2.071" fill="none"/>
        </g>
        <g id="Ellipse_1316" data-name="Ellipse 1316" transform="translate(6457.633 2042.049)" fill="none" stroke="#e45c2c" stroke-miterlimit="10" stroke-width="1">
          <circle cx="2.571" cy="2.571" r="2.571" stroke="none"/>
          <circle cx="2.571" cy="2.571" r="2.071" fill="none"/>
        </g>
        <g id="Ellipse_1317" data-name="Ellipse 1317" transform="translate(6474.776 2042.049)" fill="none" stroke="#e45c2c" stroke-miterlimit="10" stroke-width="1">
          <circle cx="2.571" cy="2.571" r="2.571" stroke="none"/>
          <circle cx="2.571" cy="2.571" r="2.071" fill="none"/>
        </g>
        <g id="Ellipse_1318" data-name="Ellipse 1318" transform="translate(6491.919 2042.049)" fill="none" stroke="#e45c2c" stroke-miterlimit="10" stroke-width="1">
          <circle cx="2.571" cy="2.571" r="2.571" stroke="none"/>
          <circle cx="2.571" cy="2.571" r="2.071" fill="none"/>
        </g>
        <g id="Ellipse_1319" data-name="Ellipse 1319" transform="translate(6509.062 2042.049)" fill="none" stroke="#e45c2c" stroke-miterlimit="10" stroke-width="1">
          <circle cx="2.571" cy="2.571" r="2.571" stroke="none"/>
          <circle cx="2.571" cy="2.571" r="2.071" fill="none"/>
        </g>
        <g id="Ellipse_1320" data-name="Ellipse 1320" transform="translate(6320.49 2059.192)" fill="none" stroke="#e45c2c" stroke-miterlimit="10" stroke-width="1">
          <circle cx="2.571" cy="2.571" r="2.571" stroke="none"/>
          <circle cx="2.571" cy="2.571" r="2.071" fill="none"/>
        </g>
        <g id="Ellipse_1321" data-name="Ellipse 1321" transform="translate(6337.633 2059.192)" fill="none" stroke="#e45c2c" stroke-miterlimit="10" stroke-width="1">
          <circle cx="2.571" cy="2.571" r="2.571" stroke="none"/>
          <circle cx="2.571" cy="2.571" r="2.071" fill="none"/>
        </g>
        <g id="Ellipse_1322" data-name="Ellipse 1322" transform="translate(6354.776 2059.192)" fill="none" stroke="#e45c2c" stroke-miterlimit="10" stroke-width="1">
          <circle cx="2.571" cy="2.571" r="2.571" stroke="none"/>
          <circle cx="2.571" cy="2.571" r="2.071" fill="none"/>
        </g>
        <g id="Ellipse_1323" data-name="Ellipse 1323" transform="translate(6371.919 2059.192)" fill="none" stroke="#e45c2c" stroke-miterlimit="10" stroke-width="1">
          <circle cx="2.571" cy="2.571" r="2.571" stroke="none"/>
          <circle cx="2.571" cy="2.571" r="2.071" fill="none"/>
        </g>
        <g id="Ellipse_1324" data-name="Ellipse 1324" transform="translate(6389.062 2059.192)" fill="none" stroke="#e45c2c" stroke-miterlimit="10" stroke-width="1">
          <circle cx="2.571" cy="2.571" r="2.571" stroke="none"/>
          <circle cx="2.571" cy="2.571" r="2.071" fill="none"/>
        </g>
        <g id="Ellipse_1325" data-name="Ellipse 1325" transform="translate(6406.205 2059.192)" fill="none" stroke="#e45c2c" stroke-miterlimit="10" stroke-width="1">
          <circle cx="2.571" cy="2.571" r="2.571" stroke="none"/>
          <circle cx="2.571" cy="2.571" r="2.071" fill="none"/>
        </g>
        <g id="Ellipse_1326" data-name="Ellipse 1326" transform="translate(6423.348 2059.192)" fill="none" stroke="#e45c2c" stroke-miterlimit="10" stroke-width="1">
          <circle cx="2.571" cy="2.571" r="2.571" stroke="none"/>
          <circle cx="2.571" cy="2.571" r="2.071" fill="none"/>
        </g>
        <g id="Ellipse_1327" data-name="Ellipse 1327" transform="translate(6440.49 2059.192)" fill="none" stroke="#e45c2c" stroke-miterlimit="10" stroke-width="1">
          <circle cx="2.571" cy="2.571" r="2.571" stroke="none"/>
          <circle cx="2.571" cy="2.571" r="2.071" fill="none"/>
        </g>
        <g id="Ellipse_1328" data-name="Ellipse 1328" transform="translate(6457.633 2059.192)" fill="none" stroke="#e45c2c" stroke-miterlimit="10" stroke-width="1">
          <circle cx="2.571" cy="2.571" r="2.571" stroke="none"/>
          <circle cx="2.571" cy="2.571" r="2.071" fill="none"/>
        </g>
        <g id="Ellipse_1329" data-name="Ellipse 1329" transform="translate(6474.776 2059.192)" fill="none" stroke="#e45c2c" stroke-miterlimit="10" stroke-width="1">
          <circle cx="2.571" cy="2.571" r="2.571" stroke="none"/>
          <circle cx="2.571" cy="2.571" r="2.071" fill="none"/>
        </g>
        <g id="Ellipse_1330" data-name="Ellipse 1330" transform="translate(6491.919 2059.192)" fill="none" stroke="#e45c2c" stroke-miterlimit="10" stroke-width="1">
          <circle cx="2.571" cy="2.571" r="2.571" stroke="none"/>
          <circle cx="2.571" cy="2.571" r="2.071" fill="none"/>
        </g>
        <g id="Ellipse_1331" data-name="Ellipse 1331" transform="translate(6509.062 2059.192)" fill="none" stroke="#e45c2c" stroke-miterlimit="10" stroke-width="1">
          <circle cx="2.571" cy="2.571" r="2.571" stroke="none"/>
          <circle cx="2.571" cy="2.571" r="2.071" fill="none"/>
        </g>
        <g id="Ellipse_1332" data-name="Ellipse 1332" transform="translate(6320.49 2076.335)" fill="none" stroke="#e45c2c" stroke-miterlimit="10" stroke-width="1">
          <circle cx="2.571" cy="2.571" r="2.571" stroke="none"/>
          <circle cx="2.571" cy="2.571" r="2.071" fill="none"/>
        </g>
        <g id="Ellipse_1333" data-name="Ellipse 1333" transform="translate(6337.633 2076.335)" fill="none" stroke="#e45c2c" stroke-miterlimit="10" stroke-width="1">
          <circle cx="2.571" cy="2.571" r="2.571" stroke="none"/>
          <circle cx="2.571" cy="2.571" r="2.071" fill="none"/>
        </g>
        <g id="Ellipse_1334" data-name="Ellipse 1334" transform="translate(6354.776 2076.335)" fill="none" stroke="#e45c2c" stroke-miterlimit="10" stroke-width="1">
          <circle cx="2.571" cy="2.571" r="2.571" stroke="none"/>
          <circle cx="2.571" cy="2.571" r="2.071" fill="none"/>
        </g>
        <g id="Ellipse_1335" data-name="Ellipse 1335" transform="translate(6371.919 2076.335)" fill="none" stroke="#e45c2c" stroke-miterlimit="10" stroke-width="1">
          <circle cx="2.571" cy="2.571" r="2.571" stroke="none"/>
          <circle cx="2.571" cy="2.571" r="2.071" fill="none"/>
        </g>
        <g id="Ellipse_1336" data-name="Ellipse 1336" transform="translate(6389.062 2076.335)" fill="none" stroke="#e45c2c" stroke-miterlimit="10" stroke-width="1">
          <circle cx="2.571" cy="2.571" r="2.571" stroke="none"/>
          <circle cx="2.571" cy="2.571" r="2.071" fill="none"/>
        </g>
        <g id="Ellipse_1337" data-name="Ellipse 1337" transform="translate(6406.205 2076.335)" fill="none" stroke="#e45c2c" stroke-miterlimit="10" stroke-width="1">
          <circle cx="2.571" cy="2.571" r="2.571" stroke="none"/>
          <circle cx="2.571" cy="2.571" r="2.071" fill="none"/>
        </g>
        <g id="Ellipse_1338" data-name="Ellipse 1338" transform="translate(6423.348 2076.335)" fill="none" stroke="#e45c2c" stroke-miterlimit="10" stroke-width="1">
          <circle cx="2.571" cy="2.571" r="2.571" stroke="none"/>
          <circle cx="2.571" cy="2.571" r="2.071" fill="none"/>
        </g>
        <g id="Ellipse_1339" data-name="Ellipse 1339" transform="translate(6440.49 2076.335)" fill="none" stroke="#e45c2c" stroke-miterlimit="10" stroke-width="1">
          <circle cx="2.571" cy="2.571" r="2.571" stroke="none"/>
          <circle cx="2.571" cy="2.571" r="2.071" fill="none"/>
        </g>
        <g id="Ellipse_1340" data-name="Ellipse 1340" transform="translate(6457.633 2076.335)" fill="none" stroke="#e45c2c" stroke-miterlimit="10" stroke-width="1">
          <circle cx="2.571" cy="2.571" r="2.571" stroke="none"/>
          <circle cx="2.571" cy="2.571" r="2.071" fill="none"/>
        </g>
        <g id="Ellipse_1341" data-name="Ellipse 1341" transform="translate(6474.776 2076.335)" fill="none" stroke="#e45c2c" stroke-miterlimit="10" stroke-width="1">
          <circle cx="2.571" cy="2.571" r="2.571" stroke="none"/>
          <circle cx="2.571" cy="2.571" r="2.071" fill="none"/>
        </g>
        <g id="Ellipse_1342" data-name="Ellipse 1342" transform="translate(6491.919 2076.335)" fill="none" stroke="#e45c2c" stroke-miterlimit="10" stroke-width="1">
          <circle cx="2.571" cy="2.571" r="2.571" stroke="none"/>
          <circle cx="2.571" cy="2.571" r="2.071" fill="none"/>
        </g>
        <g id="Ellipse_1343" data-name="Ellipse 1343" transform="translate(6509.062 2076.335)" fill="none" stroke="#e45c2c" stroke-miterlimit="10" stroke-width="1">
          <circle cx="2.571" cy="2.571" r="2.571" stroke="none"/>
          <circle cx="2.571" cy="2.571" r="2.071" fill="none"/>
        </g>
        <g id="Ellipse_1344" data-name="Ellipse 1344" transform="translate(6320.49 2093.478)" fill="none" stroke="#e45c2c" stroke-miterlimit="10" stroke-width="1">
          <circle cx="2.571" cy="2.571" r="2.571" stroke="none"/>
          <circle cx="2.571" cy="2.571" r="2.071" fill="none"/>
        </g>
        <g id="Ellipse_1345" data-name="Ellipse 1345" transform="translate(6337.633 2093.478)" fill="none" stroke="#e45c2c" stroke-miterlimit="10" stroke-width="1">
          <circle cx="2.571" cy="2.571" r="2.571" stroke="none"/>
          <circle cx="2.571" cy="2.571" r="2.071" fill="none"/>
        </g>
        <g id="Ellipse_1346" data-name="Ellipse 1346" transform="translate(6354.776 2093.478)" fill="none" stroke="#e45c2c" stroke-miterlimit="10" stroke-width="1">
          <circle cx="2.571" cy="2.571" r="2.571" stroke="none"/>
          <circle cx="2.571" cy="2.571" r="2.071" fill="none"/>
        </g>
        <g id="Ellipse_1347" data-name="Ellipse 1347" transform="translate(6371.919 2093.478)" fill="none" stroke="#e45c2c" stroke-miterlimit="10" stroke-width="1">
          <circle cx="2.571" cy="2.571" r="2.571" stroke="none"/>
          <circle cx="2.571" cy="2.571" r="2.071" fill="none"/>
        </g>
        <g id="Ellipse_1348" data-name="Ellipse 1348" transform="translate(6389.062 2093.478)" fill="none" stroke="#e45c2c" stroke-miterlimit="10" stroke-width="1">
          <circle cx="2.571" cy="2.571" r="2.571" stroke="none"/>
          <circle cx="2.571" cy="2.571" r="2.071" fill="none"/>
        </g>
        <g id="Ellipse_1349" data-name="Ellipse 1349" transform="translate(6406.205 2093.478)" fill="none" stroke="#e45c2c" stroke-miterlimit="10" stroke-width="1">
          <circle cx="2.571" cy="2.571" r="2.571" stroke="none"/>
          <circle cx="2.571" cy="2.571" r="2.071" fill="none"/>
        </g>
        <g id="Ellipse_1350" data-name="Ellipse 1350" transform="translate(6423.348 2093.478)" fill="none" stroke="#e45c2c" stroke-miterlimit="10" stroke-width="1">
          <circle cx="2.571" cy="2.571" r="2.571" stroke="none"/>
          <circle cx="2.571" cy="2.571" r="2.071" fill="none"/>
        </g>
        <g id="Ellipse_1351" data-name="Ellipse 1351" transform="translate(6440.49 2093.478)" fill="none" stroke="#e45c2c" stroke-miterlimit="10" stroke-width="1">
          <circle cx="2.571" cy="2.571" r="2.571" stroke="none"/>
          <circle cx="2.571" cy="2.571" r="2.071" fill="none"/>
        </g>
        <g id="Ellipse_1352" data-name="Ellipse 1352" transform="translate(6457.633 2093.478)" fill="none" stroke="#e45c2c" stroke-miterlimit="10" stroke-width="1">
          <circle cx="2.571" cy="2.571" r="2.571" stroke="none"/>
          <circle cx="2.571" cy="2.571" r="2.071" fill="none"/>
        </g>
        <g id="Ellipse_1353" data-name="Ellipse 1353" transform="translate(6474.776 2093.478)" fill="none" stroke="#e45c2c" stroke-miterlimit="10" stroke-width="1">
          <circle cx="2.571" cy="2.571" r="2.571" stroke="none"/>
          <circle cx="2.571" cy="2.571" r="2.071" fill="none"/>
        </g>
        <g id="Ellipse_1354" data-name="Ellipse 1354" transform="translate(6491.919 2093.478)" fill="none" stroke="#e45c2c" stroke-miterlimit="10" stroke-width="1">
          <circle cx="2.571" cy="2.571" r="2.571" stroke="none"/>
          <circle cx="2.571" cy="2.571" r="2.071" fill="none"/>
        </g>
        <g id="Ellipse_1355" data-name="Ellipse 1355" transform="translate(6509.062 2093.478)" fill="none" stroke="#e45c2c" stroke-miterlimit="10" stroke-width="1">
          <circle cx="2.571" cy="2.571" r="2.571" stroke="none"/>
          <circle cx="2.571" cy="2.571" r="2.071" fill="none"/>
        </g>
      </g>
    </g>
  </g>
</svg>
