<?xml version="1.0" encoding="utf-8"?>
<!-- Generator: Adobe Illustrator 23.0.4, SVG Export Plug-In . SVG Version: 6.00 Build 0)  -->
<svg version="1.1" xmlns="http://www.w3.org/2000/svg" xmlns:xlink="http://www.w3.org/1999/xlink" x="0px" y="0px"
	 viewBox="0 0 800 600" style="enable-background:new 0 0 800 600;" xml:space="preserve">
<style type="text/css">
	.st0{fill:#F3F3F3;}
	.st1{opacity:0.12;fill:#7C8A9F;}
	.st2{fill:#E45C2C;}
	.st3{fill:#B1BFD5;}
	.st4{fill:#DBE1E4;}
	.st5{opacity:0.5;clip-path:url(#SVGID_1_);}
	.st6{opacity:0.5;}
	.st7{clip-path:url(#SVGID_2_);}
	.st8{fill:#FFFFFF;}
	.st9{fill:none;stroke:#1D2023;stroke-width:2.1026;stroke-linecap:round;stroke-linejoin:round;stroke-miterlimit:10;}
	.st10{fill:#2BA4E4;}
	.st11{fill:#242424;}
	.st12{clip-path:url(#SVGID_3_);}
	.st13{fill:#FFDBDB;}
	.st14{fill:none;stroke:#FFFFFF;stroke-width:2.1026;stroke-linecap:round;stroke-linejoin:round;stroke-miterlimit:10;}
	.st15{fill:none;stroke:#1D2023;stroke-width:2.085;stroke-linecap:round;stroke-linejoin:round;stroke-miterlimit:10;}
	.st16{fill:none;stroke:#B1BFD5;stroke-width:3;stroke-linecap:round;stroke-linejoin:round;stroke-miterlimit:10;}
</style>
<g id="Background">
	<rect class="st0" width="800" height="600"/>
</g>
<g id="Layer_61">
	<ellipse class="st1" cx="400" cy="573.96" rx="382" ry="11.46"/>
</g>
<g id="Layer_60">
	<circle class="st2" cx="720.65" cy="550.16" r="24.48"/>
</g>
<g id="Layer_59">
	<polygon class="st3" points="232.35,573.62 274.36,573.62 253.36,541.46 	"/>
</g>
<g id="poster">
	<g>
		<polygon class="st4" points="523.29,74.58 548.31,433.89 214.47,457.13 198.56,228.64 322.13,88.59 		"/>
		<g>
			<defs>
				<polygon id="SVGID_26_" points="523.29,74.58 548.31,433.89 214.47,457.13 198.56,228.64 322.13,88.59 				"/>
			</defs>
			<clipPath id="SVGID_1_">
				<use xlink:href="#SVGID_26_"  style="overflow:visible;"/>
			</clipPath>
			<g class="st5">
				<defs>

						<rect id="SVGID_27_" x="-25.14" y="21.36" transform="matrix(-0.0643 -0.9979 0.9979 -0.0643 193.6078 573.4001)" class="st6" width="781.52" height="349.15"/>
				</defs>
				<clipPath id="SVGID_2_">
					<use xlink:href="#SVGID_27_"  style="overflow:visible;"/>
				</clipPath>
				<g class="st7">
					<g>
						<g>
							<g>
								<g>
									<path class="st8" d="M850.22,590.19c-19.48,1.26-29.6-1.89-39.4-4.94c-9.58-2.98-18.64-5.8-36.78-4.63
										c-18.14,1.18-26.75,5.14-35.87,9.34c-9.32,4.29-18.95,8.72-38.43,9.98c-19.48,1.26-29.6-1.89-39.39-4.94
										c-9.58-2.98-18.64-5.8-36.78-4.63c-18.14,1.18-26.75,5.14-35.87,9.34c-9.32,4.29-18.95,8.72-38.43,9.98
										c-19.48,1.26-29.6-1.89-39.39-4.94c-9.58-2.98-18.64-5.8-36.77-4.63c-18.14,1.18-26.75,5.14-35.87,9.34
										c-9.32,4.29-18.95,8.72-38.43,9.98c-19.48,1.26-29.6-1.89-39.39-4.94c-9.58-2.98-18.64-5.8-36.77-4.63
										c-18.14,1.18-26.75,5.14-35.87,9.34c-9.32,4.29-18.95,8.72-38.42,9.98c-19.48,1.26-29.6-1.89-39.39-4.94
										c-9.58-2.98-18.64-5.8-36.77-4.63c-18.14,1.18-26.75,5.14-35.87,9.34c-9.32,4.29-18.95,8.72-38.43,9.98
										c-19.48,1.26-29.6-1.89-39.39-4.94c-9.58-2.98-18.64-5.8-36.77-4.63l-0.47-7.22c19.48-1.26,29.6,1.89,39.39,4.94
										c9.58,2.98,18.64,5.8,36.77,4.63s26.75-5.14,35.87-9.34c9.32-4.29,18.95-8.72,38.42-9.98c19.48-1.26,29.6,1.89,39.39,4.94
										c9.58,2.98,18.64,5.8,36.77,4.63c18.14-1.18,26.75-5.14,35.87-9.34c9.32-4.29,18.95-8.72,38.42-9.98
										c19.48-1.26,29.6,1.89,39.39,4.94c9.58,2.98,18.64,5.8,36.77,4.63c18.14-1.18,26.75-5.14,35.87-9.34
										c9.32-4.29,18.95-8.72,38.42-9.98c19.48-1.26,29.6,1.89,39.39,4.94c9.58,2.98,18.64,5.8,36.77,4.63
										c18.14-1.18,26.75-5.14,35.87-9.34c9.32-4.29,18.95-8.72,38.43-9.98c19.48-1.26,29.6,1.89,39.39,4.94
										c9.58,2.98,18.64,5.8,36.77,4.63c18.14-1.18,26.75-5.14,35.87-9.34c9.32-4.29,18.95-8.72,38.43-9.98
										c19.48-1.26,29.6,1.89,39.4,4.94c9.58,2.98,18.64,5.8,36.78,4.63L850.22,590.19z"/>
								</g>
							</g>
							<g>
								<g>
									<path class="st8" d="M847.87,554.08c-19.48,1.26-29.6-1.89-39.4-4.94c-9.58-2.98-18.64-5.8-36.78-4.63
										c-18.14,1.18-26.75,5.14-35.87,9.34c-9.32,4.29-18.95,8.72-38.43,9.98c-19.48,1.26-29.6-1.89-39.39-4.94
										c-9.58-2.98-18.64-5.8-36.78-4.63c-18.14,1.18-26.75,5.14-35.87,9.34c-9.32,4.29-18.95,8.72-38.43,9.98
										c-19.48,1.26-29.6-1.89-39.39-4.94c-9.58-2.98-18.64-5.8-36.77-4.63c-18.14,1.18-26.75,5.14-35.87,9.34
										c-9.32,4.29-18.95,8.72-38.43,9.98c-19.48,1.26-29.6-1.89-39.39-4.94c-9.58-2.98-18.64-5.8-36.77-4.63
										c-18.14,1.18-26.75,5.14-35.87,9.34c-9.32,4.29-18.95,8.72-38.42,9.98c-19.48,1.26-29.6-1.89-39.39-4.94
										c-9.58-2.98-18.64-5.8-36.77-4.63c-18.14,1.18-26.75,5.14-35.87,9.34c-9.32,4.29-18.95,8.72-38.43,9.98
										c-19.48,1.26-29.6-1.89-39.39-4.94c-9.58-2.98-18.64-5.8-36.77-4.63l-0.47-7.22c19.48-1.26,29.6,1.89,39.39,4.94
										c9.58,2.98,18.64,5.8,36.77,4.63s26.75-5.14,35.87-9.34c9.32-4.29,18.95-8.72,38.42-9.98c19.48-1.26,29.6,1.89,39.39,4.94
										c9.58,2.98,18.64,5.8,36.77,4.63c18.14-1.18,26.75-5.14,35.87-9.34c9.32-4.29,18.95-8.72,38.42-9.98
										c19.48-1.26,29.6,1.89,39.39,4.94c9.58,2.98,18.64,5.8,36.77,4.63c18.14-1.18,26.75-5.14,35.87-9.34
										c9.32-4.29,18.95-8.72,38.43-9.98c19.48-1.26,29.6,1.89,39.39,4.94c9.58,2.98,18.64,5.8,36.77,4.63
										c18.14-1.18,26.75-5.14,35.87-9.34c9.32-4.29,18.95-8.72,38.42-9.98c19.48-1.26,29.6,1.89,39.39,4.94
										c9.58,2.98,18.64,5.8,36.77,4.63c18.14-1.18,26.75-5.14,35.87-9.34c9.32-4.29,18.95-8.72,38.43-9.98
										c19.48-1.26,29.6,1.89,39.4,4.94c9.58,2.98,18.64,5.8,36.78,4.63L847.87,554.08z"/>
								</g>
							</g>
							<g>
								<g>
									<path class="st8" d="M845.53,517.97c-19.48,1.26-29.6-1.89-39.4-4.94c-9.58-2.98-18.64-5.8-36.78-4.63
										s-26.75,5.14-35.87,9.34c-9.32,4.29-18.95,8.72-38.43,9.98c-19.48,1.26-29.6-1.89-39.39-4.94
										c-9.58-2.98-18.64-5.8-36.78-4.63c-18.14,1.18-26.75,5.14-35.87,9.34c-9.32,4.29-18.95,8.72-38.43,9.98
										c-19.48,1.26-29.6-1.89-39.39-4.94c-9.58-2.98-18.64-5.8-36.77-4.63c-18.14,1.18-26.75,5.14-35.87,9.34
										c-9.32,4.29-18.95,8.72-38.43,9.98c-19.48,1.26-29.6-1.89-39.39-4.94c-9.58-2.98-18.64-5.8-36.77-4.63
										c-18.14,1.18-26.75,5.14-35.87,9.34c-9.32,4.29-18.95,8.72-38.42,9.98c-19.48,1.26-29.6-1.89-39.39-4.94
										c-9.58-2.98-18.64-5.8-36.77-4.63c-18.14,1.18-26.75,5.14-35.87,9.34c-9.32,4.29-18.95,8.72-38.43,9.98
										s-29.6-1.89-39.39-4.94c-9.58-2.98-18.64-5.8-36.77-4.63l-0.47-7.22c19.48-1.26,29.6,1.89,39.39,4.94
										c9.58,2.98,18.64,5.8,36.77,4.63s26.75-5.14,35.87-9.34c9.32-4.29,18.95-8.72,38.42-9.98c19.48-1.26,29.6,1.89,39.39,4.94
										c9.58,2.98,18.64,5.8,36.77,4.63c18.14-1.18,26.75-5.14,35.87-9.34c9.32-4.29,18.95-8.72,38.42-9.98
										c19.48-1.26,29.6,1.89,39.39,4.94c9.58,2.98,18.64,5.8,36.77,4.63c18.14-1.18,26.75-5.14,35.87-9.34
										c9.32-4.29,18.95-8.72,38.43-9.98c19.48-1.26,29.6,1.89,39.39,4.94c9.58,2.98,18.64,5.8,36.77,4.63
										c18.14-1.18,26.75-5.14,35.87-9.34c9.32-4.29,18.95-8.72,38.42-9.98c19.48-1.26,29.6,1.89,39.39,4.94
										c9.58,2.98,18.64,5.8,36.77,4.63c18.14-1.18,26.75-5.14,35.87-9.34c9.32-4.29,18.95-8.72,38.43-9.98
										c19.48-1.26,29.6,1.89,39.4,4.94c9.58,2.98,18.64,5.8,36.78,4.63L845.53,517.97z"/>
								</g>
							</g>
							<g>
								<g>
									<path class="st8" d="M843.19,481.87c-19.48,1.26-29.6-1.89-39.4-4.94c-9.58-2.98-18.64-5.8-36.78-4.63
										s-26.75,5.14-35.87,9.34c-9.32,4.29-18.95,8.72-38.43,9.98c-19.48,1.26-29.6-1.89-39.39-4.94
										c-9.58-2.98-18.64-5.8-36.78-4.63c-18.14,1.18-26.75,5.14-35.87,9.34c-9.32,4.29-18.95,8.72-38.43,9.98
										c-19.48,1.26-29.6-1.89-39.39-4.94c-9.58-2.98-18.64-5.8-36.77-4.63c-18.14,1.18-26.75,5.14-35.87,9.34
										c-9.32,4.29-18.95,8.72-38.43,9.98s-29.6-1.89-39.39-4.94c-9.58-2.98-18.64-5.8-36.77-4.63
										c-18.14,1.18-26.75,5.14-35.87,9.34c-9.32,4.29-18.95,8.72-38.42,9.98c-19.48,1.26-29.6-1.89-39.39-4.94
										c-9.58-2.98-18.64-5.8-36.77-4.63c-18.14,1.18-26.75,5.14-35.87,9.34c-9.32,4.29-18.95,8.72-38.43,9.98
										c-19.48,1.26-29.6-1.89-39.39-4.94c-9.58-2.98-18.64-5.8-36.77-4.63l-0.47-7.22c19.48-1.26,29.6,1.89,39.39,4.94
										c9.58,2.98,18.64,5.8,36.77,4.63s26.75-5.14,35.87-9.34c9.32-4.29,18.95-8.72,38.42-9.98c19.48-1.26,29.6,1.89,39.39,4.94
										c9.58,2.98,18.64,5.8,36.77,4.63c18.14-1.18,26.75-5.14,35.87-9.34c9.32-4.29,18.95-8.72,38.42-9.98
										c19.48-1.26,29.6,1.89,39.39,4.94c9.58,2.98,18.64,5.8,36.77,4.63c18.14-1.18,26.75-5.14,35.87-9.34
										c9.32-4.29,18.95-8.72,38.42-9.98c19.48-1.26,29.6,1.89,39.39,4.94c9.58,2.98,18.64,5.8,36.77,4.63
										c18.14-1.18,26.75-5.14,35.87-9.34c9.32-4.29,18.95-8.72,38.43-9.98c19.48-1.26,29.6,1.89,39.39,4.94
										c9.58,2.98,18.64,5.8,36.77,4.63c18.14-1.18,26.75-5.14,35.87-9.34c9.32-4.29,18.95-8.72,38.43-9.98
										c19.48-1.26,29.6,1.89,39.4,4.94c9.58,2.98,18.64,5.8,36.78,4.63L843.19,481.87z"/>
								</g>
							</g>
							<g>
								<g>
									<path class="st8" d="M840.85,445.76c-19.48,1.26-29.6-1.89-39.4-4.94c-9.58-2.98-18.64-5.8-36.78-4.63
										c-18.14,1.18-26.75,5.14-35.87,9.34c-9.32,4.29-18.95,8.72-38.43,9.98c-19.48,1.26-29.6-1.89-39.39-4.94
										c-9.58-2.98-18.64-5.8-36.78-4.63c-18.14,1.18-26.75,5.14-35.87,9.34c-9.32,4.29-18.95,8.72-38.43,9.98
										c-19.48,1.26-29.6-1.89-39.39-4.94c-9.58-2.98-18.64-5.8-36.77-4.63c-18.14,1.18-26.75,5.14-35.87,9.34
										c-9.32,4.29-18.95,8.72-38.43,9.98c-19.48,1.26-29.6-1.89-39.39-4.94c-9.58-2.98-18.64-5.8-36.77-4.63
										c-18.14,1.18-26.75,5.14-35.87,9.34c-9.32,4.29-18.95,8.72-38.42,9.98c-19.48,1.26-29.6-1.89-39.39-4.94
										c-9.58-2.98-18.64-5.8-36.77-4.63c-18.14,1.18-26.75,5.14-35.87,9.34c-9.32,4.29-18.95,8.72-38.43,9.98
										s-29.6-1.89-39.39-4.94c-9.58-2.98-18.64-5.8-36.77-4.63l-0.47-7.22c19.48-1.26,29.6,1.89,39.39,4.94
										c9.58,2.98,18.64,5.8,36.77,4.63s26.75-5.14,35.87-9.34c9.32-4.29,18.95-8.72,38.42-9.98c19.48-1.26,29.6,1.89,39.39,4.94
										c9.58,2.98,18.64,5.8,36.77,4.63c18.14-1.18,26.75-5.14,35.87-9.34c9.32-4.29,18.95-8.72,38.42-9.98
										c19.48-1.26,29.6,1.89,39.39,4.94c9.58,2.98,18.64,5.8,36.77,4.63c18.14-1.18,26.75-5.14,35.87-9.34
										c9.32-4.29,18.95-8.72,38.43-9.98c19.48-1.26,29.6,1.89,39.39,4.94c9.58,2.98,18.64,5.8,36.77,4.63
										c18.14-1.18,26.75-5.14,35.87-9.34c9.32-4.29,18.95-8.72,38.42-9.98c19.48-1.26,29.6,1.89,39.39,4.94
										c9.58,2.98,18.64,5.8,36.77,4.63c18.14-1.18,26.75-5.14,35.87-9.34c9.32-4.29,18.95-8.72,38.43-9.98
										c19.48-1.26,29.6,1.89,39.4,4.94c9.58,2.98,18.64,5.8,36.78,4.63L840.85,445.76z"/>
								</g>
							</g>
							<g>
								<g>
									<path class="st8" d="M838.51,409.66c-19.48,1.26-29.6-1.89-39.4-4.94c-9.58-2.98-18.64-5.8-36.78-4.63
										c-18.14,1.18-26.75,5.14-35.87,9.34c-9.32,4.29-18.95,8.72-38.43,9.98c-19.48,1.26-29.6-1.89-39.39-4.94
										c-9.58-2.98-18.64-5.8-36.78-4.63c-18.14,1.18-26.75,5.14-35.87,9.34c-9.32,4.29-18.95,8.72-38.43,9.98
										c-19.48,1.26-29.6-1.89-39.39-4.94c-9.58-2.98-18.64-5.8-36.77-4.63c-18.14,1.18-26.75,5.14-35.87,9.34
										c-9.32,4.29-18.95,8.72-38.43,9.98c-19.48,1.26-29.6-1.89-39.39-4.94c-9.58-2.98-18.64-5.8-36.77-4.63
										c-18.14,1.18-26.75,5.14-35.87,9.34c-9.32,4.29-18.95,8.72-38.42,9.98c-19.48,1.26-29.6-1.89-39.39-4.94
										c-9.58-2.98-18.64-5.8-36.77-4.63c-18.14,1.18-26.75,5.14-35.87,9.34c-9.32,4.29-18.95,8.72-38.43,9.98
										c-19.48,1.26-29.6-1.89-39.39-4.94c-9.58-2.98-18.64-5.8-36.77-4.63l-0.47-7.22c19.48-1.26,29.6,1.89,39.39,4.94
										c9.58,2.98,18.64,5.8,36.77,4.63c18.14-1.18,26.75-5.14,35.87-9.34c9.32-4.29,18.95-8.72,38.42-9.98
										c19.48-1.26,29.6,1.89,39.39,4.94c9.58,2.98,18.64,5.8,36.77,4.63c18.14-1.18,26.75-5.14,35.87-9.34
										c9.32-4.29,18.95-8.72,38.42-9.98c19.48-1.26,29.6,1.89,39.39,4.94c9.58,2.98,18.64,5.8,36.77,4.63
										c18.14-1.18,26.75-5.14,35.87-9.34c9.32-4.29,18.95-8.72,38.43-9.98c19.48-1.26,29.6,1.89,39.39,4.94
										c9.58,2.98,18.64,5.8,36.77,4.63c18.14-1.18,26.75-5.14,35.87-9.34c9.32-4.29,18.95-8.72,38.42-9.98
										c19.48-1.26,29.6,1.89,39.39,4.94c9.58,2.98,18.64,5.8,36.77,4.63c18.14-1.18,26.75-5.14,35.87-9.34
										c9.32-4.29,18.95-8.72,38.43-9.98c19.48-1.26,29.6,1.89,39.4,4.94c9.58,2.98,18.64,5.8,36.78,4.63L838.51,409.66z"/>
								</g>
							</g>
							<g>
								<g>
									<path class="st8" d="M836.16,373.55c-19.48,1.26-29.6-1.89-39.4-4.94c-9.58-2.98-18.64-5.8-36.78-4.63
										s-26.75,5.14-35.87,9.34c-9.32,4.29-18.95,8.72-38.43,9.98c-19.48,1.26-29.6-1.89-39.39-4.94
										c-9.58-2.98-18.64-5.8-36.78-4.63c-18.14,1.18-26.75,5.14-35.87,9.34c-9.32,4.29-18.95,8.72-38.43,9.98
										s-29.6-1.89-39.39-4.94c-9.58-2.98-18.64-5.8-36.77-4.63c-18.14,1.18-26.75,5.14-35.87,9.34
										c-9.32,4.29-18.95,8.72-38.43,9.98c-19.48,1.26-29.6-1.89-39.39-4.94c-9.58-2.98-18.64-5.8-36.77-4.63
										c-18.14,1.18-26.75,5.14-35.87,9.34c-9.32,4.29-18.95,8.72-38.42,9.98c-19.48,1.26-29.6-1.89-39.39-4.94
										c-9.58-2.98-18.64-5.8-36.77-4.63c-18.14,1.18-26.75,5.14-35.87,9.34c-9.32,4.29-18.95,8.72-38.43,9.98
										s-29.6-1.89-39.39-4.94c-9.58-2.98-18.64-5.8-36.77-4.63l-0.47-7.22c19.48-1.26,29.6,1.89,39.39,4.94
										c9.58,2.98,18.64,5.8,36.77,4.63s26.75-5.14,35.87-9.34c9.32-4.29,18.95-8.72,38.42-9.98c19.48-1.26,29.6,1.89,39.39,4.94
										c9.58,2.98,18.64,5.8,36.77,4.63c18.14-1.18,26.75-5.14,35.87-9.34c9.32-4.29,18.95-8.72,38.42-9.98
										c19.48-1.26,29.6,1.89,39.39,4.94c9.58,2.98,18.64,5.8,36.77,4.63c18.14-1.18,26.75-5.14,35.87-9.34
										c9.32-4.29,18.95-8.72,38.43-9.98c19.48-1.26,29.6,1.89,39.39,4.94c9.58,2.98,18.64,5.8,36.77,4.63
										c18.14-1.18,26.75-5.14,35.87-9.34c9.32-4.29,18.95-8.72,38.43-9.98c19.48-1.26,29.6,1.89,39.39,4.94
										c9.58,2.98,18.64,5.8,36.77,4.63c18.14-1.18,26.75-5.14,35.87-9.34c9.32-4.29,18.95-8.72,38.43-9.98
										c19.48-1.26,29.6,1.89,39.4,4.94c9.58,2.98,18.64,5.8,36.78,4.63L836.16,373.55z"/>
								</g>
							</g>
							<g>
								<g>
									<path class="st8" d="M833.82,337.45c-19.48,1.26-29.6-1.89-39.4-4.94c-9.58-2.98-18.64-5.8-36.78-4.63
										c-18.14,1.18-26.75,5.14-35.87,9.34c-9.32,4.29-18.95,8.72-38.43,9.98c-19.48,1.26-29.6-1.89-39.39-4.94
										c-9.58-2.98-18.64-5.8-36.78-4.63c-18.14,1.18-26.75,5.14-35.87,9.34c-9.32,4.29-18.95,8.72-38.43,9.98
										c-19.48,1.26-29.6-1.89-39.39-4.94c-9.58-2.98-18.64-5.8-36.77-4.63c-18.14,1.18-26.75,5.14-35.87,9.34
										c-9.32,4.29-18.95,8.72-38.43,9.98c-19.48,1.26-29.6-1.89-39.39-4.94c-9.58-2.98-18.64-5.8-36.77-4.63
										c-18.14,1.18-26.75,5.14-35.87,9.34c-9.32,4.29-18.95,8.72-38.42,9.98c-19.48,1.26-29.6-1.89-39.39-4.94
										c-9.58-2.98-18.64-5.8-36.77-4.63c-18.14,1.18-26.75,5.14-35.87,9.34c-9.32,4.29-18.95,8.72-38.43,9.98
										c-19.48,1.26-29.6-1.89-39.39-4.94c-9.58-2.98-18.64-5.8-36.77-4.63l-0.47-7.22c19.48-1.26,29.6,1.89,39.39,4.94
										c9.58,2.98,18.64,5.8,36.77,4.63s26.75-5.14,35.87-9.34c9.32-4.29,18.95-8.72,38.42-9.98c19.48-1.26,29.6,1.89,39.39,4.94
										c9.58,2.98,18.64,5.8,36.77,4.63c18.14-1.18,26.75-5.14,35.87-9.34c9.32-4.29,18.95-8.72,38.42-9.98
										c19.48-1.26,29.6,1.89,39.39,4.94c9.58,2.98,18.64,5.8,36.77,4.63c18.14-1.18,26.75-5.14,35.87-9.34
										c9.32-4.29,18.95-8.72,38.43-9.98c19.48-1.26,29.6,1.89,39.39,4.94c9.58,2.98,18.64,5.8,36.77,4.63
										c18.14-1.18,26.75-5.14,35.87-9.34c9.32-4.29,18.95-8.72,38.42-9.98c19.48-1.26,29.6,1.89,39.39,4.94
										c9.58,2.98,18.64,5.8,36.77,4.63c18.14-1.18,26.75-5.14,35.87-9.34c9.32-4.29,18.95-8.72,38.43-9.98
										c19.48-1.26,29.6,1.89,39.4,4.94c9.58,2.98,18.64,5.8,36.78,4.63L833.82,337.45z"/>
								</g>
							</g>
							<g>
								<g>
									<path class="st8" d="M831.48,301.34c-19.48,1.26-29.6-1.89-39.4-4.94c-9.58-2.98-18.64-5.8-36.78-4.63
										s-26.75,5.14-35.87,9.34c-9.32,4.29-18.95,8.72-38.43,9.98c-19.48,1.26-29.6-1.89-39.39-4.94
										c-9.58-2.98-18.64-5.8-36.78-4.63c-18.14,1.18-26.75,5.14-35.87,9.34c-9.32,4.29-18.95,8.72-38.43,9.98
										c-19.48,1.26-29.6-1.89-39.39-4.94c-9.58-2.98-18.64-5.8-36.77-4.63c-18.14,1.18-26.75,5.14-35.87,9.34
										c-9.32,4.29-18.95,8.72-38.43,9.98c-19.48,1.26-29.6-1.89-39.39-4.94c-9.58-2.98-18.64-5.8-36.77-4.63
										c-18.14,1.18-26.75,5.14-35.87,9.34c-9.32,4.29-18.95,8.72-38.42,9.98c-19.48,1.26-29.6-1.89-39.39-4.94
										c-9.58-2.98-18.64-5.8-36.77-4.63c-18.14,1.18-26.75,5.14-35.87,9.34c-9.32,4.29-18.95,8.72-38.43,9.98
										c-19.48,1.26-29.6-1.89-39.39-4.94c-9.58-2.98-18.64-5.8-36.77-4.63l-0.47-7.22c19.48-1.26,29.6,1.89,39.39,4.94
										c9.58,2.98,18.64,5.8,36.77,4.63s26.75-5.14,35.87-9.34c9.32-4.29,18.95-8.72,38.42-9.98c19.48-1.26,29.6,1.89,39.39,4.94
										c9.58,2.98,18.64,5.8,36.77,4.63c18.14-1.18,26.75-5.14,35.87-9.34c9.32-4.29,18.95-8.72,38.42-9.98
										c19.48-1.26,29.6,1.89,39.39,4.94c9.58,2.98,18.64,5.8,36.77,4.63c18.14-1.18,26.75-5.14,35.87-9.34
										c9.32-4.29,18.95-8.72,38.42-9.98c19.48-1.26,29.6,1.89,39.39,4.94c9.58,2.98,18.64,5.8,36.77,4.63
										c18.14-1.18,26.75-5.14,35.87-9.34c9.32-4.29,18.95-8.72,38.42-9.98c19.48-1.26,29.6,1.89,39.39,4.94
										c9.58,2.98,18.64,5.8,36.77,4.63c18.14-1.18,26.75-5.14,35.87-9.34c9.32-4.29,18.95-8.72,38.43-9.98
										c19.48-1.26,29.6,1.89,39.4,4.94c9.58,2.98,18.64,5.8,36.78,4.63L831.48,301.34z"/>
								</g>
							</g>
							<g>
								<g>
									<path class="st8" d="M829.14,265.23c-19.48,1.26-29.6-1.89-39.4-4.94c-9.58-2.98-18.64-5.8-36.78-4.63
										s-26.75,5.14-35.87,9.34c-9.32,4.29-18.95,8.72-38.43,9.98c-19.48,1.26-29.6-1.89-39.39-4.94
										c-9.58-2.98-18.64-5.8-36.78-4.63c-18.14,1.18-26.75,5.14-35.87,9.34c-9.32,4.29-18.95,8.72-38.43,9.98
										c-19.48,1.26-29.6-1.89-39.39-4.94c-9.58-2.98-18.64-5.8-36.77-4.63c-18.14,1.18-26.75,5.14-35.87,9.34
										c-9.32,4.29-18.95,8.72-38.43,9.98c-19.48,1.26-29.6-1.89-39.39-4.94c-9.58-2.98-18.64-5.8-36.77-4.63
										c-18.14,1.18-26.75,5.14-35.87,9.34c-9.32,4.29-18.95,8.72-38.42,9.98c-19.48,1.26-29.6-1.89-39.39-4.94
										c-9.58-2.98-18.64-5.8-36.77-4.63c-18.14,1.18-26.75,5.14-35.87,9.34c-9.32,4.29-18.95,8.72-38.43,9.98
										s-29.6-1.89-39.39-4.94c-9.58-2.98-18.64-5.8-36.77-4.63l-0.47-7.22c19.48-1.26,29.6,1.89,39.39,4.94
										c9.58,2.98,18.64,5.8,36.77,4.63s26.75-5.14,35.87-9.34c9.32-4.29,18.95-8.72,38.42-9.98c19.48-1.26,29.6,1.89,39.39,4.94
										c9.58,2.98,18.64,5.8,36.77,4.63c18.14-1.18,26.75-5.14,35.87-9.34c9.32-4.29,18.95-8.72,38.42-9.98
										c19.48-1.26,29.6,1.89,39.39,4.94c9.58,2.98,18.64,5.8,36.77,4.63c18.14-1.18,26.75-5.14,35.87-9.34
										c9.32-4.29,18.95-8.72,38.43-9.98c19.48-1.26,29.6,1.89,39.39,4.94c9.58,2.98,18.64,5.8,36.77,4.63
										c18.14-1.18,26.75-5.14,35.87-9.34c9.32-4.29,18.95-8.72,38.43-9.98c19.48-1.26,29.6,1.89,39.39,4.94
										c9.58,2.98,18.64,5.8,36.77,4.63c18.14-1.18,26.75-5.14,35.87-9.34c9.32-4.29,18.95-8.72,38.43-9.98
										c19.48-1.26,29.6,1.89,39.4,4.94c9.58,2.98,18.64,5.8,36.78,4.63L829.14,265.23z"/>
								</g>
							</g>
							<g>
								<g>
									<path class="st8" d="M826.8,229.13c-19.48,1.26-29.6-1.89-39.4-4.94c-9.58-2.98-18.64-5.8-36.78-4.63
										c-18.14,1.18-26.75,5.14-35.87,9.34c-9.32,4.29-18.95,8.72-38.43,9.98c-19.48,1.26-29.6-1.89-39.39-4.94
										c-9.58-2.98-18.64-5.8-36.78-4.63c-18.14,1.18-26.75,5.14-35.87,9.34c-9.32,4.29-18.95,8.72-38.43,9.98
										c-19.48,1.26-29.6-1.89-39.39-4.94c-9.58-2.98-18.64-5.8-36.77-4.63c-18.14,1.18-26.75,5.14-35.87,9.34
										c-9.32,4.29-18.95,8.72-38.43,9.98c-19.48,1.26-29.6-1.89-39.39-4.94c-9.58-2.98-18.64-5.8-36.77-4.63
										c-18.14,1.18-26.75,5.14-35.87,9.34c-9.32,4.29-18.95,8.72-38.42,9.98c-19.48,1.26-29.6-1.89-39.39-4.94
										c-9.58-2.98-18.64-5.8-36.77-4.63c-18.14,1.18-26.75,5.14-35.87,9.34c-9.32,4.29-18.95,8.72-38.43,9.98
										c-19.48,1.26-29.6-1.89-39.39-4.94c-9.58-2.98-18.64-5.8-36.77-4.63l-0.47-7.22c19.48-1.26,29.6,1.89,39.39,4.94
										c9.58,2.98,18.64,5.8,36.77,4.63c18.14-1.18,26.75-5.14,35.87-9.34c9.32-4.29,18.95-8.72,38.42-9.98
										c19.48-1.26,29.6,1.89,39.39,4.94c9.58,2.98,18.64,5.8,36.77,4.63c18.14-1.18,26.75-5.14,35.87-9.34
										c9.32-4.29,18.95-8.72,38.42-9.98c19.48-1.26,29.6,1.89,39.39,4.94c9.58,2.98,18.64,5.8,36.77,4.63
										c18.14-1.18,26.75-5.14,35.87-9.34c9.32-4.29,18.95-8.72,38.43-9.98c19.48-1.26,29.6,1.89,39.39,4.94
										c9.58,2.98,18.64,5.8,36.77,4.63c18.14-1.18,26.75-5.14,35.87-9.34c9.32-4.29,18.95-8.72,38.42-9.98
										c19.48-1.26,29.6,1.89,39.39,4.94c9.58,2.98,18.64,5.8,36.77,4.63c18.14-1.18,26.75-5.14,35.87-9.34
										c9.32-4.29,18.95-8.72,38.43-9.98c19.48-1.26,29.6,1.89,39.4,4.94c9.58,2.98,18.64,5.8,36.78,4.63L826.8,229.13z"/>
								</g>
							</g>
							<g>
								<g>
									<path class="st8" d="M824.46,193.02c-19.48,1.26-29.6-1.89-39.4-4.94c-9.58-2.98-18.64-5.8-36.78-4.63
										s-26.75,5.14-35.87,9.34c-9.32,4.29-18.95,8.72-38.43,9.98c-19.48,1.26-29.6-1.89-39.39-4.94
										c-9.58-2.98-18.64-5.8-36.78-4.63c-18.14,1.18-26.75,5.14-35.87,9.34c-9.32,4.29-18.95,8.72-38.43,9.98
										c-19.48,1.26-29.6-1.89-39.39-4.94c-9.58-2.98-18.64-5.8-36.77-4.63c-18.14,1.18-26.75,5.14-35.87,9.34
										c-9.32,4.29-18.95,8.72-38.43,9.98c-19.48,1.26-29.6-1.89-39.39-4.94c-9.58-2.98-18.64-5.8-36.77-4.63
										c-18.14,1.18-26.75,5.14-35.87,9.34c-9.32,4.29-18.95,8.72-38.42,9.98c-19.48,1.26-29.6-1.89-39.39-4.94
										c-9.58-2.98-18.64-5.8-36.77-4.63c-18.14,1.18-26.75,5.14-35.87,9.34c-9.32,4.29-18.95,8.72-38.43,9.98
										c-19.48,1.26-29.6-1.89-39.39-4.94c-9.58-2.98-18.64-5.8-36.77-4.63l-0.47-7.22c19.48-1.26,29.6,1.89,39.39,4.94
										c9.58,2.98,18.64,5.8,36.77,4.63s26.75-5.14,35.87-9.34c9.32-4.29,18.95-8.72,38.42-9.98c19.48-1.26,29.6,1.89,39.39,4.94
										c9.58,2.98,18.64,5.8,36.77,4.63c18.14-1.18,26.75-5.14,35.87-9.34c9.32-4.29,18.95-8.72,38.42-9.98
										c19.48-1.26,29.6,1.89,39.39,4.94c9.58,2.98,18.64,5.8,36.77,4.63c18.14-1.18,26.75-5.14,35.87-9.34
										c9.32-4.29,18.95-8.72,38.42-9.98c19.48-1.26,29.6,1.89,39.39,4.94c9.58,2.98,18.64,5.8,36.77,4.63
										c18.14-1.18,26.75-5.14,35.87-9.34c9.32-4.29,18.95-8.72,38.42-9.98c19.48-1.26,29.6,1.89,39.39,4.94
										c9.58,2.98,18.64,5.8,36.77,4.63c18.14-1.18,26.75-5.14,35.87-9.34c9.32-4.29,18.95-8.72,38.43-9.98
										c19.48-1.26,29.6,1.89,39.4,4.94c9.58,2.98,18.64,5.8,36.78,4.63L824.46,193.02z"/>
								</g>
							</g>
							<g>
								<g>
									<path class="st8" d="M822.11,156.92c-19.48,1.26-29.6-1.89-39.4-4.94c-9.58-2.98-18.64-5.8-36.78-4.63
										s-26.75,5.14-35.87,9.34c-9.32,4.29-18.95,8.72-38.43,9.98c-19.48,1.26-29.6-1.89-39.39-4.94
										c-9.58-2.98-18.64-5.8-36.78-4.63c-18.14,1.18-26.75,5.14-35.87,9.34c-9.32,4.29-18.95,8.72-38.43,9.98
										s-29.6-1.89-39.39-4.94c-9.58-2.98-18.64-5.8-36.77-4.63c-18.14,1.18-26.75,5.14-35.87,9.34
										c-9.32,4.29-18.95,8.72-38.43,9.98c-19.48,1.26-29.6-1.89-39.39-4.94c-9.58-2.98-18.64-5.8-36.77-4.63
										c-18.14,1.18-26.75,5.14-35.87,9.34c-9.32,4.29-18.95,8.72-38.42,9.98c-19.48,1.26-29.6-1.89-39.39-4.94
										c-9.58-2.98-18.64-5.8-36.77-4.63c-18.14,1.18-26.75,5.14-35.87,9.34c-9.32,4.29-18.95,8.72-38.43,9.98
										c-19.48,1.26-29.6-1.89-39.39-4.94c-9.58-2.98-18.64-5.8-36.77-4.63l-0.47-7.22c19.48-1.26,29.6,1.89,39.39,4.94
										c9.58,2.98,18.64,5.8,36.77,4.63s26.75-5.14,35.87-9.34c9.32-4.29,18.95-8.72,38.42-9.98c19.48-1.26,29.6,1.89,39.39,4.94
										c9.58,2.98,18.64,5.8,36.77,4.63c18.14-1.18,26.75-5.14,35.87-9.34c9.32-4.29,18.95-8.72,38.42-9.98
										c19.48-1.26,29.6,1.89,39.39,4.94c9.58,2.98,18.64,5.8,36.77,4.63c18.14-1.18,26.75-5.14,35.87-9.34
										c9.32-4.29,18.95-8.72,38.43-9.98c19.48-1.26,29.6,1.89,39.39,4.94c9.58,2.98,18.64,5.8,36.77,4.63
										c18.14-1.18,26.75-5.14,35.87-9.34c9.32-4.29,18.95-8.72,38.43-9.98c19.48-1.26,29.6,1.89,39.39,4.94
										c9.58,2.98,18.64,5.8,36.77,4.63c18.14-1.18,26.75-5.14,35.87-9.34c9.32-4.29,18.95-8.72,38.43-9.98
										c19.48-1.26,29.6,1.89,39.4,4.94c9.58,2.98,18.64,5.8,36.78,4.63L822.11,156.92z"/>
								</g>
							</g>
							<g>
								<g>
									<path class="st8" d="M819.77,120.81c-19.48,1.26-29.6-1.89-39.4-4.94c-9.58-2.98-18.64-5.8-36.78-4.63
										c-18.14,1.18-26.75,5.14-35.87,9.34c-9.32,4.29-18.95,8.72-38.43,9.98c-19.48,1.26-29.6-1.89-39.39-4.94
										c-9.58-2.98-18.64-5.8-36.78-4.63c-18.14,1.18-26.75,5.14-35.87,9.34c-9.32,4.29-18.95,8.72-38.43,9.98
										c-19.48,1.26-29.6-1.89-39.39-4.94c-9.58-2.98-18.64-5.8-36.77-4.63c-18.14,1.18-26.75,5.14-35.87,9.34
										c-9.32,4.29-18.95,8.72-38.43,9.98c-19.48,1.26-29.6-1.89-39.39-4.94c-9.58-2.98-18.64-5.8-36.77-4.63
										c-18.14,1.18-26.75,5.14-35.87,9.34c-9.32,4.29-18.95,8.72-38.42,9.98c-19.48,1.26-29.6-1.89-39.39-4.94
										c-9.58-2.98-18.64-5.8-36.77-4.63c-18.14,1.18-26.75,5.14-35.87,9.34c-9.32,4.29-18.95,8.72-38.43,9.98
										c-19.48,1.26-29.6-1.89-39.39-4.94c-9.58-2.98-18.64-5.8-36.77-4.63l-0.47-7.22c19.48-1.26,29.6,1.89,39.39,4.94
										c9.58,2.98,18.64,5.8,36.77,4.63c18.14-1.18,26.75-5.14,35.87-9.34c9.32-4.29,18.95-8.72,38.42-9.98
										c19.48-1.26,29.6,1.89,39.39,4.94c9.58,2.98,18.64,5.8,36.77,4.63c18.14-1.18,26.75-5.14,35.87-9.34
										c9.32-4.29,18.95-8.72,38.42-9.98c19.48-1.26,29.6,1.89,39.39,4.94c9.58,2.98,18.64,5.8,36.77,4.63
										c18.14-1.18,26.75-5.14,35.87-9.34c9.32-4.29,18.95-8.72,38.43-9.98c19.48-1.26,29.6,1.89,39.39,4.94
										c9.58,2.98,18.64,5.8,36.77,4.63c18.14-1.18,26.75-5.14,35.87-9.34c9.32-4.29,18.95-8.72,38.43-9.98
										c19.48-1.26,29.6,1.89,39.39,4.94c9.58,2.98,18.64,5.8,36.77,4.63c18.14-1.18,26.75-5.14,35.87-9.34
										c9.32-4.29,18.95-8.72,38.43-9.98c19.48-1.26,29.6,1.89,39.4,4.94c9.58,2.98,18.64,5.8,36.78,4.63L819.77,120.81z"/>
								</g>
							</g>
							<g>
								<g>
									<path class="st8" d="M817.43,84.71c-19.48,1.26-29.6-1.89-39.4-4.94c-9.58-2.98-18.64-5.8-36.78-4.63
										c-18.14,1.18-26.75,5.14-35.87,9.34c-9.32,4.29-18.95,8.72-38.43,9.98c-19.48,1.26-29.6-1.89-39.39-4.94
										c-9.58-2.98-18.64-5.8-36.78-4.63c-18.14,1.18-26.75,5.14-35.87,9.34c-9.32,4.29-18.95,8.72-38.43,9.98
										c-19.48,1.26-29.6-1.89-39.39-4.94c-9.58-2.98-18.64-5.8-36.77-4.63c-18.14,1.18-26.75,5.14-35.87,9.34
										c-9.32,4.29-18.95,8.72-38.43,9.98s-29.6-1.89-39.39-4.94c-9.58-2.98-18.64-5.8-36.77-4.63
										c-18.14,1.18-26.75,5.14-35.87,9.34c-9.32,4.29-18.95,8.72-38.42,9.98c-19.48,1.26-29.6-1.89-39.39-4.94
										c-9.58-2.98-18.64-5.8-36.77-4.63c-18.14,1.18-26.75,5.14-35.87,9.34c-9.32,4.29-18.95,8.72-38.43,9.98
										c-19.48,1.26-29.6-1.89-39.39-4.94c-9.58-2.98-18.64-5.8-36.77-4.63l-0.47-7.22c19.48-1.26,29.6,1.89,39.39,4.94
										c9.58,2.98,18.64,5.8,36.77,4.63c18.14-1.18,26.75-5.14,35.87-9.34c9.32-4.29,18.95-8.72,38.42-9.98
										c19.48-1.26,29.6,1.89,39.39,4.94c9.58,2.98,18.64,5.8,36.77,4.63c18.14-1.18,26.75-5.14,35.87-9.34
										c9.32-4.29,18.95-8.72,38.42-9.98c19.48-1.26,29.6,1.89,39.39,4.94c9.58,2.98,18.64,5.8,36.77,4.63
										c18.14-1.18,26.75-5.14,35.87-9.34c9.32-4.29,18.95-8.72,38.43-9.98c19.48-1.26,29.6,1.89,39.39,4.94
										c9.58,2.98,18.64,5.8,36.77,4.63c18.14-1.18,26.75-5.14,35.87-9.34c9.32-4.29,18.95-8.72,38.42-9.98
										c19.48-1.26,29.6,1.89,39.39,4.94c9.58,2.98,18.64,5.8,36.77,4.63c18.14-1.18,26.75-5.14,35.87-9.34
										c9.32-4.29,18.95-8.72,38.43-9.98c19.48-1.26,29.6,1.89,39.4,4.94c9.58,2.98,18.64,5.8,36.78,4.63L817.43,84.71z"/>
								</g>
							</g>
							<g>
								<g>
									<path class="st8" d="M815.09,48.6c-19.48,1.26-29.6-1.89-39.4-4.94c-9.58-2.98-18.64-5.8-36.78-4.63
										s-26.75,5.14-35.87,9.34c-9.32,4.29-18.95,8.72-38.43,9.98c-19.48,1.26-29.6-1.89-39.39-4.94
										c-9.58-2.98-18.64-5.8-36.78-4.63c-18.14,1.18-26.75,5.14-35.87,9.34c-9.32,4.29-18.95,8.72-38.43,9.98
										c-19.48,1.26-29.6-1.89-39.39-4.94c-9.58-2.98-18.64-5.8-36.77-4.63c-18.14,1.18-26.75,5.14-35.87,9.34
										c-9.32,4.29-18.95,8.72-38.43,9.98c-19.48,1.26-29.6-1.89-39.39-4.94c-9.58-2.98-18.64-5.8-36.77-4.63
										c-18.14,1.18-26.75,5.14-35.87,9.34c-9.32,4.29-18.95,8.72-38.42,9.98c-19.48,1.26-29.6-1.89-39.39-4.94
										c-9.58-2.98-18.64-5.8-36.77-4.63c-18.14,1.18-26.75,5.14-35.87,9.34c-9.32,4.29-18.95,8.72-38.43,9.98
										s-29.6-1.89-39.39-4.94c-9.58-2.98-18.64-5.8-36.77-4.63l-0.47-7.22c19.48-1.26,29.6,1.89,39.39,4.94
										c9.58,2.98,18.64,5.8,36.77,4.63s26.75-5.14,35.87-9.34c9.32-4.29,18.95-8.72,38.42-9.98c19.48-1.26,29.6,1.89,39.39,4.94
										c9.58,2.98,18.64,5.8,36.77,4.63c18.14-1.18,26.75-5.14,35.87-9.34c9.32-4.29,18.95-8.72,38.42-9.98
										c19.48-1.26,29.6,1.89,39.39,4.94c9.58,2.98,18.64,5.8,36.77,4.63c18.14-1.18,26.75-5.14,35.87-9.34
										c9.32-4.29,18.95-8.72,38.43-9.98c19.48-1.26,29.6,1.89,39.39,4.94c9.58,2.98,18.64,5.8,36.77,4.63
										c18.14-1.18,26.75-5.14,35.87-9.34c9.32-4.29,18.95-8.72,38.42-9.98c19.48-1.26,29.6,1.89,39.39,4.94
										c9.58,2.98,18.64,5.8,36.77,4.63c18.14-1.18,26.75-5.14,35.87-9.34c9.32-4.29,18.95-8.72,38.43-9.98
										c19.48-1.26,29.6,1.89,39.4,4.94c9.58,2.98,18.64,5.8,36.78,4.63L815.09,48.6z"/>
								</g>
							</g>
							<g>
								<g>
									<path class="st8" d="M812.75,12.49c-19.48,1.26-29.6-1.89-39.4-4.94c-9.58-2.98-18.64-5.8-36.78-4.63
										c-18.14,1.18-26.75,5.14-35.87,9.34c-9.32,4.29-18.95,8.72-38.43,9.98c-19.48,1.26-29.6-1.89-39.39-4.94
										c-9.58-2.98-18.64-5.8-36.78-4.63c-18.14,1.18-26.75,5.14-35.87,9.34c-9.32,4.29-18.95,8.72-38.43,9.98
										c-19.48,1.26-29.6-1.89-39.39-4.94c-9.58-2.98-18.64-5.8-36.77-4.63c-18.14,1.18-26.75,5.14-35.87,9.34
										c-9.32,4.29-18.95,8.72-38.43,9.98c-19.48,1.26-29.6-1.89-39.39-4.94c-9.58-2.98-18.64-5.8-36.77-4.63
										c-18.14,1.18-26.75,5.14-35.87,9.34c-9.32,4.29-18.95,8.72-38.42,9.98c-19.48,1.26-29.6-1.89-39.39-4.94
										c-9.58-2.98-18.64-5.8-36.77-4.63c-18.14,1.18-26.75,5.14-35.87,9.34c-9.32,4.29-18.95,8.72-38.43,9.98
										c-19.48,1.26-29.6-1.89-39.39-4.94c-9.58-2.98-18.64-5.8-36.77-4.63l-0.47-7.22c19.48-1.26,29.6,1.89,39.39,4.94
										c9.58,2.98,18.64,5.8,36.77,4.63c18.14-1.18,26.75-5.14,35.87-9.34c9.32-4.29,18.95-8.72,38.42-9.98
										c19.48-1.26,29.6,1.89,39.39,4.94c9.58,2.98,18.64,5.8,36.77,4.63c18.14-1.18,26.75-5.14,35.87-9.34
										c9.32-4.29,18.95-8.72,38.42-9.98c19.48-1.26,29.6,1.89,39.39,4.94c9.58,2.98,18.64,5.8,36.77,4.63
										c18.14-1.18,26.75-5.14,35.87-9.34c9.32-4.29,18.95-8.72,38.42-9.98c19.48-1.26,29.6,1.89,39.39,4.94
										c9.58,2.98,18.64,5.8,36.77,4.63c18.14-1.18,26.75-5.14,35.87-9.34c9.32-4.29,18.95-8.72,38.43-9.98
										c19.48-1.26,29.6,1.89,39.39,4.94c9.58,2.98,18.64,5.8,36.77,4.63c18.14-1.18,26.75-5.14,35.87-9.34
										c9.32-4.29,18.95-8.72,38.43-9.98c19.48-1.26,29.6,1.89,39.4,4.94c9.58,2.98,18.64,5.8,36.78,4.63L812.75,12.49z"/>
								</g>
							</g>
							<g>
								<g>
									<path class="st8" d="M810.4-23.61c-19.48,1.26-29.6-1.89-39.4-4.94c-9.58-2.98-18.64-5.8-36.78-4.63
										c-18.14,1.18-26.75,5.14-35.87,9.34c-9.32,4.29-18.95,8.72-38.43,9.98c-19.48,1.26-29.6-1.89-39.39-4.94
										c-9.58-2.98-18.64-5.8-36.78-4.63c-18.14,1.18-26.75,5.14-35.87,9.34c-9.32,4.29-18.95,8.72-38.43,9.98
										s-29.6-1.89-39.39-4.94c-9.58-2.98-18.64-5.8-36.77-4.63c-18.14,1.18-26.75,5.14-35.87,9.34
										c-9.32,4.29-18.95,8.72-38.43,9.98c-19.48,1.26-29.6-1.89-39.39-4.94c-9.58-2.98-18.64-5.8-36.77-4.63
										c-18.14,1.18-26.75,5.14-35.87,9.34c-9.32,4.29-18.95,8.72-38.42,9.98c-19.48,1.26-29.6-1.89-39.39-4.94
										c-9.58-2.98-18.64-5.8-36.77-4.63C114.24,7.04,105.63,11,96.51,15.2c-9.32,4.29-18.95,8.72-38.43,9.98
										c-19.48,1.26-29.6-1.89-39.39-4.94c-9.58-2.98-18.64-5.8-36.77-4.63l-0.47-7.22c19.48-1.26,29.6,1.89,39.39,4.94
										c9.58,2.98,18.64,5.8,36.77,4.63c18.14-1.18,26.75-5.14,35.87-9.34c9.32-4.29,18.95-8.72,38.42-9.98
										c19.48-1.26,29.6,1.89,39.39,4.94c9.58,2.98,18.64,5.8,36.77,4.63c18.14-1.18,26.75-5.14,35.87-9.34
										c9.32-4.29,18.95-8.72,38.42-9.98c19.48-1.26,29.6,1.89,39.39,4.94c9.58,2.98,18.64,5.8,36.77,4.63
										c18.14-1.18,26.75-5.14,35.87-9.34c9.32-4.29,18.95-8.72,38.43-9.98c19.48-1.26,29.6,1.89,39.39,4.94
										c9.58,2.98,18.64,5.8,36.77,4.63c18.14-1.18,26.75-5.14,35.87-9.34c9.32-4.29,18.95-8.72,38.42-9.98
										c19.48-1.26,29.6,1.89,39.39,4.94c9.58,2.98,18.64,5.8,36.77,4.63c18.14-1.18,26.75-5.14,35.87-9.34
										c9.32-4.29,18.95-8.72,38.43-9.98c19.48-1.26,29.6,1.89,39.4,4.94c9.58,2.98,18.64,5.8,36.78,4.63L810.4-23.61z"/>
								</g>
							</g>
							<g>
								<g>
									<path class="st8" d="M808.06-59.72c-19.48,1.26-29.6-1.89-39.4-4.94c-9.58-2.98-18.64-5.8-36.78-4.63
										s-26.75,5.14-35.87,9.34c-9.32,4.29-18.95,8.72-38.43,9.98c-19.48,1.26-29.6-1.89-39.39-4.94
										c-9.58-2.98-18.64-5.8-36.78-4.63c-18.14,1.18-26.75,5.14-35.87,9.34c-9.32,4.29-18.95,8.72-38.43,9.98
										c-19.48,1.26-29.6-1.89-39.39-4.94c-9.58-2.98-18.64-5.8-36.77-4.63c-18.14,1.18-26.75,5.14-35.87,9.34
										c-9.32,4.29-18.95,8.72-38.43,9.98c-19.48,1.26-29.6-1.89-39.39-4.94c-9.58-2.98-18.64-5.8-36.77-4.63
										c-18.14,1.18-26.75,5.14-35.87,9.34c-9.32,4.29-18.95,8.72-38.42,9.98c-19.48,1.26-29.6-1.89-39.39-4.94
										c-9.58-2.98-18.64-5.8-36.77-4.63c-18.14,1.18-26.75,5.14-35.87,9.34c-9.32,4.29-18.95,8.72-38.43,9.98
										s-29.6-1.89-39.39-4.94c-9.58-2.98-18.64-5.8-36.77-4.63l-0.47-7.22c19.48-1.26,29.6,1.89,39.39,4.94
										c9.58,2.98,18.64,5.8,36.77,4.63c18.14-1.18,26.75-5.14,35.87-9.34c9.32-4.29,18.95-8.72,38.42-9.98
										c19.48-1.26,29.6,1.89,39.39,4.94c9.58,2.98,18.64,5.8,36.77,4.63c18.14-1.18,26.75-5.14,35.87-9.34
										c9.32-4.29,18.95-8.72,38.42-9.98c19.48-1.26,29.6,1.89,39.39,4.94c9.58,2.98,18.64,5.8,36.77,4.63
										c18.14-1.18,26.75-5.14,35.87-9.34c9.32-4.29,18.95-8.72,38.43-9.98c19.48-1.26,29.6,1.89,39.39,4.94
										c9.58,2.98,18.64,5.8,36.77,4.63c18.14-1.18,26.75-5.14,35.87-9.34c9.32-4.29,18.95-8.72,38.42-9.98
										c19.48-1.26,29.6,1.89,39.39,4.94c9.58,2.98,18.64,5.8,36.77,4.63c18.14-1.18,26.75-5.14,35.87-9.34
										c9.32-4.29,18.95-8.72,38.43-9.98c19.48-1.26,29.6,1.89,39.4,4.94c9.58,2.98,18.64,5.8,36.78,4.63L808.06-59.72z"/>
								</g>
							</g>
							<g>
								<g>
									<path class="st8" d="M805.72-95.82c-19.48,1.26-29.6-1.89-39.4-4.94c-9.58-2.98-18.64-5.8-36.78-4.63
										c-18.14,1.18-26.75,5.14-35.87,9.34c-9.32,4.29-18.95,8.72-38.43,9.98c-19.48,1.26-29.6-1.89-39.39-4.94
										c-9.58-2.98-18.64-5.8-36.78-4.63c-18.14,1.18-26.75,5.14-35.87,9.34c-9.32,4.29-18.95,8.72-38.43,9.98
										c-19.48,1.26-29.6-1.89-39.39-4.94c-9.58-2.98-18.64-5.8-36.77-4.63c-18.14,1.18-26.75,5.14-35.87,9.34
										c-9.32,4.29-18.95,8.72-38.43,9.98s-29.6-1.89-39.39-4.94c-9.58-2.98-18.64-5.8-36.77-4.63
										c-18.14,1.18-26.75,5.14-35.87,9.34c-9.32,4.29-18.95,8.72-38.42,9.98c-19.48,1.26-29.6-1.89-39.39-4.94
										c-9.58-2.98-18.64-5.8-36.77-4.63c-18.14,1.18-26.75,5.14-35.87,9.34c-9.32,4.29-18.95,8.72-38.43,9.98
										c-19.48,1.26-29.6-1.89-39.39-4.94c-9.58-2.98-18.64-5.8-36.77-4.63l-0.47-7.22c19.48-1.26,29.6,1.89,39.39,4.94
										c9.58,2.98,18.64,5.8,36.77,4.63s26.75-5.14,35.87-9.34c9.32-4.29,18.95-8.72,38.42-9.98c19.48-1.26,29.6,1.89,39.39,4.94
										c9.58,2.98,18.64,5.8,36.77,4.63c18.14-1.18,26.75-5.14,35.87-9.34c9.32-4.29,18.95-8.72,38.42-9.98
										c19.48-1.26,29.6,1.89,39.39,4.94c9.58,2.98,18.64,5.8,36.77,4.63c18.14-1.18,26.75-5.14,35.87-9.34
										c9.32-4.29,18.95-8.72,38.42-9.98c19.48-1.26,29.6,1.89,39.39,4.94c9.58,2.98,18.64,5.8,36.77,4.63
										c18.14-1.18,26.75-5.14,35.87-9.34c9.32-4.29,18.95-8.72,38.43-9.98c19.48-1.26,29.6,1.89,39.39,4.94
										c9.58,2.98,18.64,5.8,36.77,4.63c18.14-1.18,26.75-5.14,35.87-9.34c9.32-4.29,18.95-8.72,38.43-9.98
										c19.48-1.26,29.6,1.89,39.4,4.94c9.58,2.98,18.64,5.8,36.78,4.63L805.72-95.82z"/>
								</g>
							</g>
							<g>
								<g>
									<path class="st8" d="M803.38-131.93c-19.48,1.26-29.6-1.89-39.4-4.94c-9.58-2.98-18.64-5.8-36.78-4.63
										c-18.14,1.18-26.75,5.14-35.87,9.34c-9.32,4.29-18.95,8.72-38.43,9.98c-19.48,1.26-29.6-1.89-39.39-4.94
										c-9.58-2.98-18.64-5.8-36.78-4.63c-18.14,1.18-26.75,5.14-35.87,9.34c-9.32,4.29-18.95,8.72-38.43,9.98
										c-19.48,1.26-29.6-1.89-39.39-4.94c-9.58-2.98-18.64-5.8-36.77-4.63c-18.14,1.18-26.75,5.14-35.87,9.34
										c-9.32,4.29-18.95,8.72-38.43,9.98c-19.48,1.26-29.6-1.89-39.39-4.94c-9.58-2.98-18.64-5.8-36.77-4.63
										c-18.14,1.18-26.75,5.14-35.87,9.34c-9.32,4.29-18.95,8.72-38.42,9.98c-19.48,1.26-29.6-1.89-39.39-4.94
										c-9.58-2.98-18.64-5.8-36.77-4.63c-18.14,1.18-26.75,5.14-35.87,9.34c-9.32,4.29-18.95,8.72-38.43,9.98
										s-29.6-1.89-39.39-4.94c-9.58-2.98-18.64-5.8-36.77-4.63l-0.47-7.22c19.48-1.26,29.6,1.89,39.39,4.94
										c9.58,2.98,18.64,5.8,36.77,4.63s26.75-5.14,35.87-9.34c9.32-4.29,18.95-8.72,38.42-9.98c19.48-1.26,29.6,1.89,39.39,4.94
										c9.58,2.98,18.64,5.8,36.77,4.63c18.14-1.18,26.75-5.14,35.87-9.34c9.32-4.29,18.95-8.72,38.42-9.98
										c19.48-1.26,29.6,1.89,39.39,4.94c9.58,2.98,18.64,5.8,36.77,4.63c18.14-1.18,26.75-5.14,35.87-9.34
										c9.32-4.29,18.95-8.72,38.43-9.98c19.48-1.26,29.6,1.89,39.39,4.94c9.58,2.98,18.64,5.8,36.77,4.63
										c18.14-1.18,26.75-5.14,35.87-9.34c9.32-4.29,18.95-8.72,38.42-9.98c19.48-1.26,29.6,1.89,39.39,4.94
										c9.58,2.98,18.64,5.8,36.77,4.63c18.14-1.18,26.75-5.14,35.87-9.34c9.32-4.29,18.95-8.72,38.43-9.98
										c19.48-1.26,29.6,1.89,39.4,4.94c9.58,2.98,18.64,5.8,36.78,4.63L803.38-131.93z"/>
								</g>
							</g>
							<g>
								<g>
									<path class="st8" d="M801.04-168.04c-19.48,1.26-29.6-1.89-39.4-4.94c-9.58-2.98-18.64-5.8-36.78-4.63
										s-26.75,5.14-35.87,9.34c-9.32,4.29-18.95,8.72-38.43,9.98c-19.48,1.26-29.6-1.89-39.39-4.94
										c-9.58-2.98-18.64-5.8-36.78-4.63c-18.14,1.18-26.75,5.14-35.87,9.34c-9.32,4.29-18.95,8.72-38.43,9.98
										s-29.6-1.89-39.39-4.94c-9.58-2.98-18.64-5.8-36.77-4.63c-18.14,1.18-26.75,5.14-35.87,9.34
										c-9.32,4.29-18.95,8.72-38.43,9.98c-19.48,1.26-29.6-1.89-39.39-4.94c-9.58-2.98-18.64-5.8-36.77-4.63
										c-18.14,1.18-26.75,5.14-35.87,9.34c-9.32,4.29-18.95,8.72-38.42,9.98c-19.48,1.26-29.6-1.89-39.39-4.94
										c-9.58-2.98-18.64-5.8-36.77-4.63c-18.14,1.18-26.75,5.14-35.87,9.34c-9.32,4.29-18.95,8.72-38.43,9.98
										c-19.48,1.26-29.6-1.89-39.39-4.94c-9.58-2.98-18.64-5.8-36.77-4.63l-0.47-7.22c19.48-1.26,29.6,1.89,39.39,4.94
										c9.58,2.98,18.64,5.8,36.77,4.63S75-131.6,84.12-135.8c9.32-4.29,18.95-8.72,38.42-9.98c19.48-1.26,29.6,1.89,39.39,4.94
										c9.58,2.98,18.64,5.8,36.77,4.63c18.14-1.18,26.75-5.14,35.87-9.34c9.32-4.29,18.95-8.72,38.42-9.98
										c19.48-1.26,29.6,1.89,39.39,4.94c9.58,2.98,18.64,5.8,36.77,4.63c18.14-1.18,26.75-5.14,35.87-9.34
										c9.32-4.29,18.95-8.72,38.43-9.98c19.48-1.26,29.6,1.89,39.39,4.94c9.58,2.98,18.64,5.8,36.77,4.63
										c18.14-1.18,26.75-5.14,35.87-9.34c9.32-4.29,18.95-8.72,38.42-9.98c19.48-1.26,29.6,1.89,39.39,4.94
										c9.58,2.98,18.64,5.8,36.77,4.63c18.14-1.18,26.75-5.14,35.87-9.34c9.32-4.29,18.95-8.72,38.43-9.98
										c19.48-1.26,29.6,1.89,39.4,4.94c9.58,2.98,18.64,5.8,36.78,4.63L801.04-168.04z"/>
								</g>
							</g>
							<g>
								<g>
									<path class="st8" d="M798.69-204.14c-19.48,1.26-29.6-1.89-39.4-4.94c-9.58-2.98-18.64-5.8-36.78-4.63
										s-26.75,5.14-35.87,9.34c-9.32,4.29-18.95,8.72-38.43,9.98c-19.48,1.26-29.6-1.89-39.39-4.94
										c-9.58-2.98-18.64-5.8-36.78-4.63c-18.14,1.18-26.75,5.14-35.87,9.34c-9.32,4.29-18.95,8.72-38.43,9.98
										c-19.48,1.26-29.6-1.89-39.39-4.94c-9.58-2.98-18.64-5.8-36.77-4.63c-18.14,1.18-26.75,5.14-35.87,9.34
										c-9.32,4.29-18.95,8.72-38.43,9.98s-29.6-1.89-39.39-4.94c-9.58-2.98-18.64-5.8-36.77-4.63
										c-18.14,1.18-26.75,5.14-35.87,9.34c-9.32,4.29-18.95,8.72-38.42,9.98c-19.48,1.26-29.6-1.89-39.39-4.94
										c-9.58-2.98-18.64-5.8-36.77-4.63c-18.14,1.18-26.75,5.14-35.87,9.34c-9.32,4.29-18.95,8.72-38.43,9.98
										c-19.48,1.26-29.6-1.89-39.39-4.94c-9.58-2.98-18.64-5.8-36.77-4.63l-0.47-7.22c19.48-1.26,29.6,1.89,39.39,4.94
										c9.58,2.98,18.64,5.8,36.77,4.63s26.75-5.14,35.87-9.34c9.32-4.29,18.95-8.72,38.42-9.98c19.48-1.26,29.6,1.89,39.39,4.94
										c9.58,2.98,18.64,5.8,36.77,4.63c18.14-1.18,26.75-5.14,35.87-9.34c9.32-4.29,18.95-8.72,38.42-9.98
										c19.48-1.26,29.6,1.89,39.39,4.94c9.58,2.98,18.64,5.8,36.77,4.63c18.14-1.18,26.75-5.14,35.87-9.34
										c9.32-4.29,18.95-8.72,38.43-9.98c19.48-1.26,29.6,1.89,39.39,4.94c9.58,2.98,18.64,5.8,36.77,4.63
										c18.14-1.18,26.75-5.14,35.87-9.34c9.32-4.29,18.95-8.72,38.43-9.98c19.48-1.26,29.6,1.89,39.39,4.94
										c9.58,2.98,18.64,5.8,36.77,4.63c18.14-1.18,26.75-5.14,35.87-9.34c9.32-4.29,18.95-8.72,38.43-9.98
										c19.48-1.26,29.6,1.89,39.4,4.94c9.58,2.98,18.64,5.8,36.78,4.63L798.69-204.14z"/>
								</g>
							</g>
							<g>
								<g>
									<path class="st8" d="M796.35-240.25c-19.48,1.26-29.6-1.89-39.4-4.94c-9.58-2.98-18.64-5.8-36.78-4.63
										c-18.14,1.18-26.75,5.14-35.87,9.34c-9.32,4.29-18.95,8.72-38.43,9.98c-19.48,1.26-29.6-1.89-39.39-4.94
										c-9.58-2.98-18.64-5.8-36.78-4.63c-18.14,1.18-26.75,5.14-35.87,9.34c-9.32,4.29-18.95,8.72-38.43,9.98
										c-19.48,1.26-29.6-1.89-39.39-4.94c-9.58-2.98-18.64-5.8-36.77-4.63c-18.14,1.18-26.75,5.14-35.87,9.34
										c-9.32,4.29-18.95,8.72-38.43,9.98c-19.48,1.26-29.6-1.89-39.39-4.94c-9.58-2.98-18.64-5.8-36.77-4.63
										c-18.14,1.18-26.75,5.14-35.87,9.34c-9.32,4.29-18.95,8.72-38.42,9.98c-19.48,1.26-29.6-1.89-39.39-4.94
										c-9.58-2.98-18.64-5.8-36.77-4.63c-18.14,1.18-26.75,5.14-35.87,9.34c-9.32,4.29-18.95,8.72-38.43,9.98
										c-19.48,1.26-29.6-1.89-39.39-4.94c-9.58-2.98-18.64-5.8-36.77-4.63l-0.47-7.22c19.48-1.26,29.6,1.89,39.39,4.94
										c9.58,2.98,18.64,5.8,36.77,4.63c18.14-1.18,26.75-5.14,35.87-9.34c9.32-4.29,18.95-8.72,38.42-9.98
										c19.48-1.26,29.6,1.89,39.39,4.94c9.58,2.98,18.64,5.8,36.77,4.63c18.14-1.18,26.75-5.14,35.87-9.34
										c9.32-4.29,18.95-8.72,38.42-9.98c19.48-1.26,29.6,1.89,39.39,4.94c9.58,2.98,18.64,5.8,36.77,4.63
										c18.14-1.18,26.75-5.14,35.87-9.34c9.32-4.29,18.95-8.72,38.43-9.98c19.48-1.26,29.6,1.89,39.39,4.94
										c9.58,2.98,18.64,5.8,36.77,4.63c18.14-1.18,26.75-5.14,35.87-9.34c9.32-4.29,18.95-8.72,38.42-9.98
										c19.48-1.26,29.6,1.89,39.39,4.94c9.58,2.98,18.64,5.8,36.77,4.63c18.14-1.18,26.75-5.14,35.87-9.34
										c9.32-4.29,18.95-8.72,38.43-9.98c19.48-1.26,29.6,1.89,39.4,4.94c9.58,2.98,18.64,5.8,36.78,4.63L796.35-240.25z"/>
								</g>
							</g>
						</g>
					</g>
				</g>
			</g>
		</g>
		<polygon class="st3" points="322.13,88.59 331.24,219.4 198.56,228.64 		"/>
	</g>
</g>
<g id="vase-3">
	<g>
		<path class="st8" d="M667.63,554.73c0-6.4,2.06-12.23,5.43-16.6h30.32c3.37,4.37,5.43,10.2,5.43,16.6c0,8.19-3.37,15.45-8.55,19.9
			h-24.08C671,570.18,667.63,562.93,667.63,554.73z"/>
	</g>
</g>
<g id="Layer_56">
	<line class="st9" x1="602.26" y1="524.5" x2="602.26" y2="420.55"/>
</g>
<g id="Layer_55">
	<line class="st9" x1="688.22" y1="538.13" x2="688.22" y2="516.73"/>
</g>
<g id="Layer_54">
	<line class="st9" x1="566.9" y1="474.42" x2="586.51" y2="524.5"/>
</g>
<g id="Layer_53">
	<line class="st9" x1="615.76" y1="524.1" x2="637.3" y2="474.82"/>
</g>
<g id="Layer_51">
	<line class="st9" x1="183.11" y1="501.62" x2="183.11" y2="400.19"/>
</g>
<g id="Layer_50">
	<line class="st9" x1="217.61" y1="452.75" x2="198.47" y2="501.62"/>
</g>
<g id="Layer_49">
	<line class="st9" x1="168.4" y1="504.88" x2="147.38" y2="456.79"/>
</g>
<g id="Layer_48">
</g>
<g id="Layer_47">
	<g>
		<rect x="46.31" y="521.66" class="st8" width="51.84" height="51.84"/>
	</g>
</g>
<g id="Layer_46">
	<g>
		<rect x="729.4" y="541.43" class="st8" width="32.07" height="32.07"/>
	</g>
</g>
<g id="Layer_45">
	<rect x="300.89" y="541.34" class="st3" width="32.16" height="32.16"/>
</g>
<g id="Layer_43">
</g>
<g id="Layer_42">
</g>
<g id="Layer_41">
</g>
<g id="Layer_40">
</g>
<g id="Layer_39">
</g>
<g id="vase-2">
	<g>
		<g>
			<polygon class="st8" points="644.69,516 638.88,536.18 633.36,555.33 627.79,574.64 576.72,574.64 571.1,555.12 566.25,538.29
				559.83,516 			"/>
		</g>
		<circle class="st10" cx="605.37" cy="545.32" r="10.09"/>
		<path class="st3" d="M583.57,545.32c0,5.57-4.52,10.09-10.09,10.09c-0.82,0-1.62-0.1-2.38-0.29l-4.85-16.84
			c1.83-1.88,4.4-3.06,7.23-3.06C579.06,535.23,583.57,539.75,583.57,545.32z"/>
		<path class="st3" d="M638.88,536.18l-5.52,19.15c-4.99-0.61-8.85-4.86-8.85-10.01c0-5.57,4.52-10.09,10.09-10.09
			C636.13,535.23,637.58,535.57,638.88,536.18z"/>
	</g>
</g>
<g id="r-leg">
	<polygon class="st11" points="508.78,539.5 517.23,558.61 496.24,573.5 441.22,573.5 472.88,551.83 	"/>
</g>
<g id="l-leg">
	<polygon class="st11" points="415.76,539.5 424.21,563.68 403.22,573.5 348.2,573.5 379.86,551.83 	"/>
</g>
<g id="r-hand">
	<path class="st2" d="M474.95,153.73l-1.63-4.68c0,0-0.92-3.31-1.47-7.02c-0.55-3.7,0.91-8.67-3.66-14.19
		c-4.57-5.52,3.35-3.05,5.67-0.46c1.94,2.15,2.76,7.59,4.82,9.09c1.1-1.01,1.71-2.1,1.71-2.1l9.53-21.5
		c0.3-0.72,1.11-1.13,1.89-0.98l0.89,0.18c0.93,0.19,1.47,1.09,1.14,1.95c-1.73,4.65-7.29,18.4-7.02,18.45l0.5,0.33l12.26-21.42
		c0.37-0.7,1.23-1.05,2.01-0.81l1.2,0.37c0.88,0.27,1.3,1.18,0.93,1.99c-2.23,5-11.26,21.43-10.98,21.49l0.63,0.31l12.12-17.42
		c0.4-0.74,1.33-1.07,2.11-0.77l0.94,0.37c0.82,0.32,1.18,1.22,0.8,2l-11.23,17.24l0.61,0.51l10.55-12.1
		c0.46-0.66,1.35-0.91,2.09-0.59l0.44,0.2c0.78,0.35,1.11,1.23,0.73,2c-1.31,2.62-6.21,7.77-9.62,13.38
		c-2.65,4.36-3.51,8.03-7.47,13.19c-1.67,2.19-4.51,4.67-6.06,6.06"/>
</g>
<g id="arm">
	<polyline class="st8" points="399.69,229.44 446.98,202.73 466.16,148.37 497.26,157.33 474.07,228.38 412.31,265.83 	"/>
</g>
<g id="Layer_33">
</g>
<g id="l-hand">
	<path class="st2" d="M268.93,268.31l-2.33-4.54c0,0-1.8-3.05-4.14-6.12c-2.34-3.07-6.9-5.63-7.93-12.87
		c-1.03-7.23-4.4,0.17-4.04,3.68c0.3,2.93,3.72,7.45,3.46,9.99c-1.45,0.05-2.65-0.31-2.65-0.31l-21.85-8.81
		c-0.72-0.31-1.55-0.03-1.95,0.63l-0.45,0.76c-0.47,0.8-0.17,1.83,0.67,2.22c4.51,2.13,18.14,8.16,18,8.38l-0.09,0.59l-23.58-6.81
		c-0.75-0.24-1.57,0.11-1.9,0.83l-0.51,1.12c-0.38,0.81,0.01,1.77,0.84,2.1c5.09,2.04,22.94,7.54,22.8,7.78l-0.19,0.68l-20.59-4.02
		c-0.79-0.25-1.65,0.17-1.94,0.94l-0.34,0.93c-0.3,0.81,0.12,1.72,0.93,2.01l19.87,4.52l-0.03,0.8l-15.69-1.28
		c-0.78-0.16-1.54,0.3-1.79,1.05l-0.14,0.46c-0.26,0.81,0.17,1.68,0.98,1.96c2.76,0.97,9.7,1.23,16.01,2.87
		c4.9,1.28,8.13,3.32,14.47,4.26c2.68,0.4,6.34,0.19,8.36,0.09"/>
</g>
<g id="body">
	<path class="st8" d="M322.77,265.44c0,0,17.22-20.66,37.46-31.5C378.8,224,429.71,224,429.71,224l3.48,80.83l-73.11,1.56
		l-5.38-21.76l-15.55,13.07c-6.12,4.89-14.09,6.83-21.77,5.31l-56.33-11.16l5.52-33.61L322.77,265.44z"/>
</g>
<g id="shirt">
	<g>
		<defs>
			<path id="SVGID_25_" d="M474.07,228.38l-43.05,26.1l2.17,50.34l-73.11,1.56l-5.37-21.76l-15.55,13.07
				c-6.12,4.89-14.09,6.83-21.77,5.31l-56.33-11.16l5.52-33.61l56.21,7.21c0,0,17.22-20.66,37.46-31.5
				c10.55-5.65,31.53-8.09,47.68-9.15l39.07-22.07l19.18-54.35l31.1,8.95L474.07,228.38z"/>
		</defs>
		<clipPath id="SVGID_3_">
			<use xlink:href="#SVGID_25_"  style="overflow:visible;"/>
		</clipPath>
		<g id="shirt-pattern" class="st12">
			<polygon class="st13" points="324.25,239.47 291.87,239.47 308.06,264.26 			"/>
			<polygon class="st13" points="371.44,239.47 339.06,239.47 355.25,264.26 			"/>
			<polygon class="st13" points="418.63,239.47 386.25,239.47 402.44,264.26 			"/>
			<polygon class="st13" points="465.83,239.47 433.45,239.47 449.64,264.26 			"/>
			<polygon class="st13" points="301.76,274.56 269.38,274.56 285.57,299.35 			"/>
			<polygon class="st13" points="348.95,274.56 316.57,274.56 332.76,299.35 			"/>
			<polygon class="st13" points="396.15,274.56 363.77,274.56 379.96,299.35 			"/>
			<polygon class="st13" points="443.34,274.56 410.96,274.56 427.15,299.35 			"/>
			<polygon class="st13" points="396.55,201.67 364.17,201.67 380.36,226.46 			"/>
			<polygon class="st13" points="443.75,201.67 411.37,201.67 427.56,226.46 			"/>
			<polygon class="st13" points="490.94,201.67 458.56,201.67 474.75,226.46 			"/>
			<polygon class="st13" points="469.59,165.5 437.21,165.5 453.4,190.29 			"/>
			<polygon class="st13" points="495.48,134.18 463.1,134.18 479.29,158.97 			"/>
		</g>
	</g>
</g>
<g id="Layer_29">
</g>
<g id="Layer_28">
</g>
<g id="Layer_27">
</g>
<g id="Layer_26">
</g>
<g id="Layer_25">
</g>
<g id="Layer_24">
</g>
<g id="Layer_23">
	<path class="st14" d="M393.96,307.33"/>
</g>
<g id="Layer_22">
	<path class="st14" d="M397.98,327.52"/>
</g>
<g id="Layer_21">
	<path class="st14" d="M385.92,305.4"/>
</g>
<g id="Layer_20">
	<path class="st14" d="M389.93,325.59"/>
</g>
<g id="Layer_19">
	<path class="st14" d="M381.63,303.81"/>
</g>
<g id="Layer_18">
	<path class="st14" d="M385.65,324"/>
</g>
<g id="pants">
	<g>
		<g>
			<polygon class="st3" points="464.85,554.88 420.6,479.64 424.51,554.57 371.93,554.44 360.08,306.39 433.17,304.43
				448.02,413.89 514.41,537.76 			"/>
			<polyline class="st14" points="440.72,407.65 448.02,413.89 441.84,424.67 			"/>
		</g>
		<line class="st14" x1="422.5" y1="484.2" x2="411.98" y2="347.51"/>
	</g>
</g>
<g id="Layer_16">
</g>
<g id="Layer_15">
</g>
<g id="Layer_14">
</g>
<g id="Layer_13">
	<line class="st14" x1="431.85" y1="249.8" x2="432.47" y2="257.24"/>
</g>
<g id="Layer_12">
	<line class="st14" x1="353.78" y1="286.01" x2="363.49" y2="277.05"/>
</g>
<g id="head">
	<g>
		<g>
			<path class="st2" d="M392.72,237.83c-0.1,0-0.2,0-0.31,0c-6.89-0.17-12.34-5.88-12.17-12.77l1.11-46
				c0.17-6.89,5.89-12.34,12.77-12.17c6.89,0.17,12.34,5.88,12.17,12.77l-1.11,46C405.02,232.44,399.47,237.83,392.72,237.83z"/>
		</g>
		<path class="st2" d="M383.62,214.19l-2.43-0.34c-12.01-1.69-19.53-13.88-15.66-25.37l4.51-13.36c3-8.91,11.97-14.37,21.26-12.96
			l0,0c10.58,1.61,17.85,11.48,16.24,22.06l-2.08,13.7C403.87,208.41,394.13,215.67,383.62,214.19z"/>
		<polyline class="st2" points="369.66,177.54 361.95,188.07 365.8,189.23 		"/>
		<path class="st11" d="M398,197.51c-5.07-1.48,0.53-18.14,0.53-18.14l-6.7,3.34c-1.49,0.96-2.9-9.89-2.9-9.89
			s-20.12,1.72-17.88-15.5c1.29-9.91,9.24-1.92,14.56-1.19c8.35,1.15,15.21-2.17,24.76,6.69C421.81,173.43,411.58,201.48,398,197.51
			z"/>
		<polygon class="st11" points="380.21,213.55 387.49,213.92 380.01,219.39 		"/>
		<circle class="st11" cx="373.43" cy="178.68" r="1.99"/>
		<path class="st2" d="M391.52,191.74L391.52,191.74c-2.72-2.82-2.64-7.35,0.18-10.07l2.91-2.8c2.82-2.72,7.35-2.64,10.07,0.18l0,0
			c2.72,2.82,2.64,7.35-0.18,10.07l-2.91,2.8C398.77,194.64,394.24,194.56,391.52,191.74z"/>
		<line class="st9" x1="400.67" y1="185.34" x2="396.87" y2="188.5"/>
		<path class="st15" d="M379.02,194.74c0,0-4.14,4.68-10.97,2.58"/>
		<line class="st9" x1="374.69" y1="172.97" x2="377.67" y2="175.15"/>
	</g>
</g>
<g id="vase-1">
	<g>
		<g>
			<path class="st8" d="M134.56,528.36c0-14.52,4.67-27.74,12.32-37.65h68.76c7.65,9.91,12.32,23.13,12.32,37.65
				c0,18.58-7.65,35.03-19.4,45.13h-54.61C142.21,563.4,134.56,546.94,134.56,528.36z"/>
		</g>
		<path class="st10" d="M162,540.56L162,540.56c6.37,0,10.2-7.07,6.72-12.41l-2.26-3.46c-2.1-3.22-6.81-3.22-8.92,0l-2.26,3.46
			C151.8,533.49,155.63,540.56,162,540.56z"/>
		<path class="st10" d="M200.53,540.56L200.53,540.56c6.37,0,10.2-7.07,6.72-12.41l-2.26-3.46c-2.1-3.22-6.81-3.22-8.92,0
			l-2.26,3.46C190.32,533.49,194.15,540.56,200.53,540.56z"/>
		<path class="st16" d="M159.98,551.64c0,0,21.99,20.15,42.14,0"/>
	</g>
</g>
<g class="flower">
	<circle class="flower_x5F_1" class="st4" cx="141.81" cy="444.06" r="11.47"/>
</g>
<g class="flower">
	<rect x="168.4" y="368.14" class="st8" width="29.41" height="29.41"/>
</g>
<g class="flower">
	<polygon class="st3" points="230.98,455.93 205.56,445.47 226.28,431.24 	"/>
</g>
<g class="flower">
	<polygon class="st4" points="557.59,476.92 576.66,469.08 561.12,458.4 	"/>
</g>
<g class="flower">
	<circle class="st4" cx="602.26" cy="407.16" r="12.35"/>
</g>
<g class="flower">
	<rect x="631.87" y="457.44" transform="matrix(0.4005 -0.9163 0.9163 0.4005 -43.237 866.9341)" class="st2" width="18.13" height="18.13"/>
</g>
<g class="flower">
	<circle class="st4" cx="688.22" cy="507.19" r="7.94"/>
</g>
</svg>
