<?xml version="1.0" encoding="utf-8"?>
<!-- Generator: Adobe Illustrator 23.0.4, SVG Export Plug-In . SVG Version: 6.00 Build 0)  -->
<svg version="1.1" id="Layer_1" xmlns="http://www.w3.org/2000/svg" xmlns:xlink="http://www.w3.org/1999/xlink" x="0px" y="0px"
	 viewBox="0 0 800 600" style="enable-background:new 0 0 800 600;" xml:space="preserve">
<style type="text/css">
	.st0{fill:#F3F3F3;}
	.st1{opacity:0.12;fill:#7C8A9F;enable-background:new    ;}
	.st2{fill:#E45C2C;}
	.st3{fill:#B1BFD5;}
	.st4{fill:#FFFFFF;}
	.st5{fill:#FFDBDB;}
	.st6{fill:#242424;}
	.st7{fill:none;stroke:#1D2023;stroke-width:2.1026;stroke-linecap:round;stroke-linejoin:round;stroke-miterlimit:10;}
	.st8{fill:#2BA4E4;}
	.st9{clip-path:url(#SVGID_2_);}
	.st10{fill:none;stroke:#FFFFFF;stroke-width:2.1026;stroke-linecap:round;stroke-linejoin:round;stroke-miterlimit:10;}
	.st11{fill:none;stroke:#1D2023;stroke-width:2.085;stroke-linecap:round;stroke-linejoin:round;stroke-miterlimit:10;}
	.st12{fill:none;stroke:#B1BFD5;stroke-width:3;stroke-linecap:round;stroke-linejoin:round;stroke-miterlimit:10;}
	.st13{fill:#DBE1E4;}
</style>
<g id="Background">
	<rect class="st0" width="800" height="600"/>
</g>
<g id="Layer_61">
	<ellipse class="st1" cx="400" cy="574" rx="382" ry="11.5"/>
</g>
<g id="Layer_60">
	<circle class="st2" cx="720.7" cy="550.2" r="24.5"/>
</g>
<g id="Layer_59">
	<polygon class="st3" points="232.4,573.6 274.4,573.6 253.4,541.5 	"/>
</g>
<g id="poster">
	<g>
		
			<rect x="190.7" y="27.9" transform="matrix(2.866522e-03 -1 1 2.866522e-03 178.2614 565.5431)" class="st4" width="364" height="331"/>
		
			<rect x="260.6" y="92.9" transform="matrix(2.866522e-03 -1 1 2.866522e-03 133.1279 610.2854)" class="st5" width="224" height="291"/>
		<g>
			<path class="st6" d="M231.5,54.4c1.3,1.9,3.7,3.1,6.3,3.1c2.3,0,3.4-0.6,3.4-1.8c0-0.7-0.4-1.2-1.4-1.6c-0.5-0.2-1-0.4-1.5-0.5
				c-1-0.3-2.8-0.8-4-1.3c-3.9-1.5-5.9-3.9-5.9-7.3c0-2.4,0.9-4.3,2.7-5.6c1.8-1.3,3.9-2,6.4-2c4.2,0,7.3,1.3,9.4,4l-4.6,3.9
				c-1.1-1.3-2.7-2-4.6-2c-1.8,0-2.8,0.7-2.8,1.6c0,0.7,0.3,1.1,1,1.5c0.4,0.2,0.8,0.3,1.3,0.4c0.9,0.2,2.9,0.8,4.5,1.3
				c4.4,1.6,6.2,3.9,6.2,7.3c0,4.9-3.4,8-10.1,8c-2.8,0-5.2-0.5-7-1.6c-1.8-1.1-3.2-2.3-4.2-3.8L231.5,54.4z"/>
			<path class="st6" d="M250.8,63.2V37.8h6.9v25.4H250.8z"/>
			<path class="st6" d="M267,63.2V44.1h-6.8v-6.3h20.5v6.3h-6.7v19.1H267z"/>
			<path class="st6" d="M282.8,63.2V37.8h18.7V44h-11.8v3.5h11v5.7h-11v3.9h12.1v6.1H282.8z"/>
			<path class="st6" d="M319.3,37.8h6.9v13.7c0,4.2,1.6,5.8,4.5,5.8s4.5-1.6,4.5-5.8V37.8h6.9v14.5c0,3.7-1.1,6.5-3.2,8.4
				c-2.1,1.9-4.9,2.9-8.2,2.9s-6-0.9-8.2-2.9c-2.1-1.9-3.2-4.7-3.2-8.4V37.8z"/>
			<path class="st6" d="M345.9,63.2V37.8h6.2l10.6,13.6V37.8h6.6v25.4h-5.6L352.5,49v14.2H345.9z"/>
			<path class="st6" d="M373.5,63.2V37.8h10.3c4.4,0,7.8,1.2,10.1,3.5c2.4,2.4,3.5,5.4,3.5,9.2c0,3.9-1.2,6.9-3.5,9.2
				c-2.3,2.3-5.7,3.4-10.1,3.4H373.5z M380.4,56.9h3c2.9,0,4.9-0.7,5.8-1.9c1-1.3,1.2-2.5,1.2-4.4c0-1.9-0.3-3.1-1.2-4.3
				c-1-1.2-2.9-1.9-5.9-1.9h-2.9V56.9z"/>
			<path class="st6" d="M400.6,63.2V37.8h18.7V44h-11.8v3.5h11v5.7h-11v3.9h12.1v6.1H400.6z"/>
			<path class="st6" d="M423.1,63.2V37.8h11.5c2.5,0,4.7,0.8,6.4,2.5c1.8,1.7,2.7,3.7,2.7,6.2c0,3.2-1.7,6-4.3,7.2l6.3,9.4h-7.9
				l-5.2-7.9h-0.1H430v7.9H423.1z M430,49.7h3.9c1.9,0,3-1.1,3-3c0-1.6-1.1-2.7-2.4-2.7H430V49.7z"/>
			<path class="st6" d="M252.4,86.1l-4.7,3.9c-1.6-1.8-3.5-2.7-5.8-2.7c-1.9,0-3.6,0.7-4.9,2c-1.3,1.3-2,2.9-2,4.9s0.7,3.6,2,4.9
				c1.3,1.3,3,1.9,4.9,1.9c2.3,0,4.2-0.9,5.8-2.7l4.7,3.9c-2.6,3.1-6.4,5-10.5,5c-3.9,0-7.1-1.2-9.8-3.7c-2.7-2.5-4-5.6-4-9.3
				s1.3-6.8,4-9.3c2.7-2.5,6-3.7,9.8-3.7C246,81.1,249.8,83,252.4,86.1z"/>
			<path class="st6" d="M277.5,103.5c-2.7,2.5-6,3.8-9.9,3.8c-3.9,0-7.2-1.3-9.9-3.8c-2.7-2.6-4.1-5.7-4.1-9.3s1.3-6.7,4.1-9.3
				c2.7-2.6,6-3.9,9.9-3.9c3.9,0,7.2,1.3,9.9,3.9c2.7,2.5,4.1,5.6,4.1,9.3C281.6,97.9,280.2,101,277.5,103.5z M262.7,99.2
				c1.3,1.3,3,2,4.9,2c1.9,0,3.5-0.7,4.9-2c1.4-1.4,2.1-3,2.1-4.9s-0.7-3.5-2.1-4.9c-1.3-1.4-3-2.1-4.9-2.1c-1.9,0-3.5,0.7-4.9,2.1
				c-1.3,1.3-2,3-2,4.9C260.7,96.2,261.3,97.8,262.7,99.2z"/>
			<path class="st6" d="M284.8,106.9V81.5h6.2l10.6,13.6V81.5h6.6v25.4h-5.6l-11.2-14.2v14.2H284.8z"/>
			<path class="st6" d="M314.9,98.1c1.3,1.9,3.7,3.1,6.3,3.1c2.3,0,3.4-0.6,3.4-1.8c0-0.7-0.4-1.2-1.4-1.6c-0.5-0.2-1-0.4-1.5-0.5
				c-1-0.3-2.8-0.8-4-1.3c-3.9-1.5-5.9-3.9-5.9-7.3c0-2.4,0.9-4.3,2.7-5.6c1.8-1.3,3.9-2,6.4-2c4.2,0,7.3,1.3,9.4,4l-4.6,3.9
				c-1.1-1.3-2.7-2-4.6-2c-1.8,0-2.8,0.7-2.8,1.6c0,0.7,0.3,1.1,1,1.5c0.4,0.2,0.8,0.3,1.3,0.4c0.9,0.2,2.9,0.8,4.5,1.3
				c4.4,1.6,6.2,3.9,6.2,7.3c0,4.9-3.4,8-10.1,8c-2.8,0-5.2-0.5-7-1.6c-1.8-1.1-3.2-2.3-4.2-3.8L314.9,98.1z"/>
			<path class="st6" d="M338.5,106.9V87.7h-6.8v-6.3h20.5v6.3h-6.7v19.1H338.5z"/>
			<path class="st6" d="M354.4,106.9V81.5H366c2.5,0,4.7,0.8,6.4,2.5c1.8,1.7,2.7,3.7,2.7,6.2c0,3.2-1.7,6-4.3,7.2l6.3,9.4h-7.9
				L364,99h-0.1h-2.5v7.9H354.4z M361.3,93.4h3.9c1.9,0,3-1.1,3-3c0-1.6-1.1-2.7-2.4-2.7h-4.4V93.4z"/>
			<path class="st6" d="M378.7,81.5h6.9v13.7c0,4.2,1.6,5.8,4.5,5.8s4.5-1.6,4.5-5.8V81.5h6.9v14.5c0,3.7-1.1,6.5-3.2,8.4
				c-2.1,1.9-4.9,2.9-8.2,2.9s-6-0.9-8.2-2.9c-2.1-1.9-3.2-4.7-3.2-8.4V81.5z"/>
			<path class="st6" d="M428.7,86.1L424,90c-1.6-1.8-3.5-2.7-5.8-2.7c-1.9,0-3.6,0.7-4.9,2c-1.3,1.3-2,2.9-2,4.9s0.7,3.6,2,4.9
				c1.3,1.3,3,1.9,4.9,1.9c2.3,0,4.2-0.9,5.8-2.7l4.7,3.9c-2.6,3.1-6.4,5-10.5,5c-3.9,0-7.1-1.2-9.8-3.7c-2.7-2.5-4-5.6-4-9.3
				s1.3-6.8,4-9.3c2.7-2.5,6-3.7,9.8-3.7C422.3,81.1,426.1,83,428.7,86.1z"/>
			<path class="st6" d="M436.4,106.9V87.7h-6.8v-6.3H450v6.3h-6.7v19.1H436.4z"/>
			<path class="st6" d="M452.4,106.9V81.5h6.9v25.4H452.4z"/>
			<path class="st6" d="M486.5,103.5c-2.7,2.5-6,3.8-9.9,3.8c-3.9,0-7.2-1.3-9.9-3.8c-2.7-2.6-4.1-5.7-4.1-9.3s1.3-6.7,4.1-9.3
				c2.7-2.6,6-3.9,9.9-3.9c3.9,0,7.2,1.3,9.9,3.9c2.7,2.5,4.1,5.6,4.1,9.3C490.6,97.9,489.2,101,486.5,103.5z M471.7,99.2
				c1.3,1.3,3,2,4.9,2c1.9,0,3.5-0.7,4.9-2c1.4-1.4,2.1-3,2.1-4.9s-0.7-3.5-2.1-4.9c-1.3-1.4-3-2.1-4.9-2.1c-1.9,0-3.5,0.7-4.9,2.1
				c-1.3,1.3-2,3-2,4.9C469.7,96.2,470.3,97.8,471.7,99.2z"/>
			<path class="st6" d="M493.8,106.9V81.5h6.2l10.6,13.6V81.5h6.6v25.4h-5.6l-11.2-14.2v14.2H493.8z"/>
		</g>
	</g>
</g>
<g id="vase-3">
	<g>
		<path class="st4" d="M667.6,554.7c0-6.4,2.1-12.2,5.4-16.6h30.3c3.4,4.4,5.4,10.2,5.4,16.6c0,8.2-3.4,15.5-8.5,19.9h-24.1
			C671,570.2,667.6,562.9,667.6,554.7z"/>
	</g>
</g>
<g id="Layer_56">
	<line class="st7" x1="602.3" y1="524.5" x2="602.3" y2="420.5"/>
</g>
<g id="Layer_55">
	<line class="st7" x1="688.2" y1="538.1" x2="688.2" y2="516.7"/>
</g>
<g id="Layer_54">
	<line class="st7" x1="566.9" y1="474.4" x2="586.5" y2="524.5"/>
</g>
<g id="Layer_53">
	<line class="st7" x1="615.8" y1="524.1" x2="637.3" y2="474.8"/>
</g>
<g id="Layer_51">
	<line class="st7" x1="183.1" y1="501.6" x2="183.1" y2="400.2"/>
</g>
<g id="Layer_50">
	<line class="st7" x1="217.6" y1="452.8" x2="198.5" y2="501.6"/>
</g>
<g id="Layer_49">
	<line class="st7" x1="168.4" y1="504.9" x2="147.4" y2="456.8"/>
</g>
<g id="Layer_48">
</g>
<g id="Layer_47">
	<g>
		<rect x="46.3" y="521.7" class="st4" width="51.8" height="51.8"/>
	</g>
</g>
<g id="Layer_46">
	<g>
		<rect x="729.4" y="541.4" class="st4" width="32.1" height="32.1"/>
	</g>
</g>
<g id="Layer_45">
	<rect x="300.9" y="541.3" class="st3" width="32.2" height="32.2"/>
</g>
<g id="Layer_43">
</g>
<g id="Layer_42">
</g>
<g id="Layer_41">
</g>
<g id="Layer_40">
</g>
<g id="Layer_39">
</g>
<g id="vase-2">
	<g>
		<g>
			<polygon class="st4" points="644.7,516 638.9,536.2 633.4,555.3 627.8,574.6 576.7,574.6 571.1,555.1 566.2,538.3 559.8,516 			
				"/>
		</g>
		<circle class="st8" cx="605.4" cy="545.3" r="10.1"/>
		<path class="st3" d="M583.6,545.3c0,5.6-4.5,10.1-10.1,10.1c-0.8,0-1.6-0.1-2.4-0.3l-4.8-16.8c1.8-1.9,4.4-3.1,7.2-3.1
			C579.1,535.2,583.6,539.8,583.6,545.3z"/>
		<path class="st3" d="M638.9,536.2l-5.5,19.2c-5-0.6-8.8-4.9-8.8-10c0-5.6,4.5-10.1,10.1-10.1C636.1,535.2,637.6,535.6,638.9,536.2
			z"/>
	</g>
</g>
<g id="r-leg">
	<polygon class="st6" points="508.8,539.5 517.2,558.6 496.2,573.5 441.2,573.5 472.9,551.8 	"/>
</g>
<g id="l-leg">
	<polygon class="st6" points="415.8,539.5 424.2,563.7 403.2,573.5 348.2,573.5 379.9,551.8 	"/>
</g>
<g id="r-hand">
	<path class="st2" d="M475,153.7l-1.6-4.7c0,0-0.9-3.3-1.5-7c-0.5-3.7,0.9-8.7-3.7-14.2c-4.6-5.5,3.4-3.1,5.7-0.5
		c1.9,2.2,2.8,7.6,4.8,9.1c1.1-1,1.7-2.1,1.7-2.1l9.5-21.5c0.3-0.7,1.1-1.1,1.9-1l0.9,0.2c0.9,0.2,1.5,1.1,1.1,1.9
		c-1.7,4.7-7.3,18.4-7,18.4l0.5,0.3l12.3-21.4c0.4-0.7,1.2-1.1,2-0.8l1.2,0.4c0.9,0.3,1.3,1.2,0.9,2c-2.2,5-11.3,21.4-11,21.5
		l0.6,0.3l12.1-17.4c0.4-0.7,1.3-1.1,2.1-0.8l0.9,0.4c0.8,0.3,1.2,1.2,0.8,2l-11.2,17.2l0.6,0.5l10.5-12.1c0.5-0.7,1.4-0.9,2.1-0.6
		l0.4,0.2c0.8,0.3,1.1,1.2,0.7,2c-1.3,2.6-6.2,7.8-9.6,13.4c-2.6,4.4-3.5,8-7.5,13.2c-1.7,2.2-4.5,4.7-6.1,6.1"/>
</g>
<g id="arm">
	<polyline class="st4" points="399.7,229.4 447,202.7 466.2,148.4 497.3,157.3 474.1,228.4 412.3,265.8 	"/>
</g>
<g id="Layer_33">
</g>
<g id="l-hand">
	<path class="st2" d="M268.9,268.3l-2.3-4.5c0,0-1.8-3-4.1-6.1c-2.3-3.1-6.9-5.6-7.9-12.9c-1-7.2-4.4,0.2-4,3.7
		c0.3,2.9,3.7,7.4,3.5,10c-1.4,0-2.6-0.3-2.6-0.3l-21.9-8.8c-0.7-0.3-1.6,0-1.9,0.6l-0.4,0.8c-0.5,0.8-0.2,1.8,0.7,2.2
		c4.5,2.1,18.1,8.2,18,8.4l-0.1,0.6l-23.6-6.8c-0.8-0.2-1.6,0.1-1.9,0.8l-0.5,1.1c-0.4,0.8,0,1.8,0.8,2.1c5.1,2,22.9,7.5,22.8,7.8
		l-0.2,0.7l-20.6-4c-0.8-0.2-1.6,0.2-1.9,0.9l-0.3,0.9c-0.3,0.8,0.1,1.7,0.9,2L241,272l0,0.8l-15.7-1.3c-0.8-0.2-1.5,0.3-1.8,1
		l-0.1,0.5c-0.3,0.8,0.2,1.7,1,2c2.8,1,9.7,1.2,16,2.9c4.9,1.3,8.1,3.3,14.5,4.3c2.7,0.4,6.3,0.2,8.4,0.1"/>
</g>
<g id="body">
	<path class="st4" d="M322.8,265.4c0,0,17.2-20.7,37.5-31.5c18.6-9.9,69.5-9.9,69.5-9.9l3.5,80.8l-73.1,1.6l-5.4-21.8l-15.5,13.1
		c-6.1,4.9-14.1,6.8-21.8,5.3l-56.3-11.2l5.5-33.6L322.8,265.4z"/>
</g>
<g id="shirt">
	<g>
		<g>
			<defs>
				<path id="SVGID_1_" d="M474.1,228.4l-43,26.1l2.2,50.3l-73.1,1.6l-5.4-21.8l-15.5,13.1c-6.1,4.9-14.1,6.8-21.8,5.3l-56.3-11.2
					l5.5-33.6l56.2,7.2c0,0,17.2-20.7,37.5-31.5c10.5-5.6,31.5-8.1,47.7-9.1l39.1-22.1l19.2-54.4l31.1,8.9L474.1,228.4z"/>
			</defs>
			<clipPath id="SVGID_2_">
				<use xlink:href="#SVGID_1_"  style="overflow:visible;"/>
			</clipPath>
			<g id="shirt-pattern" class="st9">
				<polygon class="st6" points="324.2,239.5 291.9,239.5 308.1,264.3 				"/>
				<polygon class="st6" points="371.4,239.5 339.1,239.5 355.2,264.3 				"/>
				<polygon class="st6" points="418.6,239.5 386.2,239.5 402.4,264.3 				"/>
				<polygon class="st6" points="465.8,239.5 433.5,239.5 449.6,264.3 				"/>
				<polygon class="st6" points="301.8,274.6 269.4,274.6 285.6,299.4 				"/>
				<polygon class="st6" points="349,274.6 316.6,274.6 332.8,299.4 				"/>
				<polygon class="st6" points="396.1,274.6 363.8,274.6 380,299.4 				"/>
				<polygon class="st6" points="443.3,274.6 411,274.6 427.1,299.4 				"/>
				<polygon class="st6" points="396.5,201.7 364.2,201.7 380.4,226.5 				"/>
				<polygon class="st6" points="443.8,201.7 411.4,201.7 427.6,226.5 				"/>
				<polygon class="st6" points="490.9,201.7 458.6,201.7 474.8,226.5 				"/>
				<polygon class="st6" points="469.6,165.5 437.2,165.5 453.4,190.3 				"/>
				<polygon class="st6" points="495.5,134.2 463.1,134.2 479.3,159 				"/>
			</g>
		</g>
	</g>
</g>
<g id="Layer_29">
</g>
<g id="Layer_28">
</g>
<g id="Layer_27">
</g>
<g id="Layer_26">
</g>
<g id="Layer_25">
</g>
<g id="Layer_24">
</g>
<g id="Layer_23">
</g>
<g id="Layer_22">
</g>
<g id="Layer_21">
</g>
<g id="Layer_20">
</g>
<g id="Layer_19">
</g>
<g id="Layer_18">
</g>
<g id="pants">
	<g>
		<g>
			<polygon class="st3" points="464.9,554.9 420.6,479.6 424.5,554.6 371.9,554.4 360.1,306.4 433.2,304.4 448,413.9 514.4,537.8 
							"/>
			<polyline class="st10" points="440.7,407.6 448,413.9 441.8,424.7 			"/>
		</g>
		<line class="st10" x1="422.5" y1="484.2" x2="412" y2="347.5"/>
	</g>
</g>
<g id="Layer_16">
</g>
<g id="Layer_15">
</g>
<g id="Layer_14">
</g>
<g id="Layer_13">
</g>
<g id="Layer_12">
	<line class="st10" x1="353.8" y1="286" x2="363.5" y2="277"/>
</g>
<g id="head">
	<g>
		<g>
			<path class="st2" d="M392.7,237.8c-0.1,0-0.2,0-0.3,0c-6.9-0.2-12.3-5.9-12.2-12.8l1.1-46c0.2-6.9,5.9-12.3,12.8-12.2
				c6.9,0.2,12.3,5.9,12.2,12.8l-1.1,46C405,232.4,399.5,237.8,392.7,237.8z"/>
		</g>
		<path class="st2" d="M383.6,214.2l-2.4-0.3c-12-1.7-19.5-13.9-15.7-25.4l4.5-13.4c3-8.9,12-14.4,21.3-13l0,0
			c10.6,1.6,17.9,11.5,16.2,22.1l-2.1,13.7C403.9,208.4,394.1,215.7,383.6,214.2z"/>
		<polyline class="st2" points="369.7,177.5 362,188.1 365.8,189.2 		"/>
		<path class="st6" d="M398,197.5c-5.1-1.5,0.5-18.1,0.5-18.1l-6.7,3.3c-1.5,1-2.9-9.9-2.9-9.9s-20.1,1.7-17.9-15.5
			c1.3-9.9,9.2-1.9,14.6-1.2c8.4,1.1,15.2-2.2,24.8,6.7C421.8,173.4,411.6,201.5,398,197.5z"/>
		<polygon class="st6" points="380.2,213.6 387.5,213.9 380,219.4 		"/>
		<circle class="st6" cx="373.4" cy="178.7" r="2"/>
		<path class="st2" d="M391.5,191.7L391.5,191.7c-2.7-2.8-2.6-7.4,0.2-10.1l2.9-2.8c2.8-2.7,7.4-2.6,10.1,0.2l0,0
			c2.7,2.8,2.6,7.4-0.2,10.1l-2.9,2.8C398.8,194.6,394.2,194.6,391.5,191.7z"/>
		<line class="st7" x1="400.7" y1="185.3" x2="396.9" y2="188.5"/>
		<path class="st11" d="M379,194.7c0,0-4.1,4.7-11,2.6"/>
		<line class="st7" x1="374.7" y1="173" x2="377.7" y2="175.1"/>
	</g>
</g>
<g id="vase-1">
	<g>
		<g>
			<path class="st4" d="M134.6,528.4c0-14.5,4.7-27.7,12.3-37.6h68.8c7.6,9.9,12.3,23.1,12.3,37.6c0,18.6-7.6,35-19.4,45.1H154
				C142.2,563.4,134.6,546.9,134.6,528.4z"/>
		</g>
		<path class="st8" d="M162,540.6L162,540.6c6.4,0,10.2-7.1,6.7-12.4l-2.3-3.5c-2.1-3.2-6.8-3.2-8.9,0l-2.3,3.5
			C151.8,533.5,155.6,540.6,162,540.6z"/>
		<path class="st8" d="M200.5,540.6L200.5,540.6c6.4,0,10.2-7.1,6.7-12.4l-2.3-3.5c-2.1-3.2-6.8-3.2-8.9,0l-2.3,3.5
			C190.3,533.5,194.1,540.6,200.5,540.6z"/>
		<path class="st12" d="M160,551.6c0,0,22,20.2,42.1,0"/>
	</g>
</g>
<g id="flower">
	<circle id="flower_x5F_1" class="st13" cx="141.8" cy="444.1" r="11.5"/>
</g>
<g id="flower_1_">
	<rect x="168.4" y="368.1" class="st4" width="29.4" height="29.4"/>
</g>
<g id="flower_2_">
	<polygon class="st3" points="231,455.9 205.6,445.5 226.3,431.2 	"/>
</g>
<g id="flower_3_">
	<polygon class="st13" points="557.6,476.9 576.7,469.1 561.1,458.4 	"/>
</g>
<g id="flower_4_">
	<circle class="st13" cx="602.3" cy="407.2" r="12.3"/>
</g>
<g id="flower_5_">
	
		<rect x="631.9" y="457.4" transform="matrix(0.4005 -0.9163 0.9163 0.4005 -43.205 866.9252)" class="st2" width="18.1" height="18.1"/>
</g>
<g id="flower_6_">
	<circle class="st13" cx="688.2" cy="507.2" r="7.9"/>
</g>
</svg>
