<svg viewBox="0 0 800 600" style="enable-background:new 0 0 800 600;" xmlns="http://www.w3.org/2000/svg"
    xmlns:xlink="http://www.w3.org/1999/xlink">
    <g id="Background">
        <rect style="fill:#F3F3F3;" width="800" height="600" />
    </g>
    <g id="Layer_61">
        <ellipse style="opacity:0.12;fill:#7C8A9F;" cx="400" cy="573.96" rx="382" ry="11.46" />
    </g>
    <g id="Layer_60">
        <circle style="fill:#E45C2C;" cx="720.65" cy="550.16" r="24.48" />
    </g>
    <g id="Layer_59">
        <polygon style="fill:#B1BFD5;" points="232.35,573.62 274.36,573.62 253.36,541.46 	" />
    </g>

    <g class="poster">
        <g>

            <rect x="190.71" y="27.88" transform="matrix(2.866522e-03 -1 1 2.866522e-03 178.2614 565.5431)"
                style="fill:#FFFFFF;" width="364.01" height="331.01" />

            <rect x="260.58" y="92.88" transform="matrix(2.866522e-03 -1 1 2.866522e-03 133.1279 610.2854)"
                style="fill:#FFDBDB;" width="224.01" height="291.01" />
            <g>
                <path style="fill:#242424;" d="M231.54,54.4c1.35,1.86,3.68,3.13,6.33,3.13c2.26,0,3.39-0.62,3.39-1.82
     c0-0.69-0.44-1.16-1.42-1.57c-0.47-0.18-0.98-0.36-1.49-0.51c-0.98-0.29-2.8-0.84-4.01-1.27c-3.9-1.46-5.86-3.9-5.86-7.32
     c0-2.4,0.87-4.26,2.66-5.61c1.78-1.35,3.93-2,6.44-2c4.19,0,7.32,1.35,9.39,4.04l-4.55,3.9c-1.13-1.35-2.66-2-4.59-2
     c-1.78,0-2.77,0.66-2.77,1.57c0,0.73,0.25,1.13,1.02,1.46c0.4,0.18,0.84,0.33,1.27,0.44c0.87,0.18,2.88,0.76,4.48,1.35
     c4.37,1.57,6.15,3.86,6.15,7.32c0,4.91-3.39,8.05-10.12,8.05c-2.84,0-5.17-0.51-7.03-1.57c-1.82-1.06-3.2-2.33-4.19-3.82
     L231.54,54.4z" />
                <path style="fill:#242424;" d="M250.79,63.17V37.8h6.92v25.38H250.79z" />
                <path style="fill:#242424;" d="M266.95,63.17V44.06h-6.84V37.8h20.46v6.26h-6.7v19.11H266.95z" />
                <path style="fill:#242424;"
                    d="M282.82,63.17V37.8h18.71v6.23h-11.8v3.49h10.99v5.68h-10.99v3.86h12.09v6.12H282.82z" />
                <path style="fill:#242424;"
                    d="M319.26,37.8h6.92v13.73c0,4.19,1.6,5.75,4.48,5.75s4.48-1.57,4.48-5.75V37.8h6.92v14.45
     c0,3.68-1.09,6.48-3.24,8.41c-2.15,1.93-4.88,2.88-8.15,2.88s-6.01-0.95-8.15-2.88c-2.15-1.93-3.24-4.73-3.24-8.41V37.8z" />
                <path style="fill:#242424;"
                    d="M345.9,63.17V37.8h6.19l10.63,13.62V37.8h6.63v25.38h-5.64l-11.18-14.16v14.16H345.9z" />
                <path style="fill:#242424;" d="M373.49,63.17V37.8h10.3c4.41,0,7.75,1.16,10.08,3.53c2.37,2.37,3.53,5.42,3.53,9.21
     c0,3.86-1.16,6.92-3.49,9.21c-2.29,2.29-5.68,3.42-10.08,3.42H373.49z M380.41,56.91h2.99c2.91,0,4.91-0.65,5.82-1.93
     c0.98-1.27,1.24-2.55,1.24-4.44c0-1.86-0.25-3.13-1.24-4.33c-0.98-1.2-2.91-1.86-5.86-1.86h-2.95V56.91z" />
                <path style="fill:#242424;"
                    d="M400.57,63.17V37.8h18.71v6.23h-11.8v3.49h10.99v5.68h-10.99v3.86h12.09v6.12H400.57z" />
                <path style="fill:#242424;" d="M423.1,63.17V37.8h11.54c2.51,0,4.66,0.84,6.44,2.55c1.78,1.71,2.66,3.75,2.66,6.19
     c0,3.24-1.71,6.04-4.33,7.24l6.34,9.39h-7.94l-5.17-7.9h-0.07h-2.55v7.9H423.1z M430.02,49.74h3.86c1.86,0,2.98-1.09,2.98-2.99
     c0-1.6-1.06-2.69-2.4-2.69h-4.44V49.74z" />
                <path style="fill:#242424;" d="M252.4,86.06L247.7,90c-1.6-1.78-3.53-2.69-5.82-2.69c-1.93,0-3.57,0.66-4.91,1.97
     c-1.35,1.31-2,2.95-2,4.91s0.65,3.6,2,4.91c1.35,1.27,2.99,1.93,4.91,1.93c2.29,0,4.22-0.91,5.82-2.69l4.7,3.93
     c-2.62,3.09-6.41,4.95-10.52,4.95c-3.86,0-7.14-1.24-9.83-3.71c-2.66-2.48-4.01-5.57-4.01-9.32s1.35-6.84,4.01-9.32
     c2.69-2.51,5.97-3.75,9.83-3.75C245.99,81.11,249.78,82.97,252.4,86.06z" />
                <path style="fill:#242424;" d="M277.48,103.54c-2.73,2.55-6.01,3.82-9.9,3.82c-3.9,0-7.17-1.27-9.9-3.82
     c-2.73-2.59-4.08-5.68-4.08-9.28s1.35-6.7,4.08-9.28c2.73-2.58,6.01-3.86,9.9-3.86c3.9,0,7.17,1.27,9.9,3.86
     c2.73,2.55,4.11,5.64,4.11,9.28C281.59,97.86,280.21,100.95,277.48,103.54z M262.66,99.17c1.35,1.35,2.99,2,4.91,2
     c1.89,0,3.53-0.69,4.88-2.04c1.38-1.38,2.08-3.02,2.08-4.88s-0.69-3.49-2.08-4.88c-1.35-1.38-2.98-2.08-4.88-2.08
     c-1.89,0-3.53,0.69-4.88,2.08c-1.35,1.35-2.04,2.99-2.04,4.88C260.66,96.19,261.31,97.82,262.66,99.17z" />
                <path style="fill:#242424;"
                    d="M284.75,106.85V81.48h6.19l10.63,13.62V81.48h6.63v25.38h-5.64l-11.18-14.16v14.16H284.75z" />
                <path style="fill:#242424;" d="M314.85,98.08c1.35,1.86,3.68,3.13,6.33,3.13c2.26,0,3.39-0.62,3.39-1.82
     c0-0.69-0.44-1.16-1.42-1.57c-0.47-0.18-0.98-0.36-1.49-0.51c-0.98-0.29-2.8-0.84-4.01-1.27c-3.9-1.46-5.86-3.9-5.86-7.32
     c0-2.4,0.87-4.26,2.66-5.61c1.78-1.35,3.93-2,6.44-2c4.19,0,7.32,1.35,9.39,4.04l-4.55,3.9c-1.13-1.35-2.66-2-4.59-2
     c-1.78,0-2.77,0.66-2.77,1.57c0,0.73,0.25,1.13,1.02,1.46c0.4,0.18,0.84,0.33,1.27,0.44c0.87,0.18,2.88,0.76,4.48,1.35
     c4.37,1.57,6.15,3.86,6.15,7.32c0,4.91-3.39,8.05-10.12,8.05c-2.84,0-5.17-0.51-7.03-1.57c-1.82-1.06-3.2-2.33-4.19-3.82
     L314.85,98.08z" />
                <path style="fill:#242424;" d="M338.55,106.85V87.74h-6.84v-6.26h20.46v6.26h-6.7v19.11H338.55z" />
                <path style="fill:#242424;" d="M354.42,106.85V81.48h11.54c2.51,0,4.66,0.84,6.44,2.55c1.78,1.71,2.66,3.75,2.66,6.19
     c0,3.24-1.71,6.04-4.33,7.24l6.33,9.39h-7.94l-5.17-7.9h-0.07h-2.55v7.9H354.42z M361.33,93.42h3.86c1.86,0,2.99-1.09,2.99-2.99
     c0-1.6-1.06-2.69-2.4-2.69h-4.44V93.42z" />
                <path style="fill:#242424;"
                    d="M378.69,81.48h6.92V95.2c0,4.19,1.6,5.75,4.48,5.75s4.48-1.57,4.48-5.75V81.48h6.92v14.45
     c0,3.68-1.09,6.48-3.24,8.41c-2.15,1.93-4.88,2.88-8.15,2.88s-6.01-0.95-8.15-2.88c-2.15-1.93-3.24-4.73-3.24-8.41V81.48z" />
                <path style="fill:#242424;" d="M428.71,86.06l-4.7,3.93c-1.6-1.78-3.53-2.69-5.82-2.69c-1.93,0-3.57,0.66-4.91,1.97
     c-1.35,1.31-2,2.95-2,4.91s0.65,3.6,2,4.91c1.35,1.27,2.99,1.93,4.91,1.93c2.29,0,4.22-0.91,5.82-2.69l4.7,3.93
     c-2.62,3.09-6.41,4.95-10.52,4.95c-3.86,0-7.14-1.24-9.83-3.71c-2.66-2.48-4.01-5.57-4.01-9.32s1.35-6.84,4.01-9.32
     c2.69-2.51,5.97-3.75,9.83-3.75C422.3,81.11,426.09,82.97,428.71,86.06z" />
                <path style="fill:#242424;" d="M436.39,106.85V87.74h-6.84v-6.26H450v6.26h-6.7v19.11H436.39z" />
                <path style="fill:#242424;" d="M452.4,106.85V81.48h6.92v25.38H452.4z" />
                <path style="fill:#242424;" d="M486.51,103.54c-2.73,2.55-6.01,3.82-9.9,3.82c-3.9,0-7.17-1.27-9.9-3.82
     c-2.73-2.59-4.08-5.68-4.08-9.28s1.35-6.7,4.08-9.28c2.73-2.58,6.01-3.86,9.9-3.86c3.9,0,7.17,1.27,9.9,3.86
     c2.73,2.55,4.11,5.64,4.11,9.28C490.62,97.86,489.24,100.95,486.51,103.54z M471.69,99.17c1.35,1.35,2.99,2,4.92,2
     c1.89,0,3.53-0.69,4.88-2.04c1.38-1.38,2.07-3.02,2.07-4.88s-0.69-3.49-2.07-4.88c-1.35-1.38-2.99-2.08-4.88-2.08
     c-1.89,0-3.53,0.69-4.88,2.08c-1.35,1.35-2.04,2.99-2.04,4.88C469.69,96.19,470.35,97.82,471.69,99.17z" />
                <path style="fill:#242424;"
                    d="M493.78,106.85V81.48h6.19l10.63,13.62V81.48h6.63v25.38h-5.64l-11.18-14.16v14.16H493.78z" />
            </g>
        </g>
    </g>

    <g id="vase-3">
        <g>
            <path style="fill:#FFFFFF;" d="M667.63,554.73c0-6.4,2.06-12.23,5.43-16.6h30.32c3.37,4.37,5.43,10.2,5.43,16.6
                c0,8.19-3.37,15.45-8.55,19.9h-24.08C671,570.18,667.63,562.93,667.63,554.73z" />
        </g>
    </g>
    <g id="Layer_56">

        <line
            style="fill:none;stroke:#1D2023;stroke-width:2.1026;stroke-linecap:round;stroke-linejoin:round;stroke-miterlimit:10;"
            x1="602.26" y1="524.5" x2="602.26" y2="420.55" />
    </g>
    <g id="Layer_55">

        <line
            style="fill:none;stroke:#1D2023;stroke-width:2.1026;stroke-linecap:round;stroke-linejoin:round;stroke-miterlimit:10;"
            x1="688.22" y1="538.13" x2="688.22" y2="516.73" />
    </g>
    <g id="Layer_54">

        <line
            style="fill:none;stroke:#1D2023;stroke-width:2.1026;stroke-linecap:round;stroke-linejoin:round;stroke-miterlimit:10;"
            x1="566.9" y1="474.42" x2="586.51" y2="524.5" />
    </g>
    <g id="Layer_53">

        <line
            style="fill:none;stroke:#1D2023;stroke-width:2.1026;stroke-linecap:round;stroke-linejoin:round;stroke-miterlimit:10;"
            x1="615.76" y1="524.1" x2="637.3" y2="474.82" />
    </g>
    <g id="Layer_51">

        <line
            style="fill:none;stroke:#1D2023;stroke-width:2.1026;stroke-linecap:round;stroke-linejoin:round;stroke-miterlimit:10;"
            x1="183.11" y1="501.62" x2="183.11" y2="400.19" />
    </g>
    <g id="Layer_50">

        <line
            style="fill:none;stroke:#1D2023;stroke-width:2.1026;stroke-linecap:round;stroke-linejoin:round;stroke-miterlimit:10;"
            x1="217.61" y1="452.75" x2="198.47" y2="501.62" />
    </g>
    <g id="Layer_49">

        <line
            style="fill:none;stroke:#1D2023;stroke-width:2.1026;stroke-linecap:round;stroke-linejoin:round;stroke-miterlimit:10;"
            x1="168.4" y1="504.88" x2="147.38" y2="456.79" />
    </g>
    <g id="Layer_48">
    </g>
    <g id="Layer_47">
        <g>
            <rect x="46.31" y="521.66" style="fill:#FFFFFF;" width="51.84" height="51.84" />
        </g>
    </g>
    <g id="Layer_46">
        <g>
            <rect x="729.4" y="541.43" style="fill:#FFFFFF;" width="32.07" height="32.07" />
        </g>
    </g>
    <g id="Layer_45">
        <rect x="300.89" y="541.34" style="fill:#B1BFD5;" width="32.16" height="32.16" />
    </g>
    <g id="vase-2">
        <g>
            <g>
                <polygon style="fill:#FFFFFF;" points="644.69,516 638.88,536.18 633.36,555.33 627.79,574.64 576.72,574.64 571.1,555.12
                  566.25,538.29 559.83,516 			" />
            </g>
            <circle style="fill:#2BA4E4;" cx="605.37" cy="545.32" r="10.09" />
            <path style="fill:#B1BFD5;" d="M583.57,545.32c0,5.57-4.52,10.09-10.09,10.09c-0.82,0-1.62-0.1-2.38-0.29l-4.85-16.84
                c1.83-1.88,4.4-3.06,7.23-3.06C579.06,535.23,583.57,539.75,583.57,545.32z" />
            <path style="fill:#B1BFD5;" d="M638.88,536.18l-5.52,19.15c-4.99-0.61-8.85-4.86-8.85-10.01c0-5.57,4.52-10.09,10.09-10.09
                C636.13,535.23,637.58,535.57,638.88,536.18z" />
        </g>
    </g>
    <g id="r-leg">
        <polygon style="fill:#242424;" points="508.78,539.5 517.23,558.61 496.24,573.5 441.22,573.5 472.88,551.83 	" />
    </g>
    <g id="l-leg">
        <polygon style="fill:#242424;" points="415.76,539.5 424.21,563.68 403.22,573.5 348.2,573.5 379.86,551.83 	" />
    </g>
    <g class="r-hand">
        <path style="fill:#E45C2C;" d="M474.95,153.73l-1.63-4.68c0,0-0.92-3.31-1.47-7.02c-0.55-3.7,0.91-8.67-3.66-14.19
              c-4.57-5.52,3.35-3.05,5.67-0.46c1.94,2.15,2.76,7.59,4.82,9.09c1.1-1.01,1.71-2.1,1.71-2.1l9.53-21.5
              c0.3-0.72,1.11-1.13,1.89-0.98l0.89,0.18c0.93,0.19,1.47,1.09,1.14,1.95c-1.73,4.65-7.29,18.4-7.02,18.45l0.5,0.33l12.26-21.42
              c0.37-0.7,1.23-1.05,2.01-0.81l1.2,0.37c0.88,0.27,1.3,1.18,0.93,1.99c-2.23,5-11.26,21.43-10.98,21.49l0.63,0.31l12.12-17.42
              c0.4-0.74,1.33-1.07,2.11-0.77l0.94,0.37c0.82,0.32,1.18,1.22,0.8,2l-11.23,17.24l0.61,0.51l10.55-12.1
              c0.46-0.66,1.35-0.91,2.09-0.59l0.44,0.2c0.78,0.35,1.11,1.23,0.73,2c-1.31,2.62-6.21,7.77-9.62,13.38
              c-2.65,4.36-3.51,8.03-7.47,13.19c-1.67,2.19-4.51,4.67-6.06,6.06" />
    </g>
    <g class="arm">
        <polyline style="fill:#FFFFFF;"
            points="399.69,229.44 446.98,202.73 466.16,148.37 497.26,157.33 474.07,228.38 412.31,265.83" />
    </g>
    <g class="l-hand">
        <path style="fill:#E45C2C;" d="M268.93,268.31l-2.33-4.54c0,0-1.8-3.05-4.14-6.12c-2.34-3.07-6.9-5.63-7.93-12.87
              c-1.03-7.23-4.4,0.17-4.04,3.68c0.3,2.93,3.72,7.45,3.46,9.99c-1.45,0.05-2.65-0.31-2.65-0.31l-21.85-8.81
              c-0.72-0.31-1.55-0.03-1.95,0.63l-0.45,0.76c-0.47,0.8-0.17,1.83,0.67,2.22c4.51,2.13,18.14,8.16,18,8.38l-0.09,0.59l-23.58-6.81
              c-0.75-0.24-1.57,0.11-1.9,0.83l-0.51,1.12c-0.38,0.81,0.01,1.77,0.84,2.1c5.09,2.04,22.94,7.54,22.8,7.78l-0.19,0.68l-20.59-4.02
              c-0.79-0.25-1.65,0.17-1.94,0.94l-0.34,0.93c-0.3,0.81,0.12,1.72,0.93,2.01l19.87,4.52l-0.03,0.8l-15.69-1.28
              c-0.78-0.16-1.54,0.3-1.79,1.05l-0.14,0.46c-0.26,0.81,0.17,1.68,0.98,1.96c2.76,0.97,9.7,1.23,16.01,2.87
              c4.9,1.28,8.13,3.32,14.47,4.26c2.68,0.4,6.34,0.19,8.36,0.09" />
    </g>
    <g id="body">
        <path style="fill:#FFFFFF;" d="M322.77,265.44c0,0,17.22-20.66,37.46-31.5C378.8,224,429.71,224,429.71,224l3.48,80.83l-73.11,1.56
              l-5.38-21.76l-15.55,13.07c-6.12,4.89-14.09,6.83-21.77,5.31l-56.33-11.16l5.52-33.61L322.77,265.44z" />
    </g>
    <g id="shirt">
        <g>
            <defs>
                <path id="SVGID_25_" d="M474.07,228.38l-43.05,26.1l2.17,50.34l-73.11,1.56l-5.37-21.76l-15.55,13.07
                  c-6.12,4.89-14.09,6.83-21.77,5.31l-56.33-11.16l5.52-33.61l56.21,7.21c0,0,17.22-20.66,37.46-31.5
                  c10.55-5.65,31.53-8.09,47.68-9.15l39.07-22.07l19.18-54.35l31.1,8.95L474.07,228.38z" />
            </defs>
            <clipPath id="SVGID_3_">
                <use xlink:href="#SVGID_25_" style="overflow:visible;" />
            </clipPath>
            <g id="shirt-pattern" style="clip-path:url(#SVGID_3_);">
                <polygon style="fill:#242424;" points="324.25,239.47 291.87,239.47 308.06,264.26 			" />
                <polygon style="fill:#242424;" points="371.44,239.47 339.06,239.47 355.25,264.26 			" />
                <polygon style="fill:#242424;" points="418.63,239.47 386.25,239.47 402.44,264.26 			" />
                <polygon style="fill:#242424;" points="465.83,239.47 433.45,239.47 449.64,264.26 			" />
                <polygon style="fill:#242424;" points="301.76,274.56 269.38,274.56 285.57,299.35 			" />
                <polygon style="fill:#242424;" points="348.95,274.56 316.57,274.56 332.76,299.35 			" />
                <polygon style="fill:#242424;" points="396.15,274.56 363.77,274.56 379.96,299.35 			" />
                <polygon style="fill:#242424;" points="443.34,274.56 410.96,274.56 427.15,299.35 			" />
                <polygon style="fill:#242424;" points="396.55,201.67 364.17,201.67 380.36,226.46 			" />
                <polygon style="fill:#242424;" points="443.75,201.67 411.37,201.67 427.56,226.46 			" />
                <polygon style="fill:#242424;" points="490.94,201.67 458.56,201.67 474.75,226.46 			" />
                <polygon style="fill:#242424;" points="469.59,165.5 437.21,165.5 453.4,190.29 			" />
                <polygon style="fill:#242424;" points="495.48,134.18 463.1,134.18 479.29,158.97 			" />
            </g>
        </g>
    </g>
    <g id="pants">
        <g>
            <g>
                <polygon style="fill:#B1BFD5;" points="464.85,554.88 420.6,479.64 424.51,554.57 371.93,554.44 360.08,306.39 433.17,304.43
                  448.02,413.89 514.41,537.76 			" />

                <polyline
                    style="fill:none;stroke:#FFFFFF;stroke-width:2.1026;stroke-linecap:round;stroke-linejoin:round;stroke-miterlimit:10;"
                    points="
                  440.72,407.65 448.02,413.89 441.84,424.67 			" />
            </g>

            <line
                style="fill:none;stroke:#FFFFFF;stroke-width:2.1026;stroke-linecap:round;stroke-linejoin:round;stroke-miterlimit:10;"
                x1="422.5" y1="484.2" x2="411.98" y2="347.51" />
        </g>
    </g>
    <g id="Layer_13">

        <line
            style="fill:none;stroke:#FFFFFF;stroke-width:2.1026;stroke-linecap:round;stroke-linejoin:round;stroke-miterlimit:10;"
            x1="431.85" y1="249.8" x2="432.47" y2="257.24" />
    </g>
    <g id="Layer_12">

        <line
            style="fill:none;stroke:#FFFFFF;stroke-width:2.1026;stroke-linecap:round;stroke-linejoin:round;stroke-miterlimit:10;"
            x1="353.78" y1="286.01" x2="363.49" y2="277.05" />
    </g>
    <g id="head">
        <g>
            <g>
                <path style="fill:#E45C2C;"
                    d="M392.72,237.83c-0.1,0-0.2,0-0.31,0c-6.89-0.17-12.34-5.88-12.17-12.77l1.11-46
                  c0.17-6.89,5.89-12.34,12.77-12.17c6.89,0.17,12.34,5.88,12.17,12.77l-1.11,46C405.02,232.44,399.47,237.83,392.72,237.83z" />
            </g>
            <path style="fill:#E45C2C;"
                d="M383.62,214.19l-2.43-0.34c-12.01-1.69-19.53-13.88-15.66-25.37l4.51-13.36
                c3-8.91,11.97-14.37,21.26-12.96l0,0c10.58,1.61,17.85,11.48,16.24,22.06l-2.08,13.7C403.87,208.41,394.13,215.67,383.62,214.19z" />
            <polyline style="fill:#E45C2C;" points="369.66,177.54 361.95,188.07 365.8,189.23 		" />
            <path style="fill:#242424;" d="M398,197.51c-5.07-1.48,0.53-18.14,0.53-18.14l-6.7,3.34c-1.49,0.96-2.9-9.89-2.9-9.89
                s-20.12,1.72-17.88-15.5c1.29-9.91,9.24-1.92,14.56-1.19c8.35,1.15,15.21-2.17,24.76,6.69C421.81,173.43,411.58,201.48,398,197.51
                z" />
            <polygon style="fill:#242424;" points="380.21,213.55 387.49,213.92 380.01,219.39 		" />
            <circle style="fill:#242424;" cx="373.43" cy="178.68" r="1.99" />
            <path style="fill:#E45C2C;"
                d="M391.52,191.74L391.52,191.74c-2.72-2.82-2.64-7.35,0.18-10.07l2.91-2.8
                c2.82-2.72,7.35-2.64,10.07,0.18l0,0c2.72,2.82,2.64,7.35-0.18,10.07l-2.91,2.8C398.77,194.64,394.24,194.56,391.52,191.74z" />

            <line
                style="fill:none;stroke:#1D2023;stroke-width:2.1026;stroke-linecap:round;stroke-linejoin:round;stroke-miterlimit:10;"
                x1="400.67" y1="185.34" x2="396.87" y2="188.5" />
            <path
                style="fill:none;stroke:#1D2023;stroke-width:2.085;stroke-linecap:round;stroke-linejoin:round;stroke-miterlimit:10;"
                d="
                M379.02,194.74c0,0-4.14,4.68-10.97,2.58" />

            <line
                style="fill:none;stroke:#1D2023;stroke-width:2.1026;stroke-linecap:round;stroke-linejoin:round;stroke-miterlimit:10;"
                x1="374.69" y1="172.97" x2="377.67" y2="175.15" />
        </g>
    </g>
    <g id="vase-1">
        <g>
            <g>
                <path style="fill:#FFFFFF;" d="M134.56,528.36c0-14.52,4.67-27.74,12.32-37.65h68.76c7.65,9.91,12.32,23.13,12.32,37.65
                  c0,18.58-7.65,35.03-19.4,45.13h-54.61C142.21,563.4,134.56,546.94,134.56,528.36z" />
            </g>
            <path style="fill:#2BA4E4;" d="M162,540.56L162,540.56c6.37,0,10.2-7.07,6.72-12.41l-2.26-3.46c-2.1-3.22-6.81-3.22-8.92,0
                l-2.26,3.46C151.8,533.49,155.63,540.56,162,540.56z" />
            <path style="fill:#2BA4E4;" d="M200.53,540.56L200.53,540.56c6.37,0,10.2-7.07,6.72-12.41l-2.26-3.46c-2.1-3.22-6.81-3.22-8.92,0
                l-2.26,3.46C190.32,533.49,194.15,540.56,200.53,540.56z" />
            <path
                style="fill:none;stroke:#B1BFD5;stroke-width:3;stroke-linecap:round;stroke-linejoin:round;stroke-miterlimit:10;"
                d="
                M159.98,551.64c0,0,21.99,20.15,42.14,0" />
        </g>
    </g>
    <g>
        <circle class="flower"
            data-content="In the real world, we are an African-focused creative technology powerhouse. We deliver magic through Digital Marketing, Public Relations, Brand Design and Product Development."
            style="fill:#DBE1E4;" cx="141.81" cy="444.06" r="11.47" />
    </g>

    <g>
        <rect class="flower" data-content="Here, we gleefully roll up our sleeves for the dirty work because this is where true creativity flourishes. For us, Grit and Grime births the sublime."
            x="168.4" y="368.14" style="fill:#FFFFFF;" width="29.41" height="29.41" />
    </g>
    <g>
        <polygon class="flower"
            data-content="Our digital-native roots drive us to mine data-driven insights and develop marketing strategies that consistently inspire action and forge true customer loyalty."
            style="fill:#B1BFD5;" points="230.98,455.93 205.56,445.47 226.28,431.24 	" />
    </g>
    <g>
        <polygon
            data-content="From the trivial to the transformative, we solve challenges by balancing the powers of brand intelligence, creativity and efficiency at every stage of the solution."
            class="flower" style="fill:#DBE1E4;" points="557.59,476.92 576.66,469.08 561.12,458.4 	" />
    </g>
    <g>
        <circle
            data-content="We’ve nurtutred young brands to explode across the African continent. We’ve masterminded the local entry of global brands. Our history speaks (loudly) for us"
            class="flower" style="fill:#DBE1E4;" cx="602.26" cy="407.16" r="12.35" />
    </g>
    <g>

        <rect class="flower"
            data-content="We believe that consistently fresh ideas hold the key to growth. Working tirelessly to create brand waves in technology, business, art and culture is our religion."
            x="631.87" y="457.44" transform="matrix(0.4005 -0.9163 0.9163 0.4005 -43.237 866.9341)"
            style="fill: #ffffff;;" width="18.13" height="18.13" />
    </g>
    <g>
        <circle class="flower" data-content="Keep an eye out for us on social media. Our full website will launch soon."
            style="fill:#DBE1E4;" cx="688.22" cy="507.19" r="7.94" />
    </g>
</svg>