<svg xmlns="http://www.w3.org/2000/svg" width="196.114" height="180">
  <defs>
    <clipPath id="a">
      <path transform="translate(5102.519 2317.273)" fill="none" d="M0 0h196.114v180H0z" />
    </clipPath>
  </defs>
  <g data-name="Group 310" clip-path="url(#a)" transform="translate(-5102.519 -2317.273)">
    <g data-name="Group 309" fill="none" stroke="#b1bfd5" stroke-miterlimit="10">
      <g data-name="Ellipse 1092" transform="translate(5104.062 2318.13)">
        <circle cx="2.571" cy="2.571" r="2.571" stroke="none" />
        <circle cx="2.571" cy="2.571" r="2.071" />
      </g>
      <g data-name="Ellipse 1093" transform="translate(5121.205 2318.13)">
        <circle cx="2.571" cy="2.571" r="2.571" stroke="none" />
        <circle cx="2.571" cy="2.571" r="2.071" />
      </g>
      <g data-name="Ellipse 1094" transform="translate(5138.348 2318.13)">
        <circle cx="2.571" cy="2.571" r="2.571" stroke="none" />
        <circle cx="2.571" cy="2.571" r="2.071" />
      </g>
      <g data-name="Ellipse 1095" transform="translate(5155.49 2318.13)">
        <circle cx="2.571" cy="2.571" r="2.571" stroke="none" />
        <circle cx="2.571" cy="2.571" r="2.071" />
      </g>
      <g data-name="Ellipse 1096" transform="translate(5172.633 2318.13)">
        <circle cx="2.571" cy="2.571" r="2.571" stroke="none" />
        <circle cx="2.571" cy="2.571" r="2.071" />
      </g>
      <g data-name="Ellipse 1097" transform="translate(5189.776 2318.13)">
        <circle cx="2.571" cy="2.571" r="2.571" stroke="none" />
        <circle cx="2.571" cy="2.571" r="2.071" />
      </g>
      <g data-name="Ellipse 1098" transform="translate(5206.919 2318.13)">
        <circle cx="2.571" cy="2.571" r="2.571" stroke="none" />
        <circle cx="2.571" cy="2.571" r="2.071" />
      </g>
      <g data-name="Ellipse 1099" transform="translate(5224.062 2318.13)">
        <circle cx="2.571" cy="2.571" r="2.571" stroke="none" />
        <circle cx="2.571" cy="2.571" r="2.071" />
      </g>
      <g data-name="Ellipse 1100" transform="translate(5241.205 2318.13)">
        <circle cx="2.571" cy="2.571" r="2.571" stroke="none" />
        <circle cx="2.571" cy="2.571" r="2.071" />
      </g>
      <g data-name="Ellipse 1101" transform="translate(5258.348 2318.13)">
        <circle cx="2.571" cy="2.571" r="2.571" stroke="none" />
        <circle cx="2.571" cy="2.571" r="2.071" />
      </g>
      <g data-name="Ellipse 1102" transform="translate(5275.49 2318.13)">
        <circle cx="2.571" cy="2.571" r="2.571" stroke="none" />
        <circle cx="2.571" cy="2.571" r="2.071" />
      </g>
      <g data-name="Ellipse 1103" transform="translate(5292.633 2318.13)">
        <circle cx="2.571" cy="2.571" r="2.571" stroke="none" />
        <circle cx="2.571" cy="2.571" r="2.071" />
      </g>
      <g data-name="Ellipse 1104" transform="translate(5104.062 2335.273)">
        <circle cx="2.571" cy="2.571" r="2.571" stroke="none" />
        <circle cx="2.571" cy="2.571" r="2.071" />
      </g>
      <g data-name="Ellipse 1105" transform="translate(5121.205 2335.273)">
        <circle cx="2.571" cy="2.571" r="2.571" stroke="none" />
        <circle cx="2.571" cy="2.571" r="2.071" />
      </g>
      <g data-name="Ellipse 1106" transform="translate(5138.348 2335.273)">
        <circle cx="2.571" cy="2.571" r="2.571" stroke="none" />
        <circle cx="2.571" cy="2.571" r="2.071" />
      </g>
      <g data-name="Ellipse 1107" transform="translate(5155.49 2335.273)">
        <circle cx="2.571" cy="2.571" r="2.571" stroke="none" />
        <circle cx="2.571" cy="2.571" r="2.071" />
      </g>
      <g data-name="Ellipse 1108" transform="translate(5172.633 2335.273)">
        <circle cx="2.571" cy="2.571" r="2.571" stroke="none" />
        <circle cx="2.571" cy="2.571" r="2.071" />
      </g>
      <g data-name="Ellipse 1109" transform="translate(5189.776 2335.273)">
        <circle cx="2.571" cy="2.571" r="2.571" stroke="none" />
        <circle cx="2.571" cy="2.571" r="2.071" />
      </g>
      <g data-name="Ellipse 1110" transform="translate(5206.919 2335.273)">
        <circle cx="2.571" cy="2.571" r="2.571" stroke="none" />
        <circle cx="2.571" cy="2.571" r="2.071" />
      </g>
      <g data-name="Ellipse 1111" transform="translate(5224.062 2335.273)">
        <circle cx="2.571" cy="2.571" r="2.571" stroke="none" />
        <circle cx="2.571" cy="2.571" r="2.071" />
      </g>
      <g data-name="Ellipse 1112" transform="translate(5241.205 2335.273)">
        <circle cx="2.571" cy="2.571" r="2.571" stroke="none" />
        <circle cx="2.571" cy="2.571" r="2.071" />
      </g>
      <g data-name="Ellipse 1113" transform="translate(5258.348 2335.273)">
        <circle cx="2.571" cy="2.571" r="2.571" stroke="none" />
        <circle cx="2.571" cy="2.571" r="2.071" />
      </g>
      <g data-name="Ellipse 1114" transform="translate(5275.49 2335.273)">
        <circle cx="2.571" cy="2.571" r="2.571" stroke="none" />
        <circle cx="2.571" cy="2.571" r="2.071" />
      </g>
      <g data-name="Ellipse 1115" transform="translate(5292.633 2335.273)">
        <circle cx="2.571" cy="2.571" r="2.571" stroke="none" />
        <circle cx="2.571" cy="2.571" r="2.071" />
      </g>
      <g data-name="Ellipse 1116" transform="translate(5104.062 2352.416)">
        <circle cx="2.571" cy="2.571" r="2.571" stroke="none" />
        <circle cx="2.571" cy="2.571" r="2.071" />
      </g>
      <g data-name="Ellipse 1117" transform="translate(5121.205 2352.416)">
        <circle cx="2.571" cy="2.571" r="2.571" stroke="none" />
        <circle cx="2.571" cy="2.571" r="2.071" />
      </g>
      <g data-name="Ellipse 1118" transform="translate(5138.348 2352.416)">
        <circle cx="2.571" cy="2.571" r="2.571" stroke="none" />
        <circle cx="2.571" cy="2.571" r="2.071" />
      </g>
      <g data-name="Ellipse 1119" transform="translate(5155.49 2352.416)">
        <circle cx="2.571" cy="2.571" r="2.571" stroke="none" />
        <circle cx="2.571" cy="2.571" r="2.071" />
      </g>
      <g data-name="Ellipse 1120" transform="translate(5172.633 2352.416)">
        <circle cx="2.571" cy="2.571" r="2.571" stroke="none" />
        <circle cx="2.571" cy="2.571" r="2.071" />
      </g>
      <g data-name="Ellipse 1121" transform="translate(5189.776 2352.416)">
        <circle cx="2.571" cy="2.571" r="2.571" stroke="none" />
        <circle cx="2.571" cy="2.571" r="2.071" />
      </g>
      <g data-name="Ellipse 1122" transform="translate(5206.919 2352.416)">
        <circle cx="2.571" cy="2.571" r="2.571" stroke="none" />
        <circle cx="2.571" cy="2.571" r="2.071" />
      </g>
      <g data-name="Ellipse 1123" transform="translate(5224.062 2352.416)">
        <circle cx="2.571" cy="2.571" r="2.571" stroke="none" />
        <circle cx="2.571" cy="2.571" r="2.071" />
      </g>
      <g data-name="Ellipse 1124" transform="translate(5241.205 2352.416)">
        <circle cx="2.571" cy="2.571" r="2.571" stroke="none" />
        <circle cx="2.571" cy="2.571" r="2.071" />
      </g>
      <g data-name="Ellipse 1125" transform="translate(5258.348 2352.416)">
        <circle cx="2.571" cy="2.571" r="2.571" stroke="none" />
        <circle cx="2.571" cy="2.571" r="2.071" />
      </g>
      <g data-name="Ellipse 1126" transform="translate(5275.49 2352.416)">
        <circle cx="2.571" cy="2.571" r="2.571" stroke="none" />
        <circle cx="2.571" cy="2.571" r="2.071" />
      </g>
      <g data-name="Ellipse 1127" transform="translate(5292.633 2352.416)">
        <circle cx="2.571" cy="2.571" r="2.571" stroke="none" />
        <circle cx="2.571" cy="2.571" r="2.071" />
      </g>
      <g data-name="Ellipse 1128" transform="translate(5104.062 2369.559)">
        <circle cx="2.571" cy="2.571" r="2.571" stroke="none" />
        <circle cx="2.571" cy="2.571" r="2.071" />
      </g>
      <g data-name="Ellipse 1129" transform="translate(5121.205 2369.559)">
        <circle cx="2.571" cy="2.571" r="2.571" stroke="none" />
        <circle cx="2.571" cy="2.571" r="2.071" />
      </g>
      <g data-name="Ellipse 1130" transform="translate(5138.348 2369.559)">
        <circle cx="2.571" cy="2.571" r="2.571" stroke="none" />
        <circle cx="2.571" cy="2.571" r="2.071" />
      </g>
      <g data-name="Ellipse 1131" transform="translate(5155.49 2369.559)">
        <circle cx="2.571" cy="2.571" r="2.571" stroke="none" />
        <circle cx="2.571" cy="2.571" r="2.071" />
      </g>
      <g data-name="Ellipse 1132" transform="translate(5172.633 2369.559)">
        <circle cx="2.571" cy="2.571" r="2.571" stroke="none" />
        <circle cx="2.571" cy="2.571" r="2.071" />
      </g>
      <g data-name="Ellipse 1133" transform="translate(5189.776 2369.559)">
        <circle cx="2.571" cy="2.571" r="2.571" stroke="none" />
        <circle cx="2.571" cy="2.571" r="2.071" />
      </g>
      <g data-name="Ellipse 1134" transform="translate(5206.919 2369.559)">
        <circle cx="2.571" cy="2.571" r="2.571" stroke="none" />
        <circle cx="2.571" cy="2.571" r="2.071" />
      </g>
      <g data-name="Ellipse 1135" transform="translate(5224.062 2369.559)">
        <circle cx="2.571" cy="2.571" r="2.571" stroke="none" />
        <circle cx="2.571" cy="2.571" r="2.071" />
      </g>
      <g data-name="Ellipse 1136" transform="translate(5241.205 2369.559)">
        <circle cx="2.571" cy="2.571" r="2.571" stroke="none" />
        <circle cx="2.571" cy="2.571" r="2.071" />
      </g>
      <g data-name="Ellipse 1137" transform="translate(5258.348 2369.559)">
        <circle cx="2.571" cy="2.571" r="2.571" stroke="none" />
        <circle cx="2.571" cy="2.571" r="2.071" />
      </g>
      <g data-name="Ellipse 1138" transform="translate(5275.49 2369.559)">
        <circle cx="2.571" cy="2.571" r="2.571" stroke="none" />
        <circle cx="2.571" cy="2.571" r="2.071" />
      </g>
      <g data-name="Ellipse 1139" transform="translate(5292.633 2369.559)">
        <circle cx="2.571" cy="2.571" r="2.571" stroke="none" />
        <circle cx="2.571" cy="2.571" r="2.071" />
      </g>
      <g data-name="Ellipse 1140" transform="translate(5104.062 2386.702)">
        <circle cx="2.571" cy="2.571" r="2.571" stroke="none" />
        <circle cx="2.571" cy="2.571" r="2.071" />
      </g>
      <g data-name="Ellipse 1141" transform="translate(5121.205 2386.702)">
        <circle cx="2.571" cy="2.571" r="2.571" stroke="none" />
        <circle cx="2.571" cy="2.571" r="2.071" />
      </g>
      <g data-name="Ellipse 1142" transform="translate(5138.348 2386.702)">
        <circle cx="2.571" cy="2.571" r="2.571" stroke="none" />
        <circle cx="2.571" cy="2.571" r="2.071" />
      </g>
      <g data-name="Ellipse 1143" transform="translate(5155.49 2386.702)">
        <circle cx="2.571" cy="2.571" r="2.571" stroke="none" />
        <circle cx="2.571" cy="2.571" r="2.071" />
      </g>
      <g data-name="Ellipse 1144" transform="translate(5172.633 2386.702)">
        <circle cx="2.571" cy="2.571" r="2.571" stroke="none" />
        <circle cx="2.571" cy="2.571" r="2.071" />
      </g>
      <g data-name="Ellipse 1145" transform="translate(5189.776 2386.702)">
        <circle cx="2.571" cy="2.571" r="2.571" stroke="none" />
        <circle cx="2.571" cy="2.571" r="2.071" />
      </g>
      <g data-name="Ellipse 1146" transform="translate(5206.919 2386.702)">
        <circle cx="2.571" cy="2.571" r="2.571" stroke="none" />
        <circle cx="2.571" cy="2.571" r="2.071" />
      </g>
      <g data-name="Ellipse 1147" transform="translate(5224.062 2386.702)">
        <circle cx="2.571" cy="2.571" r="2.571" stroke="none" />
        <circle cx="2.571" cy="2.571" r="2.071" />
      </g>
      <g data-name="Ellipse 1148" transform="translate(5241.205 2386.702)">
        <circle cx="2.571" cy="2.571" r="2.571" stroke="none" />
        <circle cx="2.571" cy="2.571" r="2.071" />
      </g>
      <g data-name="Ellipse 1149" transform="translate(5258.348 2386.702)">
        <circle cx="2.571" cy="2.571" r="2.571" stroke="none" />
        <circle cx="2.571" cy="2.571" r="2.071" />
      </g>
      <g data-name="Ellipse 1150" transform="translate(5275.49 2386.702)">
        <circle cx="2.571" cy="2.571" r="2.571" stroke="none" />
        <circle cx="2.571" cy="2.571" r="2.071" />
      </g>
      <g data-name="Ellipse 1151" transform="translate(5292.633 2386.702)">
        <circle cx="2.571" cy="2.571" r="2.571" stroke="none" />
        <circle cx="2.571" cy="2.571" r="2.071" />
      </g>
      <g data-name="Ellipse 1152" transform="translate(5104.062 2403.844)">
        <circle cx="2.571" cy="2.571" r="2.571" stroke="none" />
        <circle cx="2.571" cy="2.571" r="2.071" />
      </g>
      <g data-name="Ellipse 1153" transform="translate(5121.205 2403.844)">
        <circle cx="2.571" cy="2.571" r="2.571" stroke="none" />
        <circle cx="2.571" cy="2.571" r="2.071" />
      </g>
      <g data-name="Ellipse 1154" transform="translate(5138.348 2403.844)">
        <circle cx="2.571" cy="2.571" r="2.571" stroke="none" />
        <circle cx="2.571" cy="2.571" r="2.071" />
      </g>
      <g data-name="Ellipse 1155" transform="translate(5155.49 2403.844)">
        <circle cx="2.571" cy="2.571" r="2.571" stroke="none" />
        <circle cx="2.571" cy="2.571" r="2.071" />
      </g>
      <g data-name="Ellipse 1156" transform="translate(5172.633 2403.844)">
        <circle cx="2.571" cy="2.571" r="2.571" stroke="none" />
        <circle cx="2.571" cy="2.571" r="2.071" />
      </g>
      <g data-name="Ellipse 1157" transform="translate(5189.776 2403.844)">
        <circle cx="2.571" cy="2.571" r="2.571" stroke="none" />
        <circle cx="2.571" cy="2.571" r="2.071" />
      </g>
      <g data-name="Ellipse 1158" transform="translate(5206.919 2403.844)">
        <circle cx="2.571" cy="2.571" r="2.571" stroke="none" />
        <circle cx="2.571" cy="2.571" r="2.071" />
      </g>
      <g data-name="Ellipse 1159" transform="translate(5224.062 2403.844)">
        <circle cx="2.571" cy="2.571" r="2.571" stroke="none" />
        <circle cx="2.571" cy="2.571" r="2.071" />
      </g>
      <g data-name="Ellipse 1160" transform="translate(5241.205 2403.844)">
        <circle cx="2.571" cy="2.571" r="2.571" stroke="none" />
        <circle cx="2.571" cy="2.571" r="2.071" />
      </g>
      <g data-name="Ellipse 1161" transform="translate(5258.348 2403.844)">
        <circle cx="2.571" cy="2.571" r="2.571" stroke="none" />
        <circle cx="2.571" cy="2.571" r="2.071" />
      </g>
      <g data-name="Ellipse 1162" transform="translate(5275.49 2403.844)">
        <circle cx="2.571" cy="2.571" r="2.571" stroke="none" />
        <circle cx="2.571" cy="2.571" r="2.071" />
      </g>
      <g data-name="Ellipse 1163" transform="translate(5292.633 2403.844)">
        <circle cx="2.571" cy="2.571" r="2.571" stroke="none" />
        <circle cx="2.571" cy="2.571" r="2.071" />
      </g>
      <g data-name="Ellipse 1164" transform="translate(5104.062 2420.988)">
        <circle cx="2.571" cy="2.571" r="2.571" stroke="none" />
        <circle cx="2.571" cy="2.571" r="2.071" />
      </g>
      <g data-name="Ellipse 1165" transform="translate(5121.205 2420.988)">
        <circle cx="2.571" cy="2.571" r="2.571" stroke="none" />
        <circle cx="2.571" cy="2.571" r="2.071" />
      </g>
      <g data-name="Ellipse 1166" transform="translate(5138.348 2420.988)">
        <circle cx="2.571" cy="2.571" r="2.571" stroke="none" />
        <circle cx="2.571" cy="2.571" r="2.071" />
      </g>
      <g data-name="Ellipse 1167" transform="translate(5155.49 2420.988)">
        <circle cx="2.571" cy="2.571" r="2.571" stroke="none" />
        <circle cx="2.571" cy="2.571" r="2.071" />
      </g>
      <g data-name="Ellipse 1168" transform="translate(5172.633 2420.988)">
        <circle cx="2.571" cy="2.571" r="2.571" stroke="none" />
        <circle cx="2.571" cy="2.571" r="2.071" />
      </g>
      <g data-name="Ellipse 1169" transform="translate(5189.776 2420.988)">
        <circle cx="2.571" cy="2.571" r="2.571" stroke="none" />
        <circle cx="2.571" cy="2.571" r="2.071" />
      </g>
      <g data-name="Ellipse 1170" transform="translate(5206.919 2420.988)">
        <circle cx="2.571" cy="2.571" r="2.571" stroke="none" />
        <circle cx="2.571" cy="2.571" r="2.071" />
      </g>
      <g data-name="Ellipse 1171" transform="translate(5224.062 2420.988)">
        <circle cx="2.571" cy="2.571" r="2.571" stroke="none" />
        <circle cx="2.571" cy="2.571" r="2.071" />
      </g>
      <g data-name="Ellipse 1172" transform="translate(5241.205 2420.988)">
        <circle cx="2.571" cy="2.571" r="2.571" stroke="none" />
        <circle cx="2.571" cy="2.571" r="2.071" />
      </g>
      <g data-name="Ellipse 1173" transform="translate(5258.348 2420.988)">
        <circle cx="2.571" cy="2.571" r="2.571" stroke="none" />
        <circle cx="2.571" cy="2.571" r="2.071" />
      </g>
      <g data-name="Ellipse 1174" transform="translate(5275.49 2420.988)">
        <circle cx="2.571" cy="2.571" r="2.571" stroke="none" />
        <circle cx="2.571" cy="2.571" r="2.071" />
      </g>
      <g data-name="Ellipse 1175" transform="translate(5292.633 2420.988)">
        <circle cx="2.571" cy="2.571" r="2.571" stroke="none" />
        <circle cx="2.571" cy="2.571" r="2.071" />
      </g>
      <g data-name="Ellipse 1176" transform="translate(5104.062 2438.13)">
        <circle cx="2.571" cy="2.571" r="2.571" stroke="none" />
        <circle cx="2.571" cy="2.571" r="2.071" />
      </g>
      <g data-name="Ellipse 1177" transform="translate(5121.205 2438.13)">
        <circle cx="2.571" cy="2.571" r="2.571" stroke="none" />
        <circle cx="2.571" cy="2.571" r="2.071" />
      </g>
      <g data-name="Ellipse 1178" transform="translate(5138.348 2438.13)">
        <circle cx="2.571" cy="2.571" r="2.571" stroke="none" />
        <circle cx="2.571" cy="2.571" r="2.071" />
      </g>
      <g data-name="Ellipse 1179" transform="translate(5155.49 2438.13)">
        <circle cx="2.571" cy="2.571" r="2.571" stroke="none" />
        <circle cx="2.571" cy="2.571" r="2.071" />
      </g>
      <g data-name="Ellipse 1180" transform="translate(5172.633 2438.13)">
        <circle cx="2.571" cy="2.571" r="2.571" stroke="none" />
        <circle cx="2.571" cy="2.571" r="2.071" />
      </g>
      <g data-name="Ellipse 1181" transform="translate(5189.776 2438.13)">
        <circle cx="2.571" cy="2.571" r="2.571" stroke="none" />
        <circle cx="2.571" cy="2.571" r="2.071" />
      </g>
      <g data-name="Ellipse 1182" transform="translate(5206.919 2438.13)">
        <circle cx="2.571" cy="2.571" r="2.571" stroke="none" />
        <circle cx="2.571" cy="2.571" r="2.071" />
      </g>
      <g data-name="Ellipse 1183" transform="translate(5224.062 2438.13)">
        <circle cx="2.571" cy="2.571" r="2.571" stroke="none" />
        <circle cx="2.571" cy="2.571" r="2.071" />
      </g>
      <g data-name="Ellipse 1184" transform="translate(5241.205 2438.13)">
        <circle cx="2.571" cy="2.571" r="2.571" stroke="none" />
        <circle cx="2.571" cy="2.571" r="2.071" />
      </g>
      <g data-name="Ellipse 1185" transform="translate(5258.348 2438.13)">
        <circle cx="2.571" cy="2.571" r="2.571" stroke="none" />
        <circle cx="2.571" cy="2.571" r="2.071" />
      </g>
      <g data-name="Ellipse 1186" transform="translate(5275.49 2438.13)">
        <circle cx="2.571" cy="2.571" r="2.571" stroke="none" />
        <circle cx="2.571" cy="2.571" r="2.071" />
      </g>
      <g data-name="Ellipse 1187" transform="translate(5292.633 2438.13)">
        <circle cx="2.571" cy="2.571" r="2.571" stroke="none" />
        <circle cx="2.571" cy="2.571" r="2.071" />
      </g>
      <g data-name="Ellipse 1188" transform="translate(5104.062 2455.273)">
        <circle cx="2.571" cy="2.571" r="2.571" stroke="none" />
        <circle cx="2.571" cy="2.571" r="2.071" />
      </g>
      <g data-name="Ellipse 1189" transform="translate(5121.205 2455.273)">
        <circle cx="2.571" cy="2.571" r="2.571" stroke="none" />
        <circle cx="2.571" cy="2.571" r="2.071" />
      </g>
      <g data-name="Ellipse 1190" transform="translate(5138.348 2455.273)">
        <circle cx="2.571" cy="2.571" r="2.571" stroke="none" />
        <circle cx="2.571" cy="2.571" r="2.071" />
      </g>
      <g data-name="Ellipse 1191" transform="translate(5155.49 2455.273)">
        <circle cx="2.571" cy="2.571" r="2.571" stroke="none" />
        <circle cx="2.571" cy="2.571" r="2.071" />
      </g>
      <g data-name="Ellipse 1192" transform="translate(5172.633 2455.273)">
        <circle cx="2.571" cy="2.571" r="2.571" stroke="none" />
        <circle cx="2.571" cy="2.571" r="2.071" />
      </g>
      <g data-name="Ellipse 1193" transform="translate(5189.776 2455.273)">
        <circle cx="2.571" cy="2.571" r="2.571" stroke="none" />
        <circle cx="2.571" cy="2.571" r="2.071" />
      </g>
      <g data-name="Ellipse 1194" transform="translate(5206.919 2455.273)">
        <circle cx="2.571" cy="2.571" r="2.571" stroke="none" />
        <circle cx="2.571" cy="2.571" r="2.071" />
      </g>
      <g data-name="Ellipse 1195" transform="translate(5224.062 2455.273)">
        <circle cx="2.571" cy="2.571" r="2.571" stroke="none" />
        <circle cx="2.571" cy="2.571" r="2.071" />
      </g>
      <g data-name="Ellipse 1196" transform="translate(5241.205 2455.273)">
        <circle cx="2.571" cy="2.571" r="2.571" stroke="none" />
        <circle cx="2.571" cy="2.571" r="2.071" />
      </g>
      <g data-name="Ellipse 1197" transform="translate(5258.348 2455.273)">
        <circle cx="2.571" cy="2.571" r="2.571" stroke="none" />
        <circle cx="2.571" cy="2.571" r="2.071" />
      </g>
      <g data-name="Ellipse 1198" transform="translate(5275.49 2455.273)">
        <circle cx="2.571" cy="2.571" r="2.571" stroke="none" />
        <circle cx="2.571" cy="2.571" r="2.071" />
      </g>
      <g data-name="Ellipse 1199" transform="translate(5292.633 2455.273)">
        <circle cx="2.571" cy="2.571" r="2.571" stroke="none" />
        <circle cx="2.571" cy="2.571" r="2.071" />
      </g>
      <g data-name="Ellipse 1200" transform="translate(5104.062 2472.416)">
        <circle cx="2.571" cy="2.571" r="2.571" stroke="none" />
        <circle cx="2.571" cy="2.571" r="2.071" />
      </g>
      <g data-name="Ellipse 1201" transform="translate(5121.205 2472.416)">
        <circle cx="2.571" cy="2.571" r="2.571" stroke="none" />
        <circle cx="2.571" cy="2.571" r="2.071" />
      </g>
      <g data-name="Ellipse 1202" transform="translate(5138.348 2472.416)">
        <circle cx="2.571" cy="2.571" r="2.571" stroke="none" />
        <circle cx="2.571" cy="2.571" r="2.071" />
      </g>
      <g data-name="Ellipse 1203" transform="translate(5155.49 2472.416)">
        <circle cx="2.571" cy="2.571" r="2.571" stroke="none" />
        <circle cx="2.571" cy="2.571" r="2.071" />
      </g>
      <g data-name="Ellipse 1204" transform="translate(5172.633 2472.416)">
        <circle cx="2.571" cy="2.571" r="2.571" stroke="none" />
        <circle cx="2.571" cy="2.571" r="2.071" />
      </g>
      <g data-name="Ellipse 1205" transform="translate(5189.776 2472.416)">
        <circle cx="2.571" cy="2.571" r="2.571" stroke="none" />
        <circle cx="2.571" cy="2.571" r="2.071" />
      </g>
      <g data-name="Ellipse 1206" transform="translate(5206.919 2472.416)">
        <circle cx="2.571" cy="2.571" r="2.571" stroke="none" />
        <circle cx="2.571" cy="2.571" r="2.071" />
      </g>
      <g data-name="Ellipse 1207" transform="translate(5224.062 2472.416)">
        <circle cx="2.571" cy="2.571" r="2.571" stroke="none" />
        <circle cx="2.571" cy="2.571" r="2.071" />
      </g>
      <g data-name="Ellipse 1208" transform="translate(5241.205 2472.416)">
        <circle cx="2.571" cy="2.571" r="2.571" stroke="none" />
        <circle cx="2.571" cy="2.571" r="2.071" />
      </g>
      <g data-name="Ellipse 1209" transform="translate(5258.348 2472.416)">
        <circle cx="2.571" cy="2.571" r="2.571" stroke="none" />
        <circle cx="2.571" cy="2.571" r="2.071" />
      </g>
      <g data-name="Ellipse 1210" transform="translate(5275.49 2472.416)">
        <circle cx="2.571" cy="2.571" r="2.571" stroke="none" />
        <circle cx="2.571" cy="2.571" r="2.071" />
      </g>
      <g data-name="Ellipse 1211" transform="translate(5292.633 2472.416)">
        <circle cx="2.571" cy="2.571" r="2.571" stroke="none" />
        <circle cx="2.571" cy="2.571" r="2.071" />
      </g>
      <g data-name="Ellipse 1212" transform="translate(5104.062 2489.559)">
        <circle cx="2.571" cy="2.571" r="2.571" stroke="none" />
        <circle cx="2.571" cy="2.571" r="2.071" />
      </g>
      <g data-name="Ellipse 1213" transform="translate(5121.205 2489.559)">
        <circle cx="2.571" cy="2.571" r="2.571" stroke="none" />
        <circle cx="2.571" cy="2.571" r="2.071" />
      </g>
      <g data-name="Ellipse 1214" transform="translate(5138.348 2489.559)">
        <circle cx="2.571" cy="2.571" r="2.571" stroke="none" />
        <circle cx="2.571" cy="2.571" r="2.071" />
      </g>
      <g data-name="Ellipse 1215" transform="translate(5155.49 2489.559)">
        <circle cx="2.571" cy="2.571" r="2.571" stroke="none" />
        <circle cx="2.571" cy="2.571" r="2.071" />
      </g>
      <g data-name="Ellipse 1216" transform="translate(5172.633 2489.559)">
        <circle cx="2.571" cy="2.571" r="2.571" stroke="none" />
        <circle cx="2.571" cy="2.571" r="2.071" />
      </g>
      <g data-name="Ellipse 1217" transform="translate(5189.776 2489.559)">
        <circle cx="2.571" cy="2.571" r="2.571" stroke="none" />
        <circle cx="2.571" cy="2.571" r="2.071" />
      </g>
      <g data-name="Ellipse 1218" transform="translate(5206.919 2489.559)">
        <circle cx="2.571" cy="2.571" r="2.571" stroke="none" />
        <circle cx="2.571" cy="2.571" r="2.071" />
      </g>
      <g data-name="Ellipse 1219" transform="translate(5224.062 2489.559)">
        <circle cx="2.571" cy="2.571" r="2.571" stroke="none" />
        <circle cx="2.571" cy="2.571" r="2.071" />
      </g>
      <g data-name="Ellipse 1220" transform="translate(5241.205 2489.559)">
        <circle cx="2.571" cy="2.571" r="2.571" stroke="none" />
        <circle cx="2.571" cy="2.571" r="2.071" />
      </g>
      <g data-name="Ellipse 1221" transform="translate(5258.348 2489.559)">
        <circle cx="2.571" cy="2.571" r="2.571" stroke="none" />
        <circle cx="2.571" cy="2.571" r="2.071" />
      </g>
      <g data-name="Ellipse 1222" transform="translate(5275.49 2489.559)">
        <circle cx="2.571" cy="2.571" r="2.571" stroke="none" />
        <circle cx="2.571" cy="2.571" r="2.071" />
      </g>
      <g data-name="Ellipse 1223" transform="translate(5292.633 2489.559)">
        <circle cx="2.571" cy="2.571" r="2.571" stroke="none" />
        <circle cx="2.571" cy="2.571" r="2.071" />
      </g>
    </g>
  </g>
</svg>