<svg xmlns="http://www.w3.org/2000/svg" xmlns:xlink="http://www.w3.org/1999/xlink" width="866.273" height="579.221" viewBox="0 0 866.273 579.221">
  <defs>
    <clipPath id="clip-path">
      <path id="SVGID" d="M6230.653,1918.052l28.37,407.4-378.529,26.359-18.041-259.077,140.119-158.8Z" fill="none"/>
    </clipPath>
    <clipPath id="clip-path-2">
      <rect id="SVGID-2" data-name="SVGID" width="886.143" height="395.892" transform="translate(5882.843 2510.535) rotate(-93.688)" fill="none"/>
    </clipPath>
    <clipPath id="clip-path-3">
      <path id="SVGID-3" data-name="SVGID" d="M6174.853,2092.441l-48.817,29.6,2.456,57.083-82.9,1.766-6.093-24.675-17.636,14.82a30.174,30.174,0,0,1-24.685,6.02l-63.876-12.656,6.26-38.11,63.73,8.178s19.522-23.431,42.472-35.716c11.961-6.406,35.748-9.176,54.068-10.372l44.3-25.025,21.744-61.629,35.266,10.153Z" fill="none"/>
    </clipPath>
  </defs>
  <g id="illustration" transform="translate(-5657.727 -1918.052)">
    <ellipse id="Ellipse_1356" data-name="Ellipse 1356" cx="433.136" cy="12.994" rx="433.136" ry="12.994" transform="translate(5657.727 2471.284)" fill="#7c8a9f" opacity="0.12"/>
    <circle id="Ellipse_1357" data-name="Ellipse 1357" cx="27.751" cy="27.751" r="27.751" transform="translate(6426.681 2429.546)" fill="#e45c2c"/>
    <path id="Path_24162" data-name="Path 24162" d="M6230.653,1918.052l28.37,407.4-378.529,26.359-18.041-259.077,140.119-158.8Z" fill="#dbe1e4"/>
    <g id="Group_370" data-name="Group 370">
      <g id="Group_369" data-name="Group 369" clip-path="url(#clip-path)">
        <g id="Group_368" data-name="Group 368" opacity="0.5">
          <g id="Group_367" data-name="Group 367" clip-path="url(#clip-path-2)">
            <g id="Group_366" data-name="Group 366">
              <g id="Group_365" data-name="Group 365">
                <g id="Group_364" data-name="Group 364">
                  <g id="Group_317" data-name="Group 317">
                    <g id="Group_316" data-name="Group 316">
                      <path id="Path_24163" data-name="Path 24163" d="M6601.347,2502.678c-22.086,1.433-33.566-2.141-44.669-5.6-10.868-3.383-21.132-6.578-41.7-5.244s-30.334,5.828-40.673,10.587c-10.564,4.862-21.487,9.889-43.572,11.321s-33.566-2.141-44.668-5.6c-10.867-3.383-21.131-6.578-41.7-5.244s-30.331,5.828-40.669,10.586c-10.563,4.862-21.485,9.889-43.57,11.322s-33.564-2.142-44.667-5.6c-10.866-3.384-21.13-6.579-41.7-5.245s-30.331,5.828-40.669,10.587c-10.563,4.862-21.485,9.889-43.569,11.321s-33.565-2.141-44.667-5.6c-10.867-3.383-21.131-6.579-41.7-5.245s-30.33,5.829-40.668,10.587c-10.563,4.862-21.484,9.889-43.568,11.321s-33.564-2.141-44.667-5.6c-10.866-3.383-21.13-6.578-41.7-5.245s-30.331,5.829-40.669,10.587c-10.563,4.862-21.485,9.889-43.569,11.322s-33.564-2.142-44.666-5.6c-10.867-3.384-21.131-6.579-41.7-5.245l-.531-8.188c22.084-1.432,33.564,2.142,44.667,5.6,10.866,3.384,21.129,6.579,41.7,5.245s30.331-5.828,40.669-10.587c10.563-4.862,21.485-9.889,43.569-11.321s33.564,2.141,44.666,5.6c10.867,3.383,21.131,6.579,41.7,5.245s30.33-5.829,40.668-10.587c10.563-4.862,21.484-9.889,43.568-11.322s33.565,2.142,44.667,5.6c10.867,3.383,21.131,6.578,41.7,5.244s30.332-5.828,40.67-10.587c10.563-4.861,21.485-9.889,43.569-11.321s33.565,2.142,44.667,5.6c10.867,3.384,21.131,6.579,41.7,5.245s30.332-5.828,40.67-10.587c10.563-4.862,21.485-9.889,43.569-11.321s33.565,2.141,44.668,5.6c10.866,3.383,21.131,6.579,41.7,5.245s30.334-5.829,40.674-10.588c10.563-4.862,21.486-9.889,43.572-11.321s33.566,2.141,44.669,5.6c10.868,3.383,21.132,6.578,41.7,5.244Z" fill="#fff"/>
                    </g>
                  </g>
                  <g id="Group_319" data-name="Group 319">
                    <g id="Group_318" data-name="Group 318">
                      <path id="Path_24164" data-name="Path 24164" d="M6598.692,2461.739c-22.086,1.433-33.567-2.141-44.67-5.6-10.867-3.383-21.132-6.578-41.7-5.244s-30.333,5.828-40.672,10.587c-10.564,4.862-21.487,9.889-43.573,11.321s-33.565-2.141-44.667-5.6c-10.867-3.383-21.131-6.579-41.7-5.245s-30.331,5.829-40.67,10.587c-10.562,4.862-21.485,9.889-43.569,11.322s-33.565-2.142-44.667-5.6c-10.867-3.384-21.13-6.579-41.7-5.245s-30.331,5.828-40.669,10.587c-10.563,4.862-21.485,9.889-43.57,11.321s-33.565-2.142-44.667-5.6c-10.866-3.383-21.13-6.579-41.7-5.245s-30.331,5.828-40.669,10.587c-10.562,4.862-21.484,9.889-43.567,11.321s-33.565-2.141-44.667-5.6c-10.867-3.383-21.13-6.579-41.7-5.245s-30.33,5.829-40.668,10.587c-10.563,4.862-21.486,9.889-43.57,11.322s-33.564-2.142-44.666-5.6c-10.866-3.383-21.13-6.578-41.7-5.244l-.531-8.188c22.085-1.433,33.565,2.141,44.667,5.6,10.867,3.383,21.13,6.579,41.7,5.245s30.331-5.828,40.67-10.587c10.562-4.862,21.484-9.889,43.568-11.321s33.565,2.141,44.667,5.6c10.866,3.383,21.13,6.578,41.7,5.245s30.33-5.829,40.668-10.587c10.562-4.862,21.484-9.889,43.568-11.322s33.565,2.142,44.667,5.6c10.867,3.383,21.13,6.578,41.7,5.244s30.332-5.828,40.67-10.587c10.563-4.862,21.485-9.889,43.569-11.321s33.565,2.142,44.667,5.6c10.866,3.384,21.13,6.579,41.7,5.245s30.331-5.828,40.67-10.587c10.562-4.862,21.485-9.889,43.569-11.321s33.565,2.141,44.668,5.6c10.866,3.383,21.13,6.578,41.7,5.244s30.334-5.828,40.673-10.587c10.564-4.862,21.487-9.889,43.572-11.321s33.567,2.141,44.67,5.6c10.867,3.383,21.132,6.578,41.7,5.244Z" fill="#fff"/>
                    </g>
                  </g>
                  <g id="Group_321" data-name="Group 321">
                    <g id="Group_320" data-name="Group 320">
                      <path id="Path_24165" data-name="Path 24165" d="M6596.036,2420.8c-22.085,1.433-33.566-2.142-44.669-5.6-10.867-3.383-21.132-6.579-41.7-5.245s-30.333,5.829-40.673,10.588c-10.563,4.862-21.486,9.889-43.572,11.321s-33.565-2.141-44.668-5.6c-10.867-3.383-21.13-6.579-41.7-5.245s-30.331,5.829-40.669,10.587c-10.563,4.862-21.485,9.889-43.569,11.322s-33.565-2.142-44.667-5.6c-10.867-3.383-21.131-6.578-41.7-5.244s-30.331,5.828-40.67,10.586c-10.562,4.862-21.485,9.89-43.569,11.322s-33.565-2.142-44.667-5.6c-10.867-3.384-21.131-6.579-41.7-5.245s-30.331,5.828-40.669,10.587c-10.562,4.862-21.484,9.889-43.568,11.321s-33.564-2.141-44.666-5.6c-10.867-3.383-21.131-6.579-41.7-5.245s-30.331,5.829-40.669,10.587c-10.562,4.862-21.485,9.889-43.569,11.322s-33.564-2.142-44.666-5.6c-10.867-3.383-21.131-6.578-41.7-5.244l-.531-8.188c22.084-1.433,33.565,2.141,44.667,5.6,10.866,3.383,21.13,6.579,41.7,5.245s30.331-5.829,40.67-10.587c10.562-4.862,21.484-9.889,43.568-11.322s33.564,2.142,44.667,5.6c10.866,3.383,21.13,6.578,41.7,5.244s30.331-5.828,40.668-10.586c10.563-4.862,21.485-9.889,43.569-11.322s33.564,2.142,44.667,5.6c10.866,3.384,21.13,6.579,41.7,5.245s30.331-5.828,40.67-10.587c10.562-4.862,21.485-9.889,43.569-11.321s33.564,2.142,44.666,5.6c10.867,3.383,21.131,6.579,41.7,5.245s30.331-5.829,40.67-10.587c10.562-4.862,21.484-9.889,43.568-11.321s33.566,2.141,44.668,5.6c10.867,3.383,21.131,6.578,41.7,5.244s30.334-5.828,40.673-10.587c10.563-4.862,21.486-9.889,43.572-11.321s33.567,2.141,44.67,5.6c10.867,3.383,21.131,6.578,41.7,5.244Z" fill="#fff"/>
                    </g>
                  </g>
                  <g id="Group_323" data-name="Group 323">
                    <g id="Group_322" data-name="Group 322">
                      <path id="Path_24166" data-name="Path 24166" d="M6593.381,2379.861c-22.086,1.432-33.566-2.142-44.669-5.6-10.868-3.383-21.132-6.579-41.7-5.245s-30.334,5.829-40.673,10.588c-10.564,4.861-21.487,9.889-43.572,11.321s-33.566-2.142-44.668-5.6c-10.867-3.383-21.131-6.579-41.7-5.245s-30.331,5.829-40.669,10.587c-10.563,4.862-21.485,9.889-43.57,11.322s-33.564-2.142-44.667-5.6c-10.866-3.383-21.13-6.578-41.7-5.244s-30.331,5.828-40.669,10.586c-10.563,4.862-21.485,9.89-43.569,11.322s-33.565-2.142-44.667-5.6c-10.867-3.384-21.131-6.579-41.7-5.245s-30.33,5.828-40.668,10.587c-10.563,4.862-21.484,9.889-43.568,11.321s-33.564-2.142-44.667-5.6c-10.866-3.383-21.13-6.579-41.7-5.245s-30.331,5.828-40.669,10.587c-10.563,4.862-21.485,9.889-43.569,11.321s-33.564-2.141-44.666-5.6c-10.867-3.383-21.131-6.578-41.7-5.245l-.531-8.187c22.084-1.433,33.564,2.141,44.667,5.6,10.866,3.383,21.129,6.579,41.7,5.245s30.331-5.829,40.669-10.587c10.563-4.862,21.485-9.889,43.569-11.322s33.564,2.142,44.666,5.6c10.867,3.383,21.131,6.578,41.7,5.244s30.33-5.828,40.668-10.586c10.563-4.862,21.484-9.889,43.568-11.322s33.565,2.142,44.667,5.6c10.867,3.384,21.131,6.579,41.7,5.245s30.332-5.828,40.67-10.587c10.563-4.862,21.485-9.889,43.569-11.321s33.565,2.141,44.667,5.6c10.867,3.383,21.131,6.579,41.7,5.245s30.332-5.829,40.67-10.587c10.563-4.862,21.485-9.889,43.569-11.322s33.565,2.142,44.668,5.6c10.866,3.383,21.131,6.578,41.7,5.244s30.334-5.828,40.674-10.587c10.563-4.862,21.486-9.889,43.572-11.321s33.566,2.141,44.669,5.6c10.868,3.383,21.132,6.578,41.7,5.244Z" fill="#fff"/>
                    </g>
                  </g>
                  <g id="Group_325" data-name="Group 325">
                    <g id="Group_324" data-name="Group 324">
                      <path id="Path_24167" data-name="Path 24167" d="M6590.726,2338.922c-22.086,1.432-33.567-2.142-44.67-5.6-10.867-3.384-21.132-6.579-41.7-5.245s-30.333,5.829-40.672,10.588c-10.564,4.861-21.487,9.888-43.573,11.321s-33.565-2.142-44.667-5.6c-10.867-3.384-21.131-6.579-41.7-5.245s-30.331,5.828-40.67,10.587c-10.562,4.862-21.485,9.889-43.569,11.321s-33.565-2.141-44.667-5.6c-10.867-3.383-21.13-6.578-41.7-5.244s-30.331,5.828-40.669,10.586c-10.563,4.862-21.485,9.889-43.57,11.322s-33.565-2.142-44.667-5.6c-10.866-3.384-21.13-6.579-41.7-5.245s-30.331,5.828-40.669,10.587c-10.562,4.862-21.484,9.889-43.567,11.321s-33.565-2.142-44.667-5.6c-10.866-3.384-21.13-6.579-41.7-5.245s-30.33,5.828-40.668,10.587c-10.563,4.862-21.486,9.889-43.57,11.321s-33.564-2.141-44.666-5.6c-10.866-3.383-21.13-6.579-41.7-5.245l-.531-8.187c22.085-1.433,33.565,2.141,44.667,5.6,10.867,3.383,21.13,6.578,41.7,5.245s30.331-5.829,40.67-10.588c10.562-4.861,21.484-9.888,43.568-11.321s33.565,2.142,44.667,5.6c10.866,3.384,21.13,6.579,41.7,5.245s30.33-5.828,40.668-10.586c10.562-4.862,21.484-9.89,43.568-11.322s33.565,2.142,44.667,5.6c10.867,3.384,21.13,6.579,41.7,5.245s30.332-5.828,40.67-10.587c10.563-4.862,21.485-9.889,43.569-11.321s33.565,2.141,44.667,5.6c10.866,3.383,21.13,6.579,41.7,5.245s30.331-5.829,40.67-10.588c10.562-4.861,21.485-9.888,43.569-11.321s33.565,2.142,44.668,5.6c10.866,3.383,21.13,6.578,41.7,5.244s30.334-5.828,40.673-10.587c10.564-4.862,21.487-9.889,43.572-11.322s33.567,2.142,44.67,5.6c10.867,3.384,21.132,6.579,41.7,5.245Z" fill="#fff"/>
                    </g>
                  </g>
                  <g id="Group_327" data-name="Group 327">
                    <g id="Group_326" data-name="Group 326">
                      <path id="Path_24168" data-name="Path 24168" d="M6588.07,2297.983c-22.085,1.432-33.566-2.142-44.669-5.6-10.867-3.384-21.132-6.579-41.7-5.245s-30.333,5.829-40.673,10.587c-10.563,4.862-21.486,9.889-43.572,11.322s-33.565-2.142-44.668-5.6c-10.867-3.384-21.13-6.579-41.7-5.245s-30.331,5.828-40.669,10.587c-10.563,4.862-21.485,9.889-43.569,11.321s-33.565-2.141-44.667-5.6c-10.867-3.383-21.131-6.579-41.7-5.245s-30.331,5.829-40.67,10.587c-10.562,4.862-21.485,9.889-43.569,11.322s-33.565-2.142-44.667-5.6c-10.867-3.384-21.131-6.579-41.7-5.245s-30.331,5.828-40.669,10.587c-10.562,4.862-21.484,9.889-43.568,11.321s-33.564-2.142-44.666-5.6c-10.867-3.384-21.131-6.579-41.7-5.245s-30.331,5.828-40.669,10.587c-10.562,4.862-21.485,9.889-43.569,11.321s-33.564-2.141-44.666-5.6c-10.867-3.383-21.131-6.579-41.7-5.245l-.531-8.188c22.084-1.432,33.565,2.142,44.667,5.6,10.866,3.383,21.13,6.578,41.7,5.244s30.331-5.828,40.67-10.587c10.562-4.861,21.484-9.888,43.568-11.321s33.564,2.142,44.667,5.6c10.866,3.384,21.13,6.579,41.7,5.245s30.331-5.828,40.668-10.586c10.563-4.863,21.485-9.89,43.569-11.322s33.564,2.142,44.667,5.6c10.866,3.384,21.13,6.579,41.7,5.245s30.331-5.828,40.67-10.587c10.562-4.862,21.485-9.889,43.569-11.321s33.564,2.141,44.667,5.6c10.866,3.383,21.13,6.578,41.7,5.245s30.331-5.829,40.67-10.588c10.562-4.861,21.484-9.888,43.568-11.321s33.566,2.142,44.668,5.6c10.867,3.383,21.131,6.578,41.7,5.244s30.334-5.828,40.673-10.587c10.563-4.862,21.486-9.889,43.572-11.322s33.567,2.142,44.67,5.6c10.867,3.384,21.131,6.579,41.7,5.245Z" fill="#fff"/>
                    </g>
                  </g>
                  <g id="Group_329" data-name="Group 329">
                    <g id="Group_328" data-name="Group 328">
                      <path id="Path_24169" data-name="Path 24169" d="M6585.415,2257.044c-22.086,1.432-33.566-2.142-44.669-5.6-10.868-3.384-21.132-6.579-41.7-5.245s-30.334,5.829-40.673,10.587c-10.564,4.862-21.487,9.889-43.572,11.322s-33.566-2.142-44.668-5.6c-10.867-3.384-21.131-6.579-41.7-5.245s-30.331,5.828-40.669,10.587c-10.563,4.862-21.485,9.889-43.57,11.321s-33.564-2.141-44.667-5.6c-10.866-3.383-21.13-6.579-41.7-5.245s-30.331,5.829-40.669,10.587c-10.563,4.862-21.485,9.889-43.569,11.322s-33.565-2.142-44.667-5.6c-10.867-3.383-21.131-6.578-41.7-5.244s-30.33,5.828-40.668,10.587c-10.563,4.861-21.484,9.889-43.568,11.321s-33.564-2.142-44.667-5.6c-10.866-3.384-21.13-6.579-41.7-5.245s-30.331,5.828-40.669,10.587c-10.563,4.862-21.485,9.889-43.569,11.321s-33.564-2.142-44.666-5.6c-10.867-3.383-21.131-6.579-41.7-5.245l-.531-8.188c22.084-1.432,33.564,2.142,44.667,5.6,10.866,3.383,21.129,6.578,41.7,5.244s30.331-5.828,40.669-10.587c10.563-4.861,21.485-9.889,43.569-11.321s33.564,2.142,44.666,5.6c10.867,3.384,21.131,6.579,41.7,5.245s30.33-5.828,40.668-10.587c10.563-4.862,21.484-9.889,43.568-11.321s33.565,2.142,44.667,5.6c10.867,3.383,21.131,6.579,41.7,5.245s30.332-5.829,40.67-10.587c10.563-4.862,21.485-9.889,43.569-11.321s33.565,2.141,44.667,5.6c10.867,3.383,21.131,6.578,41.7,5.244s30.332-5.828,40.67-10.587c10.563-4.861,21.485-9.888,43.569-11.321s33.565,2.142,44.668,5.6c10.867,3.383,21.131,6.578,41.7,5.244s30.334-5.829,40.674-10.587c10.563-4.862,21.486-9.889,43.572-11.322s33.566,2.142,44.669,5.6c10.868,3.384,21.132,6.579,41.7,5.245Z" fill="#fff"/>
                    </g>
                  </g>
                  <g id="Group_331" data-name="Group 331">
                    <g id="Group_330" data-name="Group 330">
                      <path id="Path_24170" data-name="Path 24170" d="M6582.76,2216.1c-22.086,1.432-33.567-2.142-44.67-5.6-10.867-3.384-21.132-6.579-41.7-5.245s-30.333,5.828-40.672,10.587c-10.564,4.862-21.487,9.889-43.573,11.322s-33.565-2.142-44.667-5.6c-10.867-3.384-21.131-6.579-41.7-5.245s-30.331,5.828-40.67,10.587c-10.562,4.862-21.485,9.889-43.569,11.321s-33.565-2.142-44.667-5.6c-10.866-3.383-21.13-6.579-41.7-5.245s-30.331,5.829-40.669,10.587c-10.563,4.862-21.485,9.889-43.57,11.322s-33.565-2.142-44.667-5.6c-10.866-3.383-21.13-6.578-41.7-5.244s-30.331,5.828-40.669,10.587c-10.562,4.861-21.484,9.888-43.567,11.321s-33.565-2.142-44.667-5.6c-10.866-3.384-21.13-6.579-41.7-5.245s-30.33,5.828-40.668,10.586c-10.563,4.863-21.486,9.89-43.57,11.322s-33.563-2.142-44.666-5.6c-10.866-3.384-21.13-6.579-41.7-5.245l-.531-8.188c22.085-1.432,33.565,2.142,44.667,5.6,10.867,3.383,21.13,6.578,41.7,5.244s30.331-5.828,40.67-10.587c10.562-4.862,21.484-9.889,43.568-11.321s33.565,2.142,44.667,5.6c10.867,3.384,21.13,6.579,41.7,5.245s30.33-5.828,40.668-10.587c10.562-4.862,21.484-9.889,43.568-11.321s33.565,2.141,44.667,5.6c10.867,3.383,21.13,6.579,41.7,5.245s30.332-5.829,40.67-10.587c10.563-4.862,21.485-9.889,43.569-11.322s33.565,2.142,44.667,5.6c10.866,3.383,21.13,6.578,41.7,5.244s30.331-5.828,40.67-10.587c10.562-4.861,21.485-9.889,43.569-11.321s33.565,2.142,44.668,5.6c10.866,3.383,21.13,6.578,41.7,5.244s30.334-5.829,40.673-10.587c10.564-4.862,21.487-9.889,43.572-11.322s33.567,2.142,44.67,5.6c10.867,3.384,21.132,6.579,41.7,5.245Z" fill="#fff"/>
                    </g>
                  </g>
                  <g id="Group_333" data-name="Group 333">
                    <g id="Group_332" data-name="Group 332">
                      <path id="Path_24171" data-name="Path 24171" d="M6580.1,2175.165c-22.085,1.433-33.566-2.141-44.669-5.6-10.867-3.383-21.132-6.578-41.7-5.244s-30.333,5.828-40.673,10.587c-10.563,4.862-21.486,9.889-43.572,11.322s-33.565-2.142-44.667-5.6c-10.868-3.383-21.131-6.578-41.7-5.244s-30.331,5.828-40.669,10.586c-10.563,4.863-21.485,9.89-43.569,11.322s-33.565-2.142-44.667-5.6c-10.867-3.384-21.131-6.579-41.7-5.245s-30.331,5.828-40.67,10.587c-10.562,4.862-21.485,9.889-43.569,11.321s-33.565-2.141-44.667-5.6c-10.867-3.383-21.131-6.578-41.7-5.244s-30.331,5.828-40.669,10.587c-10.562,4.861-21.484,9.888-43.568,11.321s-33.564-2.142-44.666-5.6c-10.867-3.383-21.131-6.578-41.7-5.244s-30.331,5.828-40.669,10.586c-10.562,4.862-21.485,9.89-43.569,11.322s-33.564-2.142-44.666-5.6c-10.867-3.384-21.131-6.579-41.7-5.245l-.531-8.188c22.084-1.432,33.565,2.142,44.667,5.6,10.866,3.383,21.13,6.578,41.7,5.244s30.331-5.828,40.67-10.587c10.562-4.862,21.484-9.889,43.568-11.321s33.564,2.142,44.667,5.6c10.866,3.383,21.13,6.579,41.7,5.245s30.331-5.828,40.668-10.587c10.563-4.862,21.485-9.889,43.569-11.321s33.564,2.141,44.667,5.6c10.866,3.383,21.13,6.579,41.7,5.245s30.331-5.829,40.67-10.588c10.562-4.861,21.485-9.888,43.569-11.321s33.564,2.142,44.667,5.6c10.866,3.384,21.13,6.579,41.7,5.245s30.331-5.828,40.67-10.587c10.562-4.862,21.485-9.889,43.568-11.321s33.566,2.142,44.668,5.6c10.867,3.383,21.131,6.579,41.7,5.245s30.334-5.829,40.673-10.588c10.563-4.861,21.486-9.888,43.572-11.321s33.567,2.142,44.67,5.6c10.867,3.383,21.131,6.579,41.7,5.245Z" fill="#fff"/>
                    </g>
                  </g>
                  <g id="Group_335" data-name="Group 335">
                    <g id="Group_334" data-name="Group 334">
                      <path id="Path_24172" data-name="Path 24172" d="M6577.449,2134.226c-22.085,1.433-33.566-2.141-44.669-5.6-10.868-3.383-21.132-6.578-41.7-5.244s-30.334,5.828-40.673,10.587c-10.564,4.862-21.487,9.889-43.572,11.322s-33.566-2.142-44.668-5.6c-10.867-3.383-21.131-6.578-41.7-5.244s-30.331,5.828-40.669,10.586c-10.563,4.862-21.485,9.89-43.57,11.322s-33.564-2.142-44.667-5.6c-10.866-3.384-21.13-6.579-41.7-5.245s-30.331,5.828-40.669,10.587c-10.563,4.862-21.485,9.889-43.569,11.321s-33.565-2.141-44.667-5.6c-10.867-3.383-21.131-6.579-41.7-5.245s-30.33,5.829-40.668,10.587c-10.563,4.862-21.484,9.889-43.568,11.322s-33.564-2.142-44.666-5.6c-10.867-3.383-21.131-6.578-41.7-5.244s-30.331,5.828-40.669,10.586c-10.563,4.862-21.485,9.889-43.569,11.322s-33.564-2.142-44.666-5.6c-10.867-3.384-21.131-6.579-41.7-5.245l-.531-8.188c22.084-1.432,33.564,2.142,44.667,5.6,10.866,3.383,21.129,6.578,41.7,5.244s30.331-5.828,40.669-10.587c10.563-4.862,21.485-9.889,43.569-11.321s33.564,2.141,44.666,5.6c10.867,3.383,21.131,6.579,41.7,5.245s30.33-5.828,40.668-10.587c10.563-4.862,21.484-9.889,43.568-11.321s33.565,2.141,44.667,5.6c10.867,3.383,21.131,6.578,41.7,5.245s30.331-5.829,40.669-10.588c10.563-4.861,21.485-9.888,43.569-11.321s33.565,2.142,44.667,5.6c10.867,3.384,21.131,6.579,41.7,5.245s30.332-5.828,40.67-10.587c10.563-4.862,21.485-9.889,43.569-11.321s33.565,2.141,44.668,5.6c10.867,3.383,21.131,6.579,41.7,5.245s30.334-5.829,40.674-10.588c10.563-4.861,21.486-9.889,43.572-11.321s33.566,2.142,44.669,5.6c10.868,3.383,21.132,6.579,41.7,5.245Z" fill="#fff"/>
                    </g>
                  </g>
                  <g id="Group_337" data-name="Group 337">
                    <g id="Group_336" data-name="Group 336">
                      <path id="Path_24173" data-name="Path 24173" d="M6574.794,2093.287c-22.086,1.433-33.567-2.141-44.67-5.6-10.867-3.383-21.132-6.578-41.7-5.244s-30.333,5.828-40.672,10.587c-10.564,4.862-21.487,9.889-43.573,11.321s-33.565-2.141-44.667-5.6c-10.867-3.383-21.131-6.578-41.7-5.244s-30.331,5.828-40.67,10.586c-10.562,4.862-21.485,9.889-43.569,11.322s-33.565-2.142-44.667-5.6c-10.866-3.384-21.13-6.579-41.7-5.245s-30.331,5.828-40.669,10.587c-10.563,4.862-21.485,9.889-43.57,11.321s-33.565-2.141-44.667-5.6c-10.866-3.383-21.13-6.579-41.7-5.245s-30.331,5.829-40.669,10.587c-10.562,4.862-21.484,9.889-43.567,11.321s-33.565-2.141-44.667-5.6c-10.866-3.383-21.13-6.578-41.7-5.244s-30.33,5.828-40.668,10.586c-10.563,4.862-21.486,9.889-43.57,11.322s-33.563-2.142-44.666-5.6c-10.866-3.384-21.13-6.579-41.7-5.245l-.531-8.188c22.085-1.432,33.565,2.142,44.667,5.6,10.867,3.383,21.13,6.578,41.7,5.244s30.331-5.828,40.67-10.587c10.562-4.862,21.484-9.889,43.568-11.321s33.565,2.141,44.667,5.6c10.867,3.383,21.13,6.579,41.7,5.245s30.33-5.829,40.668-10.587c10.562-4.862,21.484-9.889,43.568-11.321s33.565,2.141,44.667,5.6c10.867,3.383,21.13,6.578,41.7,5.244s30.332-5.828,40.67-10.587c10.563-4.861,21.485-9.888,43.569-11.321s33.565,2.142,44.667,5.6c10.866,3.384,21.13,6.579,41.7,5.245s30.331-5.828,40.67-10.587c10.562-4.862,21.485-9.889,43.569-11.321s33.565,2.141,44.668,5.6c10.866,3.383,21.13,6.579,41.7,5.245s30.334-5.829,40.673-10.588c10.564-4.861,21.487-9.889,43.572-11.321s33.567,2.141,44.67,5.6c10.867,3.383,21.132,6.578,41.7,5.244Z" fill="#fff"/>
                    </g>
                  </g>
                  <g id="Group_339" data-name="Group 339">
                    <g id="Group_338" data-name="Group 338">
                      <path id="Path_24174" data-name="Path 24174" d="M6572.138,2052.348c-22.085,1.433-33.566-2.141-44.669-5.6-10.867-3.383-21.132-6.578-41.7-5.244s-30.333,5.828-40.673,10.587c-10.563,4.862-21.486,9.889-43.572,11.321s-33.565-2.141-44.667-5.6c-10.868-3.383-21.131-6.579-41.7-5.245s-30.331,5.829-40.67,10.587c-10.563,4.862-21.485,9.889-43.569,11.322s-33.565-2.142-44.667-5.6c-10.867-3.384-21.131-6.579-41.7-5.245s-30.331,5.828-40.67,10.587c-10.562,4.862-21.485,9.889-43.569,11.321s-33.565-2.142-44.667-5.6c-10.867-3.383-21.131-6.579-41.7-5.245s-30.331,5.829-40.669,10.587c-10.562,4.862-21.484,9.889-43.568,11.321s-33.564-2.141-44.666-5.6c-10.867-3.383-21.131-6.579-41.7-5.245s-30.331,5.829-40.669,10.587c-10.562,4.862-21.485,9.889-43.569,11.322s-33.564-2.142-44.666-5.6c-10.867-3.383-21.131-6.578-41.7-5.244l-.531-8.188c22.084-1.433,33.565,2.142,44.667,5.6,10.866,3.383,21.13,6.579,41.7,5.245s30.331-5.828,40.67-10.587c10.562-4.862,21.484-9.889,43.568-11.321s33.564,2.141,44.667,5.6c10.866,3.383,21.13,6.579,41.7,5.245s30.331-5.829,40.668-10.587c10.563-4.862,21.485-9.889,43.569-11.322s33.564,2.142,44.667,5.6c10.866,3.383,21.13,6.578,41.7,5.244s30.331-5.828,40.67-10.587c10.562-4.861,21.485-9.889,43.569-11.321s33.564,2.142,44.667,5.6c10.866,3.384,21.13,6.579,41.7,5.245s30.331-5.828,40.67-10.587c10.562-4.862,21.485-9.889,43.568-11.321s33.566,2.141,44.668,5.6c10.867,3.383,21.131,6.578,41.7,5.244s30.334-5.828,40.673-10.587c10.563-4.862,21.486-9.889,43.572-11.321s33.567,2.141,44.67,5.6c10.867,3.383,21.131,6.578,41.7,5.244Z" fill="#fff"/>
                    </g>
                  </g>
                  <g id="Group_341" data-name="Group 341">
                    <g id="Group_340" data-name="Group 340">
                      <path id="Path_24175" data-name="Path 24175" d="M6569.483,2011.409c-22.085,1.433-33.566-2.141-44.669-5.6-10.868-3.383-21.132-6.579-41.7-5.244s-30.334,5.828-40.673,10.587c-10.564,4.862-21.487,9.889-43.572,11.321s-33.566-2.141-44.668-5.6c-10.867-3.383-21.131-6.579-41.7-5.245s-30.331,5.829-40.669,10.587c-10.563,4.862-21.485,9.889-43.57,11.322s-33.564-2.142-44.667-5.6c-10.866-3.384-21.13-6.579-41.7-5.245s-30.331,5.828-40.669,10.586c-10.563,4.863-21.485,9.89-43.569,11.322s-33.565-2.142-44.667-5.6c-10.867-3.384-21.131-6.579-41.7-5.245s-30.33,5.828-40.668,10.587c-10.563,4.862-21.484,9.889-43.568,11.321s-33.564-2.141-44.666-5.6c-10.867-3.383-21.131-6.579-41.7-5.245s-30.331,5.829-40.669,10.587c-10.563,4.862-21.485,9.889-43.569,11.322s-33.564-2.142-44.666-5.6c-10.867-3.383-21.131-6.578-41.7-5.244l-.531-8.188c22.084-1.433,33.565,2.141,44.667,5.6,10.866,3.383,21.129,6.579,41.7,5.245s30.331-5.829,40.669-10.587c10.563-4.862,21.485-9.889,43.569-11.321s33.564,2.141,44.666,5.6c10.867,3.383,21.131,6.578,41.7,5.244s30.33-5.828,40.668-10.586c10.563-4.862,21.484-9.889,43.568-11.322s33.565,2.142,44.667,5.6c10.867,3.384,21.131,6.579,41.7,5.245s30.331-5.828,40.669-10.587c10.563-4.862,21.485-9.889,43.569-11.321s33.565,2.142,44.667,5.6c10.867,3.384,21.131,6.579,41.7,5.245s30.332-5.828,40.67-10.587c10.563-4.862,21.485-9.889,43.569-11.321s33.565,2.141,44.668,5.6c10.867,3.383,21.131,6.578,41.7,5.244s30.334-5.828,40.674-10.587c10.563-4.862,21.486-9.889,43.572-11.321s33.566,2.141,44.669,5.6c10.868,3.383,21.132,6.578,41.7,5.244Z" fill="#fff"/>
                    </g>
                  </g>
                  <g id="Group_343" data-name="Group 343">
                    <g id="Group_342" data-name="Group 342">
                      <path id="Path_24176" data-name="Path 24176" d="M6566.828,1970.47c-22.086,1.432-33.567-2.142-44.67-5.6-10.867-3.383-21.132-6.579-41.7-5.245s-30.333,5.829-40.672,10.588c-10.564,4.861-21.487,9.889-43.573,11.321s-33.565-2.142-44.667-5.6c-10.867-3.383-21.131-6.579-41.7-5.245s-30.331,5.829-40.67,10.587c-10.562,4.862-21.485,9.889-43.569,11.322s-33.565-2.142-44.667-5.6c-10.866-3.383-21.13-6.578-41.7-5.244s-30.331,5.828-40.669,10.586c-10.563,4.862-21.485,9.89-43.57,11.322s-33.564-2.142-44.667-5.6c-10.866-3.384-21.13-6.579-41.7-5.245s-30.331,5.828-40.669,10.587c-10.562,4.862-21.484,9.889-43.567,11.321s-33.565-2.142-44.667-5.6c-10.866-3.383-21.13-6.579-41.7-5.245s-30.33,5.829-40.668,10.587c-10.563,4.862-21.486,9.889-43.57,11.321s-33.563-2.141-44.666-5.6c-10.866-3.383-21.13-6.578-41.7-5.245l-.531-8.187c22.085-1.433,33.565,2.141,44.667,5.6,10.867,3.383,21.13,6.579,41.7,5.245s30.331-5.829,40.67-10.587c10.562-4.862,21.484-9.889,43.568-11.322s33.565,2.142,44.667,5.6c10.867,3.383,21.13,6.578,41.7,5.244s30.33-5.828,40.668-10.586c10.562-4.862,21.484-9.889,43.568-11.322s33.565,2.142,44.667,5.6c10.867,3.384,21.13,6.579,41.7,5.245s30.332-5.828,40.67-10.587c10.563-4.862,21.485-9.889,43.569-11.321s33.565,2.142,44.667,5.6c10.867,3.383,21.13,6.579,41.7,5.245s30.331-5.829,40.67-10.587c10.562-4.862,21.485-9.889,43.569-11.322s33.565,2.142,44.668,5.6c10.866,3.383,21.13,6.578,41.7,5.244s30.334-5.828,40.673-10.587c10.564-4.862,21.487-9.889,43.572-11.321s33.567,2.141,44.67,5.6c10.867,3.383,21.132,6.578,41.7,5.244Z" fill="#fff"/>
                    </g>
                  </g>
                  <g id="Group_345" data-name="Group 345">
                    <g id="Group_344" data-name="Group 344">
                      <path id="Path_24177" data-name="Path 24177" d="M6564.172,1929.531c-22.085,1.432-33.566-2.142-44.669-5.6-10.867-3.383-21.132-6.579-41.7-5.245s-30.333,5.829-40.673,10.588c-10.563,4.861-21.486,9.889-43.572,11.321s-33.565-2.142-44.667-5.6c-10.868-3.384-21.131-6.579-41.7-5.245s-30.331,5.828-40.67,10.587c-10.563,4.862-21.485,9.889-43.569,11.321s-33.565-2.141-44.667-5.6c-10.867-3.383-21.131-6.578-41.7-5.244s-30.331,5.828-40.67,10.586c-10.562,4.862-21.485,9.889-43.569,11.322s-33.565-2.142-44.667-5.6c-10.867-3.384-21.131-6.579-41.7-5.245s-30.331,5.828-40.669,10.587c-10.562,4.862-21.484,9.889-43.568,11.321s-33.564-2.142-44.666-5.6c-10.867-3.384-21.131-6.579-41.7-5.245s-30.331,5.828-40.669,10.587c-10.562,4.862-21.485,9.889-43.569,11.321s-33.564-2.141-44.666-5.6c-10.867-3.383-21.131-6.579-41.7-5.245l-.531-8.187c22.084-1.433,33.565,2.141,44.667,5.6,10.866,3.383,21.13,6.578,41.7,5.245s30.331-5.829,40.67-10.588c10.562-4.861,21.484-9.888,43.568-11.321s33.564,2.142,44.667,5.6c10.866,3.384,21.13,6.579,41.7,5.245s30.331-5.828,40.668-10.586c10.563-4.862,21.485-9.889,43.569-11.322s33.564,2.142,44.667,5.6c10.866,3.384,21.13,6.579,41.7,5.245s30.331-5.828,40.67-10.587c10.563-4.862,21.485-9.889,43.569-11.321s33.564,2.141,44.667,5.6c10.866,3.383,21.13,6.579,41.7,5.245s30.331-5.829,40.67-10.587c10.562-4.862,21.485-9.889,43.568-11.322s33.566,2.142,44.668,5.6c10.867,3.383,21.131,6.578,41.7,5.244s30.334-5.828,40.673-10.587c10.563-4.862,21.486-9.889,43.572-11.322s33.567,2.142,44.67,5.6c10.867,3.384,21.131,6.579,41.7,5.245Z" fill="#fff"/>
                    </g>
                  </g>
                  <g id="Group_347" data-name="Group 347">
                    <g id="Group_346" data-name="Group 346">
                      <path id="Path_24178" data-name="Path 24178" d="M6561.517,1888.592c-22.085,1.432-33.566-2.142-44.669-5.6-10.868-3.384-21.132-6.579-41.7-5.245s-30.334,5.829-40.673,10.588c-10.564,4.861-21.487,9.888-43.572,11.321s-33.566-2.142-44.668-5.6c-10.867-3.384-21.131-6.579-41.7-5.245s-30.331,5.828-40.669,10.587c-10.563,4.862-21.485,9.889-43.57,11.321s-33.564-2.141-44.666-5.6c-10.867-3.383-21.131-6.578-41.7-5.245s-30.331,5.829-40.669,10.587c-10.563,4.862-21.485,9.889-43.569,11.322s-33.565-2.142-44.667-5.6c-10.867-3.384-21.131-6.579-41.7-5.245s-30.33,5.828-40.668,10.587c-10.563,4.862-21.484,9.889-43.568,11.321s-33.564-2.142-44.666-5.6c-10.867-3.384-21.131-6.579-41.7-5.245s-30.331,5.828-40.669,10.587c-10.563,4.862-21.485,9.889-43.569,11.321s-33.564-2.141-44.666-5.6c-10.867-3.383-21.131-6.579-41.7-5.245l-.531-8.188c22.084-1.432,33.565,2.142,44.667,5.6,10.866,3.383,21.129,6.578,41.7,5.244s30.331-5.828,40.669-10.587c10.563-4.861,21.485-9.888,43.569-11.321s33.564,2.142,44.666,5.6c10.867,3.384,21.131,6.579,41.7,5.245s30.33-5.828,40.668-10.586c10.563-4.862,21.484-9.89,43.568-11.322s33.565,2.142,44.667,5.6c10.867,3.384,21.131,6.579,41.7,5.245s30.331-5.828,40.669-10.587c10.563-4.862,21.485-9.889,43.569-11.321s33.565,2.141,44.667,5.6c10.867,3.383,21.131,6.579,41.7,5.245s30.332-5.829,40.67-10.588c10.563-4.861,21.485-9.888,43.569-11.321s33.565,2.142,44.668,5.6c10.867,3.383,21.131,6.578,41.7,5.244s30.333-5.828,40.673-10.587c10.563-4.862,21.486-9.889,43.572-11.322s33.566,2.142,44.669,5.6c10.868,3.384,21.132,6.579,41.7,5.245Z" fill="#fff"/>
                    </g>
                  </g>
                  <g id="Group_349" data-name="Group 349">
                    <g id="Group_348" data-name="Group 348">
                      <path id="Path_24179" data-name="Path 24179" d="M6558.862,1847.653c-22.086,1.432-33.567-2.142-44.67-5.6-10.867-3.384-21.132-6.579-41.7-5.245s-30.333,5.829-40.672,10.587c-10.564,4.862-21.487,9.889-43.573,11.322s-33.565-2.142-44.667-5.6c-10.867-3.384-21.131-6.579-41.7-5.245s-30.331,5.828-40.67,10.587c-10.562,4.862-21.485,9.889-43.569,11.321s-33.565-2.141-44.667-5.6c-10.866-3.383-21.13-6.579-41.7-5.245s-30.331,5.829-40.669,10.587c-10.563,4.862-21.485,9.889-43.57,11.322s-33.564-2.142-44.667-5.6c-10.866-3.384-21.13-6.579-41.7-5.245s-30.331,5.828-40.669,10.587c-10.562,4.861-21.484,9.889-43.567,11.321s-33.565-2.142-44.667-5.6c-10.866-3.384-21.13-6.579-41.7-5.245s-30.33,5.828-40.668,10.587c-10.563,4.862-21.486,9.889-43.57,11.321s-33.563-2.142-44.666-5.6c-10.866-3.383-21.13-6.579-41.7-5.245l-.532-8.188c22.085-1.432,33.565,2.142,44.667,5.6,10.867,3.383,21.13,6.578,41.7,5.244s30.331-5.828,40.67-10.587c10.562-4.861,21.484-9.889,43.568-11.321s33.565,2.142,44.667,5.6c10.867,3.384,21.13,6.579,41.7,5.245s30.33-5.828,40.668-10.587c10.562-4.862,21.484-9.889,43.568-11.321s33.565,2.142,44.667,5.6c10.867,3.384,21.13,6.579,41.7,5.245s30.332-5.828,40.67-10.587c10.563-4.862,21.485-9.889,43.569-11.321s33.565,2.141,44.667,5.6c10.867,3.383,21.13,6.578,41.7,5.244s30.331-5.828,40.67-10.587c10.562-4.861,21.485-9.888,43.569-11.321s33.565,2.142,44.668,5.6c10.866,3.383,21.13,6.578,41.7,5.244s30.334-5.828,40.673-10.587c10.564-4.862,21.487-9.889,43.572-11.322s33.567,2.142,44.67,5.6c10.867,3.384,21.132,6.579,41.7,5.245Z" fill="#fff"/>
                    </g>
                  </g>
                  <g id="Group_351" data-name="Group 351">
                    <g id="Group_350" data-name="Group 350">
                      <path id="Path_24180" data-name="Path 24180" d="M6556.206,1806.714c-22.085,1.432-33.566-2.142-44.669-5.6-10.867-3.384-21.132-6.579-41.7-5.245s-30.333,5.828-40.673,10.587c-10.563,4.862-21.486,9.889-43.572,11.322s-33.565-2.142-44.667-5.6c-10.868-3.384-21.131-6.579-41.7-5.245s-30.331,5.828-40.67,10.587c-10.563,4.862-21.485,9.889-43.569,11.321s-33.565-2.141-44.667-5.6c-10.867-3.383-21.131-6.579-41.7-5.245s-30.331,5.829-40.67,10.587c-10.562,4.862-21.485,9.889-43.569,11.322s-33.565-2.142-44.667-5.6c-10.867-3.383-21.131-6.578-41.7-5.244s-30.331,5.828-40.669,10.587c-10.562,4.861-21.484,9.888-43.568,11.321s-33.564-2.142-44.666-5.6c-10.867-3.384-21.131-6.579-41.7-5.245s-30.331,5.828-40.669,10.587c-10.562,4.862-21.485,9.889-43.569,11.321s-33.564-2.142-44.666-5.6c-10.867-3.384-21.131-6.579-41.7-5.245l-.531-8.188c22.084-1.432,33.565,2.142,44.667,5.6,10.866,3.383,21.13,6.578,41.7,5.244s30.331-5.828,40.67-10.587c10.562-4.861,21.484-9.889,43.568-11.321s33.564,2.142,44.667,5.6c10.866,3.384,21.13,6.579,41.7,5.245s30.331-5.828,40.668-10.587c10.563-4.862,21.485-9.889,43.569-11.321s33.564,2.142,44.667,5.6c10.866,3.383,21.13,6.579,41.7,5.245s30.331-5.829,40.67-10.587c10.563-4.862,21.485-9.889,43.569-11.322s33.564,2.142,44.667,5.6c10.866,3.383,21.13,6.578,41.7,5.244s30.331-5.828,40.67-10.587c10.562-4.861,21.485-9.889,43.568-11.321s33.566,2.142,44.668,5.6c10.867,3.383,21.131,6.578,41.7,5.244s30.334-5.829,40.673-10.587c10.563-4.862,21.486-9.889,43.572-11.322s33.567,2.142,44.67,5.6c10.867,3.384,21.131,6.579,41.7,5.245Z" fill="#fff"/>
                    </g>
                  </g>
                  <g id="Group_353" data-name="Group 353">
                    <g id="Group_352" data-name="Group 352">
                      <path id="Path_24181" data-name="Path 24181" d="M6553.551,1765.775c-22.085,1.432-33.566-2.142-44.669-5.6-10.868-3.384-21.132-6.579-41.7-5.245s-30.334,5.828-40.673,10.587c-10.564,4.862-21.486,9.889-43.572,11.322s-33.566-2.142-44.668-5.6c-10.867-3.384-21.131-6.579-41.7-5.245s-30.331,5.828-40.669,10.587c-10.563,4.862-21.485,9.889-43.57,11.321s-33.564-2.142-44.666-5.6c-10.867-3.383-21.131-6.579-41.7-5.245s-30.331,5.828-40.669,10.587c-10.563,4.862-21.485,9.889-43.569,11.321s-33.565-2.141-44.667-5.6c-10.867-3.383-21.131-6.578-41.7-5.244s-30.33,5.828-40.668,10.587c-10.563,4.861-21.484,9.888-43.568,11.321s-33.564-2.142-44.666-5.6c-10.867-3.384-21.131-6.579-41.7-5.245s-30.331,5.828-40.669,10.586c-10.563,4.862-21.485,9.89-43.569,11.322s-33.564-2.142-44.666-5.6c-10.867-3.384-21.131-6.579-41.7-5.245l-.531-8.188c22.084-1.432,33.565,2.142,44.667,5.6,10.866,3.383,21.129,6.578,41.7,5.244s30.331-5.828,40.669-10.587c10.563-4.862,21.485-9.889,43.569-11.321s33.564,2.142,44.666,5.6c10.867,3.384,21.131,6.579,41.7,5.245s30.33-5.828,40.668-10.587c10.563-4.862,21.484-9.889,43.568-11.321s33.565,2.141,44.667,5.6c10.867,3.383,21.131,6.579,41.7,5.245s30.331-5.829,40.669-10.587c10.563-4.862,21.485-9.889,43.569-11.322s33.565,2.142,44.667,5.6c10.867,3.383,21.131,6.578,41.7,5.244s30.332-5.828,40.67-10.587c10.563-4.862,21.485-9.889,43.569-11.321s33.565,2.142,44.668,5.6c10.867,3.384,21.131,6.579,41.7,5.245s30.333-5.829,40.673-10.588c10.563-4.861,21.486-9.888,43.572-11.321s33.566,2.142,44.669,5.6c10.868,3.383,21.132,6.579,41.7,5.245Z" fill="#fff"/>
                    </g>
                  </g>
                  <g id="Group_355" data-name="Group 355">
                    <g id="Group_354" data-name="Group 354">
                      <path id="Path_24182" data-name="Path 24182" d="M6550.9,1724.835c-22.086,1.433-33.567-2.141-44.67-5.6-10.867-3.383-21.132-6.578-41.7-5.244s-30.333,5.828-40.672,10.587c-10.564,4.862-21.487,9.889-43.573,11.322s-33.565-2.142-44.667-5.6c-10.867-3.383-21.131-6.578-41.7-5.244s-30.331,5.828-40.67,10.586c-10.562,4.862-21.485,9.89-43.569,11.322s-33.565-2.142-44.667-5.6c-10.866-3.384-21.13-6.579-41.7-5.245s-30.331,5.828-40.669,10.587c-10.563,4.862-21.485,9.889-43.57,11.321s-33.564-2.141-44.667-5.6c-10.866-3.383-21.13-6.578-41.7-5.245s-30.331,5.829-40.669,10.588c-10.562,4.861-21.484,9.888-43.567,11.321s-33.565-2.142-44.667-5.6c-10.866-3.383-21.13-6.578-41.7-5.244s-30.33,5.828-40.668,10.586c-10.563,4.862-21.486,9.89-43.57,11.322s-33.563-2.142-44.666-5.6c-10.866-3.384-21.13-6.579-41.7-5.245l-.532-8.188c22.085-1.432,33.565,2.142,44.667,5.6,10.867,3.383,21.13,6.578,41.7,5.244s30.331-5.828,40.67-10.587c10.562-4.862,21.484-9.889,43.568-11.321s33.565,2.142,44.667,5.6c10.867,3.383,21.13,6.579,41.7,5.245s30.33-5.828,40.668-10.587c10.562-4.862,21.484-9.889,43.568-11.321s33.565,2.141,44.667,5.6c10.867,3.383,21.131,6.579,41.7,5.245s30.332-5.829,40.67-10.588c10.563-4.861,21.485-9.888,43.569-11.321s33.565,2.142,44.667,5.6c10.867,3.384,21.13,6.579,41.7,5.245s30.332-5.828,40.67-10.587c10.562-4.862,21.485-9.889,43.569-11.321s33.565,2.142,44.668,5.6c10.866,3.383,21.13,6.579,41.7,5.245s30.334-5.829,40.673-10.588c10.564-4.861,21.487-9.889,43.572-11.321s33.567,2.142,44.67,5.6c10.868,3.383,21.132,6.579,41.7,5.245Z" fill="#fff"/>
                    </g>
                  </g>
                  <g id="Group_357" data-name="Group 357">
                    <g id="Group_356" data-name="Group 356">
                      <path id="Path_24183" data-name="Path 24183" d="M6548.24,1683.9c-22.085,1.433-33.566-2.141-44.669-5.6-10.867-3.383-21.132-6.578-41.7-5.244s-30.333,5.828-40.673,10.587c-10.563,4.862-21.486,9.889-43.572,11.321s-33.565-2.141-44.667-5.6c-10.867-3.383-21.131-6.578-41.7-5.244s-30.331,5.828-40.67,10.586c-10.563,4.862-21.485,9.89-43.569,11.322s-33.565-2.142-44.667-5.6c-10.867-3.384-21.131-6.579-41.7-5.245s-30.331,5.828-40.67,10.587c-10.562,4.862-21.485,9.889-43.569,11.321s-33.565-2.141-44.667-5.6c-10.867-3.383-21.131-6.579-41.7-5.245s-30.331,5.829-40.669,10.587c-10.562,4.862-21.484,9.889-43.568,11.322s-33.564-2.142-44.666-5.6c-10.867-3.383-21.131-6.578-41.7-5.244s-30.331,5.828-40.669,10.586c-10.562,4.862-21.485,9.889-43.569,11.322s-33.564-2.142-44.666-5.6c-10.867-3.384-21.131-6.579-41.7-5.245l-.531-8.188c22.084-1.432,33.565,2.142,44.667,5.6,10.866,3.383,21.13,6.578,41.7,5.244s30.331-5.828,40.67-10.587c10.562-4.862,21.484-9.889,43.568-11.321s33.564,2.141,44.667,5.6c10.866,3.383,21.13,6.579,41.7,5.245s30.331-5.829,40.668-10.587c10.563-4.862,21.485-9.889,43.569-11.321s33.564,2.141,44.667,5.6c10.866,3.383,21.13,6.578,41.7,5.244s30.331-5.828,40.67-10.587c10.563-4.861,21.485-9.888,43.569-11.321s33.564,2.142,44.667,5.6c10.866,3.384,21.13,6.579,41.7,5.245s30.331-5.828,40.67-10.587c10.562-4.862,21.485-9.889,43.568-11.321s33.566,2.141,44.668,5.6c10.867,3.383,21.131,6.579,41.7,5.245s30.334-5.829,40.673-10.588c10.564-4.861,21.486-9.889,43.572-11.321s33.567,2.141,44.67,5.6c10.867,3.383,21.131,6.579,41.7,5.244Z" fill="#fff"/>
                    </g>
                  </g>
                  <g id="Group_359" data-name="Group 359">
                    <g id="Group_358" data-name="Group 358">
                      <path id="Path_24184" data-name="Path 24184" d="M6545.585,1642.957c-22.085,1.433-33.566-2.141-44.669-5.6-10.868-3.383-21.132-6.578-41.7-5.244s-30.334,5.828-40.673,10.587c-10.564,4.862-21.486,9.889-43.572,11.321s-33.566-2.141-44.668-5.6c-10.867-3.383-21.131-6.578-41.7-5.244s-30.331,5.828-40.669,10.586c-10.563,4.862-21.485,9.889-43.569,11.322s-33.565-2.142-44.667-5.6c-10.867-3.384-21.131-6.579-41.7-5.245s-30.331,5.828-40.669,10.587c-10.563,4.862-21.485,9.889-43.569,11.321s-33.565-2.141-44.667-5.6c-10.867-3.383-21.131-6.579-41.7-5.245s-30.33,5.829-40.668,10.587c-10.563,4.862-21.484,9.889-43.568,11.321s-33.564-2.141-44.666-5.6c-10.867-3.383-21.131-6.578-41.7-5.245s-30.331,5.829-40.669,10.587c-10.563,4.862-21.485,9.889-43.569,11.322s-33.564-2.142-44.666-5.6c-10.867-3.384-21.131-6.579-41.7-5.245l-.531-8.188c22.084-1.433,33.565,2.142,44.667,5.6,10.866,3.384,21.129,6.579,41.7,5.245s30.331-5.828,40.669-10.587c10.563-4.862,21.485-9.889,43.569-11.321s33.564,2.141,44.666,5.6c10.867,3.383,21.131,6.579,41.7,5.245s30.33-5.829,40.668-10.587c10.563-4.862,21.484-9.889,43.568-11.322s33.565,2.142,44.667,5.6c10.867,3.383,21.131,6.578,41.7,5.244s30.331-5.828,40.669-10.587c10.563-4.861,21.485-9.889,43.569-11.321s33.565,2.142,44.667,5.6c10.867,3.384,21.131,6.579,41.7,5.245s30.332-5.828,40.67-10.587c10.563-4.862,21.485-9.889,43.569-11.321s33.565,2.141,44.668,5.6c10.867,3.383,21.131,6.578,41.7,5.245s30.333-5.829,40.673-10.588c10.563-4.862,21.486-9.889,43.572-11.321s33.566,2.141,44.669,5.6c10.868,3.383,21.132,6.578,41.7,5.244Z" fill="#fff"/>
                    </g>
                  </g>
                  <g id="Group_361" data-name="Group 361">
                    <g id="Group_360" data-name="Group 360">
                      <path id="Path_24185" data-name="Path 24185" d="M6542.93,1602.018c-22.086,1.433-33.567-2.141-44.67-5.6-10.867-3.383-21.132-6.578-41.7-5.244s-30.333,5.828-40.672,10.587c-10.564,4.862-21.487,9.889-43.573,11.321s-33.565-2.141-44.667-5.6c-10.867-3.383-21.131-6.579-41.7-5.245s-30.331,5.829-40.67,10.587c-10.562,4.862-21.485,9.889-43.569,11.322s-33.565-2.142-44.667-5.6c-10.866-3.384-21.13-6.579-41.7-5.245s-30.331,5.828-40.669,10.586c-10.563,4.863-21.485,9.89-43.57,11.322s-33.564-2.142-44.667-5.6c-10.866-3.383-21.13-6.579-41.7-5.245s-30.33,5.828-40.669,10.587c-10.562,4.862-21.484,9.889-43.567,11.321s-33.565-2.141-44.667-5.6c-10.866-3.383-21.13-6.579-41.7-5.245s-30.33,5.829-40.668,10.587c-10.563,4.862-21.486,9.889-43.569,11.322s-33.564-2.142-44.667-5.6c-10.866-3.383-21.13-6.578-41.7-5.244l-.532-8.188c22.085-1.433,33.565,2.141,44.667,5.6,10.867,3.383,21.13,6.579,41.7,5.245s30.331-5.829,40.67-10.587c10.562-4.862,21.484-9.889,43.568-11.321s33.565,2.141,44.667,5.6c10.867,3.383,21.13,6.578,41.7,5.245s30.33-5.829,40.668-10.587c10.562-4.862,21.484-9.889,43.568-11.322s33.565,2.142,44.667,5.6c10.867,3.383,21.131,6.578,41.7,5.244s30.332-5.828,40.67-10.587c10.563-4.862,21.485-9.889,43.569-11.321s33.565,2.142,44.667,5.6c10.867,3.384,21.13,6.579,41.7,5.245s30.332-5.828,40.67-10.587c10.562-4.862,21.485-9.889,43.569-11.321s33.565,2.141,44.668,5.6c10.866,3.383,21.13,6.578,41.7,5.244s30.334-5.828,40.673-10.587c10.564-4.862,21.487-9.889,43.572-11.321s33.567,2.141,44.67,5.6c10.868,3.383,21.132,6.578,41.7,5.244Z" fill="#fff"/>
                    </g>
                  </g>
                  <g id="Group_363" data-name="Group 363">
                    <g id="Group_362" data-name="Group 362">
                      <path id="Path_24186" data-name="Path 24186" d="M6540.274,1561.079c-22.085,1.432-33.566-2.142-44.669-5.6-10.867-3.383-21.132-6.579-41.7-5.245s-30.333,5.829-40.673,10.588c-10.563,4.861-21.486,9.889-43.572,11.321s-33.565-2.141-44.667-5.6c-10.867-3.383-21.131-6.579-41.7-5.245s-30.331,5.829-40.67,10.587c-10.563,4.862-21.485,9.889-43.569,11.322s-33.565-2.142-44.667-5.6c-10.867-3.383-21.131-6.578-41.7-5.244s-30.331,5.828-40.669,10.586c-10.563,4.862-21.486,9.89-43.57,11.322s-33.565-2.142-44.667-5.6c-10.867-3.384-21.131-6.579-41.7-5.245s-30.331,5.828-40.669,10.587c-10.562,4.862-21.484,9.889-43.568,11.321s-33.564-2.141-44.666-5.6c-10.867-3.383-21.131-6.579-41.7-5.245s-30.331,5.829-40.669,10.587c-10.562,4.862-21.485,9.889-43.569,11.322s-33.564-2.142-44.666-5.6c-10.867-3.383-21.13-6.578-41.7-5.244l-.531-8.188c22.084-1.433,33.565,2.141,44.667,5.6,10.866,3.383,21.13,6.579,41.7,5.245s30.331-5.829,40.67-10.587c10.562-4.862,21.484-9.889,43.568-11.322s33.564,2.142,44.667,5.6c10.866,3.383,21.13,6.578,41.7,5.244s30.331-5.828,40.668-10.586c10.563-4.862,21.485-9.889,43.569-11.322s33.564,2.142,44.667,5.6c10.866,3.384,21.13,6.579,41.7,5.245s30.331-5.828,40.67-10.587c10.563-4.862,21.485-9.889,43.569-11.321s33.564,2.142,44.667,5.6c10.866,3.383,21.13,6.579,41.7,5.245s30.331-5.829,40.67-10.587c10.562-4.862,21.485-9.889,43.568-11.321s33.566,2.141,44.668,5.6c10.867,3.383,21.131,6.578,41.7,5.244s30.334-5.828,40.673-10.587c10.564-4.862,21.486-9.889,43.572-11.321s33.567,2.141,44.67,5.6c10.867,3.383,21.131,6.578,41.7,5.244Z" fill="#fff"/>
                    </g>
                  </g>
                </g>
              </g>
            </g>
          </g>
        </g>
      </g>
    </g>
    <path id="Path_24187" data-name="Path 24187" d="M5900.772,2483.9H5948.4l-23.816-36.465Z" fill="#b1bfd5"/>
    <path id="Path_24188" data-name="Path 24188" d="M6002.572,1933.934,6012.9,2082.26l-150.447,10.477Z" fill="#b1bfd5"/>
    <path id="Path_24189" data-name="Path 24189" d="M6394.319,2462.48a30.823,30.823,0,0,1,6.161-18.828h34.383a30.829,30.829,0,0,1,6.161,18.828c0,9.29-3.823,17.517-9.7,22.569h-27.309C6398.141,2480,6394.319,2471.77,6394.319,2462.48Z" fill="#fff"/>
    <line id="Line_64" data-name="Line 64" y1="117.857" transform="translate(6320.201 2310.338)" fill="none" stroke="#1d2023" stroke-linecap="round" stroke-linejoin="round" stroke-width="2.103"/>
    <line id="Line_65" data-name="Line 65" y1="24.264" transform="translate(6417.671 2419.388)" fill="none" stroke="#1d2023" stroke-linecap="round" stroke-linejoin="round" stroke-width="2.103"/>
    <line id="Line_66" data-name="Line 66" x2="22.238" y2="56.779" transform="translate(6280.104 2371.416)" fill="none" stroke="#1d2023" stroke-linecap="round" stroke-linejoin="round" stroke-width="2.103"/>
    <line id="Line_67" data-name="Line 67" y1="55.874" x2="24.424" transform="translate(6335.507 2371.868)" fill="none" stroke="#1d2023" stroke-linecap="round" stroke-linejoin="round" stroke-width="2.103"/>
    <rect id="Rectangle_46" data-name="Rectangle 46" width="20.563" height="20.563" transform="matrix(0.401, -0.916, 0.916, 0.401, 6350.511, 2367.749)" fill="#e45c2c"/>
    <line id="Line_68" data-name="Line 68" y1="115.004" transform="translate(5844.934 2287.247)" fill="none" stroke="#1d2023" stroke-linecap="round" stroke-linejoin="round" stroke-width="2.103"/>
    <line id="Line_69" data-name="Line 69" x1="21.7" y2="55.405" transform="translate(5862.36 2346.846)" fill="none" stroke="#1d2023" stroke-linecap="round" stroke-linejoin="round" stroke-width="2.103"/>
    <line id="Line_70" data-name="Line 70" x1="23.833" y1="54.522" transform="translate(5804.429 2351.427)" fill="none" stroke="#1d2023" stroke-linecap="round" stroke-linejoin="round" stroke-width="2.103"/>
    <path id="Path_24190" data-name="Path 24190" d="M6368.311,2418.563l-6.595,22.88-6.254,21.713-6.31,21.892h-57.906l-6.374-22.126-5.5-19.091-7.28-25.268Z" fill="#fff"/>
    <rect id="Rectangle_47" data-name="Rectangle 47" width="58.78" height="58.78" transform="translate(5689.832 2424.976)" fill="#fff"/>
    <rect id="Rectangle_48" data-name="Rectangle 48" width="36.364" height="36.364" transform="translate(6464.355 2447.392)" fill="#fff"/>
    <rect id="Rectangle_49" data-name="Rectangle 49" width="36.464" height="36.464" transform="translate(5978.488 2447.291)" fill="#b1bfd5"/>
    <rect id="Rectangle_50" data-name="Rectangle 50" width="33.344" height="33.344" transform="translate(5828.262 2253.903)" fill="#fff"/>
    <path id="Path_24191" data-name="Path 24191" d="M5789.9,2432.579c0-16.464,5.3-31.457,13.971-42.693h77.965c8.675,11.236,13.971,26.229,13.971,42.693,0,21.067-8.668,39.722-21.992,51.177h-61.925C5798.564,2472.3,5789.9,2453.646,5789.9,2432.579Z" fill="#fff"/>
    <path id="Path_24192" data-name="Path 24192" d="M5821.009,2446.408h0a9.1,9.1,0,0,0,7.616-14.072l-2.561-3.921a6.038,6.038,0,0,0-10.11,0l-2.561,3.921A9.1,9.1,0,0,0,5821.009,2446.408Z" fill="#2ba4e4"/>
    <path id="Path_24193" data-name="Path 24193" d="M5864.688,2446.408h0a9.1,9.1,0,0,0,7.617-14.072l-2.562-3.921a6.038,6.038,0,0,0-10.11,0l-2.561,3.921A9.1,9.1,0,0,0,5864.688,2446.408Z" fill="#2ba4e4"/>
    <circle id="Ellipse_1358" data-name="Ellipse 1358" cx="11.44" cy="11.44" r="11.44" transform="translate(6312.288 2440.364)" fill="#2ba4e4"/>
    <path id="Path_24194" data-name="Path 24194" d="M6299.011,2451.8a11.44,11.44,0,0,1-11.44,11.44,11.273,11.273,0,0,1-2.7-.323l-5.5-19.091a11.438,11.438,0,0,1,19.64,7.974Z" fill="#b1bfd5"/>
    <path id="Path_24195" data-name="Path 24195" d="M6361.716,2441.442l-6.254,21.713a11.439,11.439,0,0,1,1.409-22.791A11.312,11.312,0,0,1,6361.716,2441.442Z" fill="#b1bfd5"/>
    <path id="Path_24196" data-name="Path 24196" d="M6214.207,2445.2l9.583,21.678-23.8,16.876H6137.6l35.9-24.572Z" fill="#242424"/>
    <path id="Path_24197" data-name="Path 24197" d="M6108.733,2445.2l9.583,27.426-23.8,11.128h-62.393l35.9-24.572Z" fill="#242424"/>
    <path id="Path_24198" data-name="Path 24198" d="M6175.846,2007.794l-1.85-5.3a73.153,73.153,0,0,1-1.667-7.955c-.619-4.2,1.035-9.833-4.15-16.094s3.793-3.454,6.429-.527c2.2,2.441,3.132,8.609,5.466,10.307a11.012,11.012,0,0,0,1.943-2.384l10.8-24.374a1.941,1.941,0,0,1,2.148-1.114l1.006.2a1.658,1.658,0,0,1,1.3,2.21c-1.966,5.268-8.261,20.865-7.958,20.92l.572.369,13.906-24.282a1.951,1.951,0,0,1,2.274-.921l1.364.422a1.635,1.635,0,0,1,1.059,2.257c-2.529,5.674-12.764,24.3-12.45,24.369l.719.355L6210.5,1966.5a1.951,1.951,0,0,1,2.4-.869l1.061.42a1.639,1.639,0,0,1,.91,2.265l-12.731,19.553.688.578,11.966-13.725a1.964,1.964,0,0,1,2.366-.672l.5.228a1.641,1.641,0,0,1,.823,2.263c-1.482,2.972-7.037,8.812-10.9,15.176-3,4.941-3.983,9.1-8.467,14.961a57.137,57.137,0,0,1-6.868,6.868" fill="#e45c2c"/>
    <path id="Path_24199" data-name="Path 24199" d="M6090.515,2093.645l53.622-30.294,21.742-61.627,35.266,10.152-26.292,80.565-70.026,42.462" fill="#fff"/>
    <path id="Path_24200" data-name="Path 24200" d="M6164.4,2462.647l-50.174-85.316,4.427,84.958-59.617-.144-13.44-281.258,82.873-2.224,16.841,124.117,75.274,140.458Z" fill="#b1bfd5"/>
    <path id="Path_24201" data-name="Path 24201" d="M5942.248,2137.711l-2.647-5.148a80.84,80.84,0,0,0-4.7-6.938c-2.649-3.477-7.828-6.383-8.995-14.589s-4.988.188-4.581,4.175c.34,3.322,4.215,8.449,3.926,11.332a10.622,10.622,0,0,1-3-.349l-24.778-9.989a1.772,1.772,0,0,0-2.213.716l-.511.858a1.775,1.775,0,0,0,.76,2.519c5.114,2.419,20.567,9.247,20.409,9.5l-.1.672-26.739-7.722a1.772,1.772,0,0,0-2.155.945l-.583,1.271a1.763,1.763,0,0,0,.95,2.384c5.777,2.315,26.008,8.546,25.851,8.816l-.211.766-23.341-4.554a1.773,1.773,0,0,0-2.2,1.07L5887,2134.5a1.775,1.775,0,0,0,1.053,2.285l22.532,5.13-.028.906-17.795-1.455a1.777,1.777,0,0,0-2.034,1.19l-.162.521a1.779,1.779,0,0,0,1.108,2.221c3.128,1.1,11,1.392,18.156,3.259,5.553,1.449,9.219,3.763,16.409,4.828a53.8,53.8,0,0,0,9.479.1" fill="#e45c2c"/>
    <path id="Path_24202" data-name="Path 24202" d="M6003.294,2134.462s19.526-23.426,42.472-35.715c21.063-11.28,78.785-11.28,78.785-11.28l3.943,91.653-82.9,1.768-6.1-24.677-17.636,14.821a30.157,30.157,0,0,1-24.685,6.019l-63.872-12.657,6.258-38.11Z" fill="#fff"/>
    <g id="Group_373" data-name="Group 373">
      <g id="Group_372" data-name="Group 372" clip-path="url(#clip-path-3)">
        <g id="Group_371" data-name="Group 371">
          <path id="Path_24203" data-name="Path 24203" d="M6004.972,2105.01h-36.714l18.357,28.106Z" fill="#ffdbdb"/>
          <path id="Path_24204" data-name="Path 24204" d="M6058.481,2105.01h-36.714l18.357,28.106Z" fill="#ffdbdb"/>
          <path id="Path_24205" data-name="Path 24205" d="M6111.992,2105.01h-36.714l18.357,28.106Z" fill="#ffdbdb"/>
          <path id="Path_24206" data-name="Path 24206" d="M6165.5,2105.01h-36.714l18.357,28.106Z" fill="#ffdbdb"/>
          <path id="Path_24207" data-name="Path 24207" d="M5979.475,2144.8h-36.714l18.357,28.106Z" fill="#ffdbdb"/>
          <path id="Path_24208" data-name="Path 24208" d="M6032.985,2144.8h-36.714l18.357,28.106Z" fill="#ffdbdb"/>
          <path id="Path_24209" data-name="Path 24209" d="M6086.5,2144.8h-36.714l18.357,28.106Z" fill="#ffdbdb"/>
          <path id="Path_24210" data-name="Path 24210" d="M6140,2144.8h-36.714l18.357,28.106Z" fill="#ffdbdb"/>
          <path id="Path_24211" data-name="Path 24211" d="M6086.955,2062.153h-36.714l18.357,28.106Z" fill="#ffdbdb"/>
          <path id="Path_24212" data-name="Path 24212" d="M6140.465,2062.153h-36.714l18.357,28.106Z" fill="#ffdbdb"/>
          <path id="Path_24213" data-name="Path 24213" d="M6193.975,2062.153h-36.714l18.357,28.106Z" fill="#ffdbdb"/>
          <path id="Path_24214" data-name="Path 24214" d="M6169.773,2021.146h-36.714l18.357,28.106Z" fill="#ffdbdb"/>
          <path id="Path_24215" data-name="Path 24215" d="M6199.121,1985.634h-36.714l18.357,28.106Z" fill="#ffdbdb"/>
        </g>
      </g>
    </g>
    <g id="Group_374" data-name="Group 374">
      <path id="Path_24216" data-name="Path 24216" d="M6082.607,2103.155c-.115,0-.231,0-.347,0a14.146,14.146,0,0,1-13.8-14.483l1.257-52.153a14.146,14.146,0,0,1,28.284.682l-1.257,52.153A14.146,14.146,0,0,1,6082.607,2103.155Z" fill="#e45c2c"/>
    </g>
    <path id="Path_24217" data-name="Path 24217" d="M6072.292,2076.347l-2.75-.387a21.96,21.96,0,0,1-17.75-28.764l5.108-15.148a21.963,21.963,0,0,1,24.106-14.694h0a21.961,21.961,0,0,1,18.415,25.009l-2.359,15.534A21.961,21.961,0,0,1,6072.292,2076.347Z" fill="#e45c2c"/>
    <path id="Path_24218" data-name="Path 24218" d="M6056.463,2034.8l-8.74,11.933,4.366,1.315" fill="#e45c2c"/>
    <path id="Path_24219" data-name="Path 24219" d="M6088.6,2057.437c-5.744-1.678.6-20.571.6-20.571l-7.6,3.792c-1.694,1.087-3.288-11.209-3.288-11.209s-22.813,1.955-20.276-17.575c1.459-11.235,10.477-2.182,16.5-1.35,9.467,1.308,17.249-2.459,28.078,7.582C6115.588,2030.128,6104,2061.936,6088.6,2057.437Z" fill="#242424"/>
    <path id="Path_24220" data-name="Path 24220" d="M6068.426,2075.619l8.258.429-8.488,6.194Z" fill="#242424"/>
    <circle id="Ellipse_1359" data-name="Ellipse 1359" cx="2.26" cy="2.26" r="2.26" transform="translate(6058.478 2033.823)" fill="#242424"/>
    <path id="Path_24221" data-name="Path 24221" d="M6084.016,2181.954" fill="none" stroke="#fff" stroke-linecap="round" stroke-linejoin="round" stroke-width="2.103"/>
    <path id="Path_24222" data-name="Path 24222" d="M6088.572,2204.846" fill="none" stroke="#fff" stroke-linecap="round" stroke-linejoin="round" stroke-width="2.103"/>
    <path id="Path_24223" data-name="Path 24223" d="M6074.893,2179.774" fill="none" stroke="#fff" stroke-linecap="round" stroke-linejoin="round" stroke-width="2.103"/>
    <path id="Path_24224" data-name="Path 24224" d="M6079.449,2202.666" fill="none" stroke="#fff" stroke-linecap="round" stroke-linejoin="round" stroke-width="2.103"/>
    <path id="Path_24225" data-name="Path 24225" d="M6070.033,2177.963" fill="none" stroke="#fff" stroke-linecap="round" stroke-linejoin="round" stroke-width="2.103"/>
    <path id="Path_24226" data-name="Path 24226" d="M6074.589,2200.855" fill="none" stroke="#fff" stroke-linecap="round" stroke-linejoin="round" stroke-width="2.103"/>
    <line id="Line_71" data-name="Line 71" x1="11.927" y1="154.989" transform="translate(6104.447 2227.513)" fill="none" stroke="#fff" stroke-linecap="round" stroke-linejoin="round" stroke-width="2.103"/>
    <rect id="Rectangle_51" data-name="Rectangle 51" width="16.151" height="20.731" rx="8.076" transform="matrix(0.694, 0.72, -0.72, 0.694, 6090.565, 2030.685)" fill="#e45c2c"/>
    <line id="Line_72" data-name="Line 72" x1="4.313" y2="3.592" transform="translate(6087.31 2043.631)" fill="none" stroke="#1d2023" stroke-linecap="round" stroke-linejoin="round" stroke-width="2.103"/>
    <path id="Path_24227" data-name="Path 24227" d="M6067.077,2054.3a12.123,12.123,0,0,1-12.438,2.927" fill="none" stroke="#1d2023" stroke-linecap="round" stroke-linejoin="round" stroke-width="2.085"/>
    <line id="Line_73" data-name="Line 73" x2="0.7" y2="8.436" transform="translate(6126.978 2116.727)" fill="none" stroke="#fff" stroke-linecap="round" stroke-linejoin="round" stroke-width="2.103"/>
    <line id="Line_74" data-name="Line 74" y1="10.153" x2="11.008" transform="translate(6038.456 2147.625)" fill="none" stroke="#fff" stroke-linecap="round" stroke-linejoin="round" stroke-width="2.103"/>
    <path id="Path_24228" data-name="Path 24228" d="M6137.037,2295.706l8.273,7.074-7,12.219" fill="none" stroke="#fff" stroke-linecap="round" stroke-linejoin="round" stroke-width="2.103"/>
    <line id="Line_75" data-name="Line 75" x2="3.376" y2="2.47" transform="translate(6062.166 2029.61)" fill="none" stroke="#1d2023" stroke-linecap="round" stroke-linejoin="round" stroke-width="2.103"/>
    <path id="Path_24229" data-name="Path 24229" d="M5818.714,2458.969s24.929,22.852,47.781,0" fill="none" stroke="#b1bfd5" stroke-linecap="round" stroke-linejoin="round" stroke-width="3"/>
    <circle id="Ellipse_1360" data-name="Ellipse 1360" cx="14" cy="14" r="14" transform="translate(6306.201 2281.147)" fill="#dbe1e4"/>
    <circle id="Ellipse_1361" data-name="Ellipse 1361" cx="9" cy="9" r="9" transform="translate(6408.671 2399.567)" fill="#dbe1e4"/>
    <circle id="Ellipse_1362" data-name="Ellipse 1362" cx="13" cy="13" r="13" transform="translate(5785.116 2323.985)" fill="#dbe1e4"/>
    <path id="Path_24230" data-name="Path 24230" d="M6269.552,2374.248l21.623-8.893-17.62-12.107Z" fill="#dbe1e4"/>
    <path id="Path_24231" data-name="Path 24231" d="M5899.223,2350.453l-28.831-11.858,23.493-16.142Z" fill="#b1bfd5"/>
  </g>
</svg>
