<svg xmlns="http://www.w3.org/2000/svg" width="165.654" height="50.008" viewBox="0 0 165.654 50.008">
  <g id="logo" transform="translate(-5039.941 -1569)">
    <g id="logo-icon" transform="translate(5039.941 1569)">
      <path id="halfcircle-stroke" d="M5063.815,1572.358,5056,1585.889l-7.811,13.531a15.8,15.8,0,0,1,15.623-27.063m3.161-.966a18.041,18.041,0,0,0-18.04,31.249l9.02-15.624,9.02-15.625Z" transform="translate(-5039.941 -1569)" fill="#e45c2c"/>
      <path id="halfcircle-fill" d="M5057.8,1608.188l-9.02,15.625a18.041,18.041,0,0,0,18.04-31.249Z" transform="translate(-5042.641 -1576.198)" fill="#e45c2c"/>
    </g>
    <g id="text-paths" transform="translate(5083.114 1579.002)">
      <path id="Path_19388" data-name="Path 19388" d="M5105.169,1599.8a5.925,5.925,0,0,0,5.7,3.456c2.836,0,3.847-1.5,3.847-2.967a2.506,2.506,0,0,0-1.3-2.315,12.737,12.737,0,0,0-3.325-1.564,15.126,15.126,0,0,1-4.6-2.413,5.421,5.421,0,0,1-1.923-4.466,5.558,5.558,0,0,1,2.021-4.433,7.552,7.552,0,0,1,5.02-1.695,7.8,7.8,0,0,1,7.008,3.684l-2.9,1.988a4.505,4.505,0,0,0-4.042-2.02c-1.793,0-3.1,1.01-3.1,2.412a2.472,2.472,0,0,0,.945,1.956c.358.26,1.271.652,1.7.88l1.173.456,1.336.522a13.154,13.154,0,0,1,4.628,2.836,5.752,5.752,0,0,1,1.434,4.075c0,4.01-2.77,6.715-7.954,6.715-4.2,0-7.3-1.956-8.735-5.183Z" transform="translate(-5102.105 -1583.4)" fill="#e45c2c"/>
      <path id="Path_19389" data-name="Path 19389" d="M5126.5,1612.8a5.792,5.792,0,0,0,1.8.258,2.555,2.555,0,0,0,1.416-.354,2.81,2.81,0,0,0,.934-1.384l.418-1.159-6.791-16.834h3.895l4.763,12.231,4.474-12.231h3.894l-7.273,18.861a8.218,8.218,0,0,1-1.739,2.9,5.459,5.459,0,0,1-3.894,1.352,6.765,6.765,0,0,1-1.9-.258Z" transform="translate(-5108.88 -1586.432)" fill="#e45c2c"/>
      <path id="Path_19390" data-name="Path 19390" d="M5149.445,1609.408v-16.222h3.831v2.414a5.005,5.005,0,0,1,4.827-2.736,5.973,5.973,0,0,1,1.159.1v3.734a8.194,8.194,0,0,0-1.609-.161,4.065,4.065,0,0,0-4.377,4.345v8.529Z" transform="translate(-5116.567 -1586.291)" fill="#e45c2c"/>
      <path id="Path_19391" data-name="Path 19391" d="M5175.946,1595.521v-2.35h3.863v11.33c0,1.384.321,1.9,1.19,1.9.226,0,.516-.033.805-.065v3.122a5.594,5.594,0,0,1-1.9.258,4.245,4.245,0,0,1-2.253-.515,2.982,2.982,0,0,1-1.319-1.964c-1.126,1.706-2.994,2.543-5.568,2.543a7.708,7.708,0,0,1-5.793-2.446,8.462,8.462,0,0,1-2.317-6.051,8.335,8.335,0,0,1,2.317-6.019,7.71,7.71,0,0,1,5.793-2.446C5173.372,1592.818,5175.335,1593.977,5175.946,1595.521Zm-1.159,9.3a5.051,5.051,0,0,0,0-7.081,4.8,4.8,0,0,0-3.508-1.416,4.66,4.66,0,0,0-3.443,1.416,5.31,5.31,0,0,0,0,7.081,4.66,4.66,0,0,0,3.443,1.416A4.8,4.8,0,0,0,5174.788,1604.823Z" transform="translate(-5120.603 -1586.277)" fill="#e45c2c"/>
      <path id="Path_19392" data-name="Path 19392" d="M5204.807,1595.386l-2.381,2.479a5.456,5.456,0,0,0-4.12-1.771,4.852,4.852,0,0,0-3.572,1.448,5.38,5.38,0,0,0,0,7.275,4.853,4.853,0,0,0,3.572,1.448,5.456,5.456,0,0,0,4.12-1.77l2.381,2.478a8.5,8.5,0,0,1-6.5,2.8,8.693,8.693,0,0,1-6.276-2.446,8.664,8.664,0,0,1,0-12.263,8.723,8.723,0,0,1,6.276-2.478A8.5,8.5,0,0,1,5204.807,1595.386Z" transform="translate(-5128.799 -1586.206)" fill="#e45c2c"/>
      <path id="Path_19393" data-name="Path 19393" d="M5237.34,1599.778c-.644-.226-1.544-.547-2.027-.676a10.683,10.683,0,0,1-1.32-.58,1.266,1.266,0,0,1-.739-1.126c0-.87.771-1.449,1.963-1.449a3.779,3.779,0,0,1,3.153,1.352l2.157-2.286a6.247,6.247,0,0,0-5.247-2.382,6.483,6.483,0,0,0-4.087,1.32,4.253,4.253,0,0,0-1.641,3.541c0,2.317,1.383,3.637,3.99,4.57.547.226,1.513.515,2,.676a8.216,8.216,0,0,1,1.512.612,1.526,1.526,0,0,1,.934,1.287c0,1-.869,1.77-2.9,1.77a5.016,5.016,0,0,1-4.28-2.028l-1.881,1.588a1.323,1.323,0,0,1-.851.312h0c-.87,0-1.191-.483-1.191-1.867v-11.3h-3.862v9.334a3.512,3.512,0,0,1-3.54,3.766c-2.093,0-3.283-1.383-3.283-3.6v-9.5h-3.862v10.042c0,4.023,2.317,6.5,6.179,6.5,2.349,0,3.991-.8,4.924-2.382a3.031,3.031,0,0,0,1.159,1.706,4.092,4.092,0,0,0,2.381.643,5.575,5.575,0,0,0,1.9-.258v-1.058c0-.478.3-.62.662-.306a8.232,8.232,0,0,0,5.485,1.751c4.41,0,6.663-2.156,6.663-5.15C5241.686,1602.288,5240.334,1600.839,5237.34,1599.778Z" transform="translate(-5135.779 -1586.22)" fill="#e45c2c"/>
      <path id="Path_19394" data-name="Path 19394" d="M5254.69,1601.24a8.115,8.115,0,0,1,8.5-8.561,7.55,7.55,0,0,1,5.762,2.349,8.067,8.067,0,0,1,2.252,5.826c0,.483-.032.933-.064,1.352H5258.52c.129,2.575,2.027,4.249,4.892,4.249a5.967,5.967,0,0,0,4.377-1.866l2.318,2.253a9,9,0,0,1-6.823,2.9,8.642,8.642,0,0,1-6.211-2.285,8.045,8.045,0,0,1-2.382-6.083Zm12.584-1.738a3.151,3.151,0,0,0-1.223-2.478,4.152,4.152,0,0,0-2.864-1.063,4.99,4.99,0,0,0-3.122,1.03,3.528,3.528,0,0,0-1.448,2.511Z" transform="translate(-5148.719 -1586.234)" fill="#e45c2c"/>
    </g>
  </g>
</svg>
