<svg xmlns="http://www.w3.org/2000/svg" width="238.522" height="72" viewBox="0 0 238.522 72">
  <g id="logo" transform="translate(-5039.941 -1569)">
    <g id="logo-icon">
      <path id="halfcircle-stroke" d="M5074.317,1573.835l-11.248,19.482-11.247,19.482a22.742,22.742,0,0,1,22.5-38.964m4.552-1.39a25.975,25.975,0,0,0-25.975,44.991l12.987-22.495,12.988-22.5Z" fill="#e45c2c"/>
      <path id="halfcircle-fill" d="M5061.764,1615.059l-12.987,22.5a25.975,25.975,0,0,0,25.975-44.991Z" fill="#e45c2c"/>
    </g>
    <g id="text-paths">
      <path id="Path_19388" data-name="Path 19388" d="M5106.517,1607.008a8.532,8.532,0,0,0,8.213,4.975c4.084,0,5.539-2.159,5.539-4.271a3.608,3.608,0,0,0-1.878-3.333,18.352,18.352,0,0,0-4.787-2.252,21.783,21.783,0,0,1-6.618-3.474,7.806,7.806,0,0,1-2.769-6.43,8,8,0,0,1,2.91-6.383,10.873,10.873,0,0,1,7.228-2.44,11.229,11.229,0,0,1,10.091,5.3l-4.177,2.862a6.487,6.487,0,0,0-5.82-2.909c-2.582,0-4.459,1.454-4.459,3.473a3.561,3.561,0,0,0,1.361,2.816c.516.375,1.831.939,2.441,1.267l1.689.657,1.925.751a18.946,18.946,0,0,1,6.664,4.083,8.28,8.28,0,0,1,2.065,5.867c0,5.773-3.989,9.668-11.452,9.668-6.054,0-10.513-2.816-12.578-7.462Z" fill="#e45c2c"/>
      <path id="Path_19389" data-name="Path 19389" d="M5127.48,1621.364a8.341,8.341,0,0,0,2.6.371,3.681,3.681,0,0,0,2.039-.51,4.043,4.043,0,0,0,1.344-1.993l.6-1.668-9.778-24.237h5.608l6.858,17.61,6.442-17.61h5.607l-10.473,27.156a11.84,11.84,0,0,1-2.5,4.171,7.864,7.864,0,0,1-5.607,1.946,9.742,9.742,0,0,1-2.734-.371Z" fill="#e45c2c"/>
      <path id="Path_19390" data-name="Path 19390" d="M5149.446,1616.683v-23.356h5.515v3.476c1.112-2.456,3.661-3.939,6.951-3.939a8.6,8.6,0,0,1,1.668.139v5.376a11.812,11.812,0,0,0-2.317-.232c-3.846,0-6.3,2.41-6.3,6.256v12.28Z" fill="#e45c2c"/>
      <path id="Path_19391" data-name="Path 19391" d="M5181.793,1596.71v-3.383h5.562v16.312c0,1.993.463,2.735,1.714,2.735.325,0,.742-.047,1.159-.093v4.495a8.057,8.057,0,0,1-2.734.371,6.114,6.114,0,0,1-3.244-.742,4.293,4.293,0,0,1-1.9-2.827c-1.622,2.456-4.31,3.661-8.017,3.661a11.1,11.1,0,0,1-8.342-3.522,12.181,12.181,0,0,1-3.336-8.712,12,12,0,0,1,3.336-8.666,11.1,11.1,0,0,1,8.342-3.521C5178.086,1592.818,5180.913,1594.486,5181.793,1596.71Zm-1.668,13.393a7.272,7.272,0,0,0,0-10.2,6.917,6.917,0,0,0-5.051-2.039,6.708,6.708,0,0,0-4.958,2.039,7.646,7.646,0,0,0,0,10.2,6.708,6.708,0,0,0,4.958,2.039A6.917,6.917,0,0,0,5180.125,1610.1Z" fill="#e45c2c"/>
      <path id="Path_19392" data-name="Path 19392" d="M5211.546,1596.617l-3.43,3.569a7.856,7.856,0,0,0-5.931-2.549,6.988,6.988,0,0,0-5.144,2.085,7.745,7.745,0,0,0,0,10.474,6.988,6.988,0,0,0,5.144,2.085,7.856,7.856,0,0,0,5.931-2.549l3.43,3.568a12.241,12.241,0,0,1-9.361,4.032,12.517,12.517,0,0,1-9.037-3.522,12.474,12.474,0,0,1,0-17.656,12.559,12.559,0,0,1,9.037-3.568A12.244,12.244,0,0,1,5211.546,1596.617Z" fill="#e45c2c"/>
      <path id="Path_19393" data-name="Path 19393" d="M5248.341,1602.92c-.927-.325-2.224-.788-2.919-.973a15.35,15.35,0,0,1-1.9-.835,1.823,1.823,0,0,1-1.065-1.621c0-1.252,1.112-2.086,2.827-2.086a5.443,5.443,0,0,1,4.541,1.947l3.1-3.291a8.994,8.994,0,0,0-7.554-3.429,9.332,9.332,0,0,0-5.885,1.9,6.123,6.123,0,0,0-2.363,5.1c0,3.336,1.992,5.236,5.746,6.58.788.325,2.178.741,2.873.973a11.835,11.835,0,0,1,2.178.881,2.2,2.2,0,0,1,1.344,1.853c0,1.437-1.251,2.549-4.171,2.549a7.222,7.222,0,0,1-6.163-2.92l-2.708,2.286a1.907,1.907,0,0,1-1.225.449H5235c-1.252,0-1.715-.695-1.715-2.688v-16.266h-5.561v13.439c0,3.2-2.132,5.422-5.1,5.422-3.013,0-4.727-1.992-4.727-5.19v-13.671h-5.561v14.459c0,5.792,3.336,9.361,8.9,9.361,3.383,0,5.747-1.159,7.091-3.43a4.363,4.363,0,0,0,1.668,2.457,5.89,5.89,0,0,0,3.429.926,8.025,8.025,0,0,0,2.734-.371V1615.2c0-.688.434-.893.953-.44a11.855,11.855,0,0,0,7.9,2.521c6.349,0,9.593-3.1,9.593-7.415C5254.6,1606.535,5252.651,1604.449,5248.341,1602.92Z" fill="#e45c2c"/>
      <path id="Path_19394" data-name="Path 19394" d="M5254.69,1605.005a11.684,11.684,0,0,1,12.235-12.326,10.87,10.87,0,0,1,8.3,3.382,11.61,11.61,0,0,1,3.244,8.388c0,.7-.047,1.344-.093,1.946h-18.166c.186,3.708,2.919,6.117,7.044,6.117a8.592,8.592,0,0,0,6.3-2.687l3.337,3.244a12.959,12.959,0,0,1-9.824,4.17,12.446,12.446,0,0,1-8.944-3.29,11.585,11.585,0,0,1-3.43-8.758Zm18.12-2.5a4.537,4.537,0,0,0-1.761-3.568,5.98,5.98,0,0,0-4.124-1.53,7.186,7.186,0,0,0-4.5,1.483,5.079,5.079,0,0,0-2.085,3.615Z" fill="#e45c2c"/>
    </g>
  </g>
</svg>
